<svg id="svg" version="1.1" xmlns="http://www.w3.org/2000/svg" xmlns:xlink="http://www.w3.org/1999/xlink" width="400"
    height="104.39940682155215" viewBox="0, 0, 400,104.39940682155215">
    <g id="svgg">
        <path id="path0"
            d="M282.458 63.612 C 282.115 63.653,281.833 63.757,281.833 63.843 C 281.833 63.930,281.665 64.001,281.458 64.003 C 280.421 64.011,276.564 65.441,276.175 65.962 C 276.124 66.029,275.890 66.183,275.653 66.305 C 274.387 66.956,271.000 70.554,271.000 71.248 C 271.000 71.352,270.868 71.583,270.706 71.760 C 270.545 71.938,270.274 72.421,270.105 72.833 C 269.935 73.246,269.658 73.885,269.489 74.254 C 269.320 74.623,269.024 75.560,268.833 76.337 C 268.641 77.114,268.417 78.012,268.335 78.333 C 267.719 80.741,267.729 88.324,268.351 90.500 C 268.443 90.821,268.708 91.795,268.940 92.666 C 269.172 93.536,269.416 94.286,269.483 94.332 C 269.550 94.379,269.778 94.885,269.989 95.458 C 270.201 96.031,270.421 96.500,270.479 96.500 C 270.537 96.500,270.769 96.856,270.995 97.292 C 271.221 97.727,271.535 98.233,271.693 98.417 C 271.852 98.600,272.296 99.125,272.681 99.583 C 273.066 100.042,273.571 100.543,273.803 100.697 C 274.035 100.852,274.290 101.095,274.370 101.239 C 274.451 101.383,274.593 101.500,274.687 101.500 C 274.780 101.500,275.170 101.714,275.553 101.976 C 276.309 102.493,277.745 103.167,278.091 103.167 C 278.209 103.167,278.331 103.244,278.363 103.338 C 278.802 104.657,292.132 104.559,293.463 103.227 C 293.588 103.102,293.796 103.000,293.924 103.000 C 294.251 103.000,295.667 102.296,295.667 102.133 C 295.667 102.060,295.764 102.000,295.883 102.000 C 296.332 102.000,299.094 99.551,299.830 98.500 C 300.055 98.179,300.337 97.816,300.457 97.693 C 300.576 97.569,300.796 97.232,300.944 96.943 C 301.092 96.653,301.268 96.379,301.335 96.333 C 301.485 96.231,302.167 94.747,302.167 94.523 C 302.167 94.434,302.246 94.335,302.342 94.303 C 302.564 94.229,303.144 92.054,303.279 90.792 C 303.421 89.459,303.699 89.593,304.053 91.167 C 304.218 91.900,304.409 92.500,304.479 92.500 C 304.549 92.500,304.735 92.910,304.893 93.412 C 305.051 93.913,305.274 94.419,305.389 94.537 C 305.504 94.654,305.702 95.005,305.830 95.317 C 306.641 97.301,309.786 100.803,311.583 101.724 C 311.950 101.912,312.287 102.116,312.333 102.178 C 312.379 102.241,312.829 102.458,313.333 102.661 C 313.837 102.865,314.550 103.166,314.917 103.330 C 317.705 104.582,330.388 104.586,330.805 103.334 C 330.836 103.242,330.962 103.167,331.086 103.167 C 331.349 103.167,333.377 102.317,333.500 102.156 C 333.546 102.096,333.846 101.914,334.167 101.752 C 335.315 101.171,338.263 98.218,339.048 96.861 C 339.243 96.525,339.458 96.210,339.527 96.161 C 339.597 96.112,339.851 95.625,340.093 95.078 C 340.335 94.531,340.592 94.046,340.666 94.000 C 340.812 93.909,341.500 91.904,341.500 91.570 C 341.500 91.455,341.569 91.336,341.654 91.306 C 342.031 91.170,342.704 86.495,342.706 84.000 C 342.707 81.718,342.194 77.952,341.741 76.917 C 341.621 76.642,341.399 76.042,341.249 75.583 C 340.961 74.705,339.694 71.975,339.508 71.833 C 339.448 71.787,339.228 71.469,339.019 71.125 C 338.810 70.781,338.571 70.500,338.486 70.500 C 338.402 70.500,338.333 70.406,338.333 70.290 C 338.333 69.993,336.566 67.998,335.863 67.500 C 335.539 67.271,335.088 66.915,334.862 66.708 C 334.636 66.502,334.361 66.333,334.251 66.333 C 334.142 66.333,333.916 66.183,333.750 66.000 C 333.584 65.817,333.388 65.667,333.314 65.667 C 333.240 65.667,332.633 65.409,331.965 65.093 C 331.297 64.778,330.075 64.385,329.250 64.221 C 328.425 64.056,327.696 63.845,327.631 63.752 C 327.459 63.507,318.673 63.526,318.150 63.772 C 317.930 63.876,317.150 64.090,316.417 64.248 C 313.201 64.939,310.157 66.855,307.873 69.626 C 307.273 70.355,306.000 72.219,306.000 72.369 C 306.000 72.445,305.822 72.787,305.603 73.129 C 305.385 73.470,305.067 74.162,304.897 74.667 C 304.726 75.171,304.534 75.622,304.471 75.669 C 304.408 75.717,304.206 76.317,304.022 77.003 C 303.737 78.062,303.685 78.156,303.677 77.625 C 303.671 77.281,303.601 77.000,303.522 77.000 C 303.442 77.000,303.325 76.550,303.263 76.000 C 303.141 74.915,302.555 72.524,302.345 72.252 C 302.273 72.159,302.132 71.837,302.031 71.536 C 301.512 69.992,299.105 67.112,297.753 66.417 C 297.396 66.233,296.969 65.952,296.802 65.792 C 296.636 65.631,296.425 65.500,296.334 65.500 C 296.242 65.500,295.699 65.280,295.125 65.010 C 294.552 64.741,293.408 64.386,292.583 64.221 C 291.758 64.056,291.031 63.847,290.967 63.756 C 290.849 63.589,283.669 63.467,282.458 63.612 M363.000 63.799 C 363.000 63.872,362.458 64.025,361.795 64.139 C 359.490 64.534,357.367 65.937,355.594 68.237 L 354.833 69.225 354.833 66.862 L 354.833 64.500 349.667 64.500 L 344.500 64.500 344.500 83.833 L 344.500 103.167 349.828 103.167 L 355.155 103.167 355.203 90.109 C 355.237 80.562,355.302 76.988,355.442 76.817 C 355.548 76.689,355.716 76.278,355.816 75.904 C 356.007 75.190,357.335 73.667,357.766 73.667 C 357.895 73.667,358.000 73.597,358.000 73.512 C 358.000 73.119,359.913 72.797,361.833 72.867 C 364.028 72.947,364.245 73.031,365.448 74.257 C 366.964 75.802,366.993 76.109,366.997 90.958 L 367.000 103.167 372.248 103.167 L 377.496 103.167 377.547 90.792 C 377.607 76.005,377.587 76.173,379.519 74.137 C 382.720 70.764,388.657 72.339,389.111 76.681 C 389.168 77.223,389.278 77.667,389.357 77.667 C 389.436 77.667,389.500 83.404,389.500 90.417 L 389.500 103.167 394.750 103.167 L 400.000 103.167 399.997 89.375 C 399.994 74.270,399.811 70.798,399.005 70.530 C 398.911 70.498,398.833 70.399,398.833 70.310 C 398.833 70.061,398.154 68.614,397.905 68.333 C 396.626 66.889,396.063 66.333,395.877 66.333 C 395.756 66.333,395.614 66.224,395.563 66.090 C 395.400 65.665,393.131 64.551,391.833 64.258 C 391.146 64.102,390.453 63.906,390.294 63.821 C 389.959 63.642,385.447 63.609,385.272 63.784 C 385.208 63.848,384.511 64.031,383.725 64.190 C 382.298 64.479,380.355 65.314,379.429 66.036 C 378.531 66.737,376.776 68.604,376.334 69.329 C 376.252 69.463,376.162 69.538,376.133 69.495 C 376.105 69.452,375.914 69.176,375.708 68.882 C 375.502 68.588,375.333 68.281,375.333 68.200 C 375.333 67.843,373.236 65.655,372.504 65.248 C 371.470 64.674,370.655 64.356,369.738 64.171 C 369.194 64.061,368.620 63.903,368.461 63.819 C 368.106 63.632,363.000 63.614,363.000 63.799 M288.992 72.593 C 291.001 73.409,292.667 75.519,292.667 77.246 C 292.667 77.386,292.742 77.500,292.833 77.500 C 292.925 77.500,293.000 77.688,293.000 77.917 L 293.000 78.333 298.333 78.333 L 303.667 78.333 303.667 78.717 C 303.667 78.928,303.591 79.175,303.499 79.267 C 302.938 79.829,302.961 88.267,303.526 88.948 C 303.675 89.128,302.756 89.167,298.354 89.167 C 293.111 89.167,293.000 89.174,293.000 89.500 C 293.000 89.683,292.925 89.833,292.833 89.833 C 292.742 89.833,292.667 90.007,292.667 90.220 C 292.667 92.018,291.117 94.463,289.526 95.177 C 286.575 96.500,282.349 95.524,280.827 93.167 C 280.560 92.754,280.264 92.325,280.169 92.213 C 279.079 90.932,278.105 80.803,279.017 80.239 C 279.099 80.189,279.167 79.972,279.167 79.759 C 279.167 79.189,279.940 76.308,280.125 76.187 C 280.213 76.130,280.409 75.817,280.562 75.491 C 281.821 72.810,285.995 71.376,288.992 72.593 M324.880 72.269 C 324.936 72.325,325.472 72.542,326.070 72.751 C 327.324 73.189,328.710 74.221,329.384 75.219 C 329.641 75.599,329.949 76.024,330.068 76.164 C 330.188 76.303,330.427 76.829,330.600 77.333 C 330.772 77.837,330.964 78.288,331.026 78.334 C 331.839 78.946,331.834 89.118,331.021 89.661 C 330.947 89.710,330.764 90.115,330.614 90.561 C 330.138 91.972,328.996 93.427,327.385 94.675 C 324.229 97.117,317.765 95.528,315.721 91.808 C 315.522 91.445,315.283 91.056,315.189 90.944 C 314.409 90.004,313.409 82.358,313.990 81.777 C 314.087 81.679,314.167 81.387,314.167 81.126 C 314.167 80.093,314.714 78.019,315.299 76.833 C 316.882 73.628,319.167 72.238,322.931 72.190 C 323.947 72.177,324.824 72.213,324.880 72.269 M254.611 92.611 C 254.550 92.672,254.500 95.072,254.500 97.944 L 254.500 103.167 260.083 103.167 L 265.667 103.167 265.667 97.833 L 265.667 92.500 260.194 92.500 C 257.185 92.500,254.672 92.550,254.611 92.611 "
            stroke="none" fill="#fc0434" fillRule="evenodd"></path>
        <path id="path1"
            d="M166.667 25.917 L 166.667 51.833 171.833 51.833 L 177.000 51.833 177.000 25.917 L 177.000 0.000 171.833 0.000 L 166.667 0.000 166.667 25.917 M218.333 8.333 L 218.333 13.667 215.667 13.667 L 213.000 13.667 212.993 17.292 L 212.985 20.917 212.671 20.321 C 212.498 19.994,212.238 19.629,212.095 19.509 C 211.951 19.390,211.833 19.196,211.833 19.078 C 211.833 18.749,208.773 15.610,208.097 15.246 C 207.769 15.069,207.500 14.879,207.500 14.824 C 207.500 14.769,207.106 14.543,206.625 14.322 C 206.144 14.101,205.709 13.865,205.659 13.797 C 204.593 12.353,194.071 11.582,191.417 12.753 C 191.142 12.874,190.373 13.140,189.708 13.343 C 189.044 13.547,188.500 13.772,188.500 13.844 C 188.500 13.915,188.250 14.057,187.944 14.158 C 187.638 14.259,187.244 14.473,187.069 14.634 C 186.893 14.795,186.450 15.111,186.083 15.334 C 184.434 16.342,181.948 19.273,180.996 21.333 C 180.806 21.746,180.516 22.346,180.352 22.667 C 180.188 22.988,179.923 23.775,179.763 24.417 C 179.603 25.058,179.409 25.705,179.331 25.853 C 178.554 27.348,178.549 38.743,179.325 39.750 C 179.395 39.842,179.502 40.179,179.561 40.500 C 179.713 41.322,180.207 42.901,180.344 43.000 C 180.407 43.046,180.632 43.496,180.845 44.000 C 181.058 44.504,181.281 44.954,181.341 45.000 C 181.401 45.046,181.655 45.410,181.904 45.808 C 182.297 46.435,183.599 47.803,184.864 48.917 C 185.389 49.379,187.662 50.810,188.076 50.939 C 188.263 50.997,188.454 51.091,188.500 51.147 C 188.619 51.293,189.811 51.833,190.015 51.833 C 190.108 51.833,190.500 51.976,190.884 52.151 C 193.339 53.264,202.009 53.274,204.250 52.165 C 204.433 52.074,205.030 51.849,205.575 51.664 C 206.120 51.480,206.608 51.273,206.658 51.206 C 206.709 51.138,207.050 50.936,207.417 50.755 C 208.741 50.103,211.899 47.187,212.747 45.833 C 213.005 45.421,213.265 45.046,213.325 45.000 C 213.385 44.954,213.608 44.504,213.821 44.000 C 214.034 43.496,214.262 43.046,214.327 43.000 C 214.497 42.881,214.833 41.446,214.833 40.843 L 214.833 40.333 209.518 40.333 L 204.203 40.333 204.105 40.722 C 204.051 40.936,203.786 41.405,203.514 41.764 C 202.325 43.337,201.263 44.147,200.044 44.409 C 199.747 44.473,199.461 44.595,199.409 44.679 C 199.295 44.863,195.667 44.889,195.667 44.706 C 195.667 44.636,195.273 44.485,194.792 44.371 C 194.020 44.188,191.672 42.794,191.664 42.514 C 191.663 42.461,191.442 42.167,191.173 41.863 C 190.905 41.558,190.558 40.977,190.403 40.571 C 190.248 40.165,190.071 39.833,190.009 39.833 C 189.805 39.833,189.171 36.724,189.168 35.709 L 189.167 35.335 202.292 35.293 L 215.417 35.250 215.464 32.750 C 215.489 31.375,215.439 30.100,215.352 29.917 C 215.264 29.733,215.152 28.983,215.103 28.250 C 215.009 26.850,214.553 24.368,214.337 24.083 C 214.268 23.992,214.045 23.410,213.842 22.792 C 213.639 22.173,213.413 21.667,213.339 21.667 C 213.266 21.667,213.166 21.517,213.118 21.333 C 213.034 21.010,213.113 21.000,215.682 21.000 L 218.333 21.000 218.333 33.240 C 218.333 41.220,218.391 45.516,218.500 45.583 C 218.592 45.640,218.667 45.974,218.667 46.326 C 218.667 48.739,220.538 51.039,223.083 51.755 C 223.633 51.910,224.216 52.105,224.379 52.189 C 225.043 52.531,229.033 52.673,232.000 52.460 L 234.917 52.250 234.961 48.297 L 235.006 44.344 232.731 44.344 C 228.452 44.344,228.833 45.558,228.833 31.933 L 228.833 21.000 233.325 21.000 L 237.816 21.000 237.872 33.958 C 237.933 48.316,237.877 47.589,239.050 49.356 C 239.378 49.850,239.949 50.440,240.318 50.668 C 240.688 50.897,240.993 51.137,240.996 51.204 C 240.998 51.270,241.544 51.480,242.208 51.672 C 242.873 51.863,243.550 52.093,243.714 52.182 C 244.345 52.525,248.331 52.669,251.333 52.456 L 254.250 52.250 254.295 48.297 L 254.339 44.344 252.169 44.345 C 247.785 44.347,248.167 45.537,248.167 31.861 L 248.167 21.000 251.250 21.000 L 254.333 21.000 254.333 17.333 L 254.333 13.667 251.250 13.667 L 248.167 13.667 248.167 8.333 L 248.167 3.000 243.000 3.000 L 237.833 3.000 237.833 8.333 L 237.833 13.667 233.333 13.667 L 228.833 13.667 228.833 8.333 L 228.833 3.000 223.583 3.000 L 218.333 3.000 218.333 8.333 M22.750 12.401 C 22.200 12.511,21.600 12.685,21.417 12.786 C 21.233 12.887,20.692 13.122,20.213 13.307 C 19.735 13.492,19.248 13.725,19.130 13.824 C 19.013 13.924,18.561 14.269,18.126 14.593 C 17.691 14.916,16.848 15.785,16.251 16.523 L 15.167 17.867 15.167 15.517 L 15.167 13.167 10.083 13.167 L 5.000 13.167 5.000 32.500 L 5.000 51.833 10.158 51.833 L 15.315 51.833 15.373 39.875 C 15.431 28.004,15.525 26.000,16.023 26.000 C 16.102 26.000,16.167 25.894,16.167 25.764 C 16.167 24.533,18.005 22.319,19.774 21.421 C 21.180 20.706,26.167 20.616,26.167 21.305 C 26.167 21.367,26.387 21.516,26.656 21.635 C 27.236 21.892,28.024 22.666,28.350 23.298 C 28.478 23.547,28.640 23.793,28.710 23.845 C 29.247 24.242,29.328 26.226,29.330 39.042 L 29.333 51.833 34.667 51.833 L 40.000 51.833 39.999 37.542 C 39.999 23.022,39.919 20.910,39.336 19.870 C 39.248 19.713,38.982 19.107,38.745 18.525 C 38.508 17.943,38.245 17.380,38.159 17.275 C 38.073 17.169,37.730 16.746,37.398 16.333 C 37.065 15.921,36.628 15.471,36.426 15.333 C 36.225 15.196,35.882 14.915,35.665 14.708 C 35.448 14.502,35.186 14.333,35.083 14.333 C 34.980 14.333,34.744 14.192,34.559 14.019 C 34.373 13.846,33.740 13.533,33.152 13.324 C 32.564 13.115,32.008 12.888,31.917 12.819 C 31.137 12.238,24.959 11.956,22.750 12.401 M55.263 12.425 C 54.537 12.562,53.862 12.736,53.763 12.814 C 53.664 12.891,53.046 13.114,52.389 13.311 C 51.732 13.507,51.169 13.724,51.139 13.792 C 51.108 13.861,50.693 14.096,50.217 14.316 C 49.740 14.536,49.311 14.817,49.264 14.941 C 49.216 15.065,49.062 15.167,48.921 15.167 C 48.569 15.167,45.295 18.359,44.906 19.081 C 44.733 19.403,44.546 19.667,44.491 19.667 C 44.435 19.667,44.209 20.060,43.987 20.542 C 43.766 21.023,43.497 21.509,43.390 21.623 C 43.283 21.736,43.069 22.224,42.916 22.706 C 42.763 23.189,42.538 23.808,42.416 24.083 C 42.098 24.802,41.668 27.010,41.551 28.535 C 41.495 29.255,41.386 29.884,41.308 29.932 C 41.123 30.047,41.124 35.787,41.309 35.902 C 41.387 35.950,41.501 36.593,41.563 37.330 C 41.697 38.939,42.122 41.089,42.422 41.674 C 42.542 41.907,42.790 42.525,42.973 43.048 C 43.157 43.570,43.426 44.116,43.570 44.261 C 43.715 44.405,43.833 44.621,43.833 44.739 C 43.833 45.472,46.712 48.559,48.288 49.517 C 48.634 49.727,48.954 49.950,49.000 50.012 C 49.169 50.241,51.998 51.652,52.696 51.856 C 53.092 51.972,53.454 52.117,53.500 52.179 C 54.253 53.190,64.337 53.244,66.583 52.249 C 66.858 52.127,67.571 51.861,68.167 51.657 C 68.762 51.453,69.287 51.233,69.333 51.167 C 69.379 51.101,69.679 50.914,70.000 50.752 C 73.502 48.982,77.321 43.838,77.331 40.875 L 77.333 40.333 72.086 40.333 L 66.839 40.333 66.413 41.174 C 65.751 42.480,64.240 43.867,63.061 44.250 C 62.523 44.425,62.012 44.628,61.925 44.701 C 61.722 44.871,58.213 44.875,58.139 44.706 C 58.108 44.636,57.633 44.439,57.084 44.268 C 54.725 43.535,52.167 40.363,52.167 38.172 C 52.167 38.023,52.098 37.829,52.015 37.742 C 51.931 37.655,51.810 37.077,51.745 36.458 L 51.628 35.333 64.814 35.333 L 78.000 35.333 77.998 32.958 C 77.996 30.330,77.723 26.689,77.508 26.422 C 77.432 26.327,77.248 25.655,77.099 24.927 C 76.950 24.199,76.648 23.224,76.429 22.760 C 76.210 22.296,75.903 21.598,75.747 21.208 C 75.591 20.819,75.409 20.500,75.342 20.500 C 75.275 20.500,75.127 20.294,75.013 20.042 C 74.208 18.266,69.940 14.167,68.895 14.167 C 68.782 14.167,68.590 14.066,68.467 13.943 C 68.344 13.820,67.720 13.552,67.080 13.348 C 66.440 13.143,65.767 12.908,65.583 12.824 C 64.275 12.229,57.665 11.973,55.263 12.425 M142.333 12.265 C 140.550 12.575,139.918 12.712,139.685 12.837 C 139.538 12.917,138.915 13.141,138.302 13.334 C 137.689 13.528,137.164 13.739,137.136 13.802 C 137.107 13.865,136.729 14.084,136.296 14.287 C 135.378 14.720,135.334 14.755,133.583 16.436 C 131.989 17.967,131.631 18.510,130.403 21.270 C 129.953 22.282,129.748 24.839,129.963 26.765 C 130.396 30.642,132.931 33.491,137.083 34.767 C 137.633 34.936,138.122 35.128,138.170 35.193 C 138.217 35.258,138.892 35.470,139.670 35.665 C 140.447 35.859,141.233 36.087,141.417 36.171 C 141.600 36.255,142.725 36.522,143.917 36.765 C 145.108 37.008,146.158 37.262,146.250 37.329 C 146.342 37.397,147.167 37.622,148.083 37.830 C 149.000 38.037,149.787 38.258,149.833 38.320 C 149.879 38.382,150.400 38.577,150.990 38.752 C 154.472 39.789,154.366 43.563,150.833 44.347 C 150.283 44.469,149.833 44.628,149.833 44.701 C 149.833 44.862,144.769 44.880,144.609 44.720 C 144.546 44.657,143.956 44.469,143.297 44.302 C 141.065 43.735,139.823 42.468,139.476 40.404 L 139.268 39.167 133.948 39.167 L 128.628 39.167 128.738 40.458 C 128.902 42.370,129.146 43.466,129.659 44.585 C 129.912 45.136,130.172 45.754,130.237 45.960 C 130.302 46.165,130.421 46.333,130.500 46.333 C 130.579 46.333,130.698 46.501,130.763 46.707 C 130.979 47.389,134.001 50.213,135.000 50.666 C 135.504 50.895,136.010 51.171,136.125 51.279 C 136.326 51.469,137.941 52.000,138.317 52.000 C 138.418 52.000,138.500 52.064,138.500 52.141 C 138.500 53.164,154.284 53.183,154.639 52.160 C 154.669 52.072,154.780 52.000,154.884 52.000 C 155.244 52.000,157.333 51.287,157.333 51.164 C 157.333 51.096,157.577 50.944,157.875 50.826 C 159.028 50.370,161.866 47.811,162.147 46.975 C 162.182 46.871,162.321 46.657,162.456 46.499 C 164.242 44.414,164.620 38.594,163.167 35.565 C 162.798 34.796,162.441 34.165,162.373 34.162 C 162.306 34.160,162.075 33.878,161.860 33.537 C 161.480 32.930,160.163 31.772,159.333 31.314 C 159.104 31.187,158.767 30.962,158.583 30.814 C 158.400 30.666,157.875 30.407,157.417 30.239 C 156.958 30.071,156.544 29.878,156.497 29.811 C 156.400 29.673,153.594 28.833,153.231 28.833 C 153.104 28.833,153.000 28.771,153.000 28.695 C 153.000 28.619,152.044 28.386,150.875 28.176 C 149.706 27.966,148.675 27.735,148.583 27.664 C 148.492 27.593,147.592 27.369,146.583 27.167 C 145.575 26.965,144.675 26.742,144.583 26.673 C 144.492 26.603,144.192 26.493,143.917 26.429 C 141.187 25.791,140.333 25.060,140.333 23.362 C 140.333 21.122,143.554 19.759,147.500 20.329 C 150.636 20.783,152.120 21.982,152.429 24.309 L 152.543 25.167 157.771 25.167 L 163.000 25.167 162.999 24.708 C 162.994 23.117,162.056 19.871,161.241 18.629 C 161.017 18.287,160.833 17.938,160.833 17.854 C 160.833 17.591,158.370 15.167,158.103 15.167 C 157.964 15.167,157.790 15.063,157.717 14.937 C 157.643 14.810,157.171 14.533,156.667 14.321 C 156.162 14.108,155.708 13.874,155.657 13.800 C 155.556 13.655,153.367 12.957,151.750 12.554 C 150.781 12.312,143.367 12.085,142.333 12.265 M266.907 12.410 C 266.260 12.528,265.585 12.703,265.407 12.799 C 265.229 12.895,264.540 13.139,263.875 13.341 C 263.210 13.543,262.667 13.767,262.667 13.838 C 262.667 13.909,262.455 14.041,262.196 14.132 C 260.722 14.645,256.887 18.084,256.136 19.564 C 255.945 19.941,255.735 20.287,255.669 20.333 C 255.396 20.524,254.197 23.336,253.928 24.417 C 253.769 25.058,253.575 25.705,253.498 25.853 C 252.735 27.322,252.736 39.833,253.500 39.833 C 253.568 39.833,253.670 40.119,253.726 40.469 C 253.855 41.276,254.468 43.207,254.634 43.326 C 254.703 43.376,254.902 43.754,255.077 44.167 C 255.252 44.579,255.517 45.067,255.667 45.250 C 255.816 45.433,256.065 45.787,256.219 46.035 C 256.645 46.722,258.535 48.667,258.776 48.667 C 258.893 48.667,259.061 48.802,259.149 48.968 C 259.238 49.133,259.578 49.413,259.905 49.589 C 260.232 49.765,260.500 49.953,260.500 50.007 C 260.500 50.061,260.969 50.325,261.542 50.594 C 262.115 50.863,262.626 51.140,262.678 51.210 C 262.729 51.280,263.217 51.490,263.761 51.677 C 264.305 51.864,264.975 52.119,265.250 52.244 C 267.517 53.270,276.289 53.218,278.417 52.165 C 278.600 52.074,279.196 51.849,279.742 51.664 C 280.287 51.480,280.775 51.273,280.826 51.206 C 280.876 51.138,281.255 50.903,281.667 50.683 C 282.770 50.093,283.203 49.741,284.859 48.083 C 286.937 46.005,287.814 44.759,288.332 43.154 C 288.462 42.748,288.633 42.372,288.711 42.318 C 288.788 42.263,288.896 41.795,288.949 41.276 L 289.047 40.333 283.690 40.333 C 279.159 40.333,278.333 40.370,278.333 40.571 C 278.333 40.702,278.235 40.909,278.116 41.030 C 277.996 41.151,277.709 41.569,277.477 41.959 C 276.910 42.915,275.374 44.083,274.333 44.350 C 273.875 44.467,273.500 44.624,273.500 44.698 C 273.500 44.773,272.675 44.833,271.667 44.833 C 270.556 44.833,269.833 44.768,269.833 44.667 C 269.833 44.575,269.684 44.500,269.502 44.500 C 267.995 44.500,265.539 42.622,264.705 40.833 C 264.471 40.329,264.229 39.879,264.169 39.833 C 263.935 39.657,263.338 36.701,263.335 35.708 L 263.333 35.333 276.442 35.333 L 289.550 35.333 289.451 31.708 C 289.356 28.198,288.979 24.984,288.649 24.861 C 288.567 24.831,288.500 24.675,288.500 24.515 C 288.500 24.145,287.706 21.799,287.539 21.676 C 287.470 21.625,287.232 21.190,287.011 20.708 C 286.790 20.227,286.556 19.833,286.491 19.833 C 286.425 19.833,286.249 19.577,286.101 19.263 C 285.748 18.520,282.984 15.634,282.242 15.234 C 281.926 15.064,281.667 14.879,281.667 14.824 C 281.667 14.769,281.273 14.543,280.792 14.322 C 280.310 14.101,279.876 13.865,279.826 13.797 C 278.955 12.618,270.664 11.728,266.907 12.410 M308.833 12.414 C 308.329 12.532,307.602 12.787,307.216 12.981 C 306.831 13.175,306.452 13.333,306.373 13.333 C 306.294 13.333,306.084 13.465,305.906 13.625 C 305.729 13.785,305.321 14.096,305.000 14.315 C 304.328 14.774,302.609 16.695,302.529 17.077 C 302.500 17.218,302.408 17.333,302.324 17.333 C 302.241 17.333,302.027 17.620,301.849 17.969 C 301.080 19.477,301.000 19.302,301.000 16.104 L 301.000 13.167 296.083 13.167 L 291.167 13.167 291.167 32.500 L 291.167 51.833 296.408 51.833 L 301.649 51.833 301.712 40.625 C 301.758 32.444,301.830 29.214,301.980 28.667 C 302.561 26.539,303.970 24.611,305.450 23.915 C 305.798 23.751,306.121 23.569,306.167 23.509 C 306.461 23.126,309.877 22.676,312.542 22.669 L 313.667 22.667 313.667 17.417 L 313.667 12.167 311.708 12.184 C 310.631 12.193,309.337 12.297,308.833 12.414 M75.500 13.506 C 75.500 13.831,76.222 16.583,76.329 16.667 C 76.387 16.712,76.647 17.650,76.906 18.750 C 77.165 19.850,77.433 20.825,77.502 20.917 C 77.570 21.008,77.792 21.795,77.995 22.666 C 78.197 23.536,78.417 24.286,78.483 24.332 C 78.550 24.379,78.779 25.204,78.994 26.167 C 79.208 27.129,79.436 27.954,79.500 28.000 C 79.564 28.046,79.821 28.945,80.071 29.998 C 80.321 31.051,80.584 31.989,80.655 32.081 C 80.727 32.174,80.955 33.000,81.163 33.917 C 81.371 34.833,81.592 35.621,81.654 35.667 C 81.716 35.712,81.966 36.537,82.210 37.500 C 82.989 40.577,83.676 43.074,83.839 43.417 C 83.927 43.600,84.155 44.425,84.348 45.250 C 84.540 46.075,84.756 46.825,84.827 46.917 C 84.899 47.008,85.163 47.966,85.416 49.045 C 85.668 50.123,85.940 51.046,86.021 51.096 C 86.101 51.146,86.167 51.333,86.167 51.512 C 86.167 51.830,86.305 51.837,91.624 51.794 L 97.082 51.750 97.332 50.417 C 97.470 49.683,97.633 49.007,97.694 48.915 C 97.754 48.822,97.963 47.847,98.158 46.748 C 98.352 45.649,98.580 44.600,98.664 44.417 C 98.749 44.233,98.974 43.221,99.165 42.167 C 99.357 41.112,99.578 40.094,99.657 39.903 C 99.736 39.712,100.011 38.437,100.267 37.070 C 100.524 35.702,100.780 34.546,100.835 34.500 C 100.891 34.454,101.111 33.443,101.324 32.253 C 101.537 31.064,101.777 29.976,101.857 29.837 C 101.987 29.609,102.833 25.241,102.833 24.794 C 102.833 24.219,103.042 25.044,103.415 27.093 C 103.648 28.371,103.909 29.567,103.996 29.750 C 104.084 29.933,104.310 30.983,104.500 32.083 C 104.690 33.183,104.916 34.233,105.002 34.417 C 105.088 34.600,105.348 35.800,105.580 37.083 C 105.811 38.367,106.071 39.604,106.158 39.833 C 106.245 40.063,106.473 41.112,106.666 42.167 C 106.858 43.221,107.085 44.233,107.169 44.417 C 107.253 44.600,107.483 45.688,107.680 46.833 C 107.877 47.979,108.097 48.992,108.169 49.083 C 108.241 49.175,108.397 49.831,108.516 50.542 L 108.732 51.833 114.113 51.833 L 119.494 51.833 119.603 51.375 C 119.663 51.123,119.767 50.842,119.833 50.750 C 119.899 50.658,120.166 49.721,120.425 48.667 C 120.685 47.612,120.946 46.712,121.005 46.667 C 121.065 46.621,121.284 45.871,121.492 45.000 C 121.700 44.129,121.927 43.342,121.998 43.250 C 122.069 43.158,122.316 42.322,122.548 41.392 C 122.780 40.462,123.041 39.562,123.128 39.392 C 123.216 39.222,123.458 38.371,123.667 37.500 C 123.876 36.629,124.102 35.842,124.169 35.750 C 124.237 35.658,124.468 34.871,124.683 34.000 C 124.898 33.129,125.120 32.379,125.177 32.333 C 125.234 32.287,125.492 31.387,125.750 30.333 C 126.008 29.279,126.268 28.379,126.327 28.333 C 126.386 28.287,126.604 27.540,126.810 26.673 C 127.016 25.806,127.245 25.018,127.319 24.923 C 127.393 24.828,127.624 24.037,127.833 23.167 C 128.042 22.296,128.271 21.508,128.342 21.417 C 128.413 21.325,128.672 20.425,128.919 19.417 C 129.166 18.408,129.424 17.508,129.494 17.417 C 129.563 17.325,129.790 16.537,129.999 15.667 C 130.207 14.796,130.442 14.012,130.522 13.925 C 131.035 13.365,130.753 13.333,125.188 13.333 L 119.710 13.333 119.331 15.375 C 119.123 16.498,118.898 17.492,118.831 17.583 C 118.764 17.675,118.540 18.725,118.333 19.917 C 118.127 21.108,117.899 22.158,117.828 22.250 C 117.757 22.342,117.502 23.504,117.262 24.833 C 117.023 26.162,116.755 27.400,116.669 27.583 C 116.582 27.767,116.356 28.817,116.167 29.917 C 115.977 31.017,115.752 32.067,115.668 32.250 C 115.536 32.534,115.095 34.569,114.312 38.500 C 114.062 39.757,113.900 39.847,113.762 38.806 C 113.698 38.322,113.585 37.848,113.511 37.754 C 113.437 37.660,113.327 37.283,113.265 36.917 C 112.920 34.854,112.590 33.240,112.500 33.167 C 112.443 33.121,112.223 32.071,112.012 30.833 C 111.800 29.596,111.530 28.283,111.412 27.917 C 111.294 27.550,111.027 26.275,110.817 25.083 C 110.608 23.892,110.389 22.879,110.332 22.833 C 110.274 22.787,110.050 21.738,109.833 20.500 C 109.617 19.262,109.391 18.212,109.332 18.167 C 109.272 18.121,109.042 17.033,108.820 15.750 L 108.417 13.417 103.132 13.373 C 98.225 13.332,97.836 13.350,97.690 13.623 C 97.603 13.785,97.323 15.155,97.067 16.667 C 96.812 18.179,96.555 19.454,96.496 19.500 C 96.438 19.546,96.219 20.629,96.010 21.907 C 95.801 23.184,95.566 24.347,95.488 24.490 C 95.410 24.633,95.192 25.688,95.003 26.833 C 94.815 27.979,94.554 29.292,94.423 29.750 C 94.292 30.208,94.018 31.633,93.814 32.917 C 93.610 34.200,93.396 35.287,93.338 35.333 C 93.280 35.379,93.071 36.345,92.873 37.480 C 92.367 40.382,92.386 40.385,91.786 37.333 C 90.829 32.471,90.456 30.707,90.163 29.667 C 89.995 29.071,89.737 27.871,89.589 27.000 C 89.442 26.129,89.252 25.267,89.168 25.083 C 89.085 24.900,88.822 23.700,88.585 22.417 C 88.348 21.133,88.086 19.933,88.004 19.750 C 87.921 19.567,87.686 18.460,87.482 17.292 C 87.277 16.123,87.056 15.167,86.991 15.167 C 86.925 15.167,86.820 14.754,86.757 14.250 L 86.643 13.333 81.071 13.333 C 77.339 13.333,75.500 13.390,75.500 13.506 M61.821 21.029 C 62.286 21.136,62.667 21.278,62.667 21.344 C 62.667 21.410,62.948 21.578,63.292 21.718 C 63.980 21.997,65.500 23.272,65.500 23.571 C 65.500 23.674,65.632 23.873,65.794 24.011 C 65.956 24.150,66.237 24.710,66.419 25.257 C 66.600 25.803,66.798 26.287,66.857 26.333 C 66.917 26.379,67.020 26.848,67.086 27.375 L 67.205 28.333 59.624 28.333 L 52.043 28.333 52.186 27.570 C 52.691 24.863,54.088 22.602,55.788 21.736 C 56.134 21.561,56.457 21.362,56.507 21.296 C 56.827 20.869,60.359 20.691,61.821 21.029 M199.250 21.019 C 199.617 21.121,199.954 21.252,200.000 21.310 C 200.046 21.369,200.437 21.594,200.869 21.811 C 201.578 22.168,203.000 23.348,203.000 23.580 C 203.000 23.631,203.193 23.980,203.430 24.354 C 203.934 25.153,204.272 26.198,204.427 27.441 L 204.538 28.333 196.998 28.333 L 189.457 28.333 189.573 27.462 C 189.636 26.983,189.908 26.115,190.177 25.534 C 190.447 24.952,190.667 24.419,190.667 24.348 C 190.667 24.011,192.946 21.667,193.273 21.667 C 193.385 21.667,193.577 21.566,193.701 21.442 C 194.251 20.892,197.808 20.621,199.250 21.019 M273.397 21.034 C 273.775 21.144,274.121 21.280,274.167 21.337 C 274.212 21.393,274.596 21.605,275.018 21.807 C 276.058 22.303,277.017 23.250,277.497 24.253 C 277.715 24.710,277.940 25.121,277.997 25.167 C 278.158 25.297,278.471 26.496,278.596 27.458 L 278.710 28.333 271.167 28.333 L 263.624 28.333 263.739 27.462 C 263.803 26.983,264.075 26.115,264.344 25.534 C 264.613 24.952,264.833 24.413,264.833 24.336 C 264.833 23.969,267.068 21.667,267.424 21.667 C 267.544 21.667,267.744 21.566,267.867 21.442 C 268.427 20.882,271.980 20.620,273.397 21.034 M179.833 59.833 L 179.833 65.167 177.163 65.167 L 174.493 65.167 174.538 68.792 L 174.583 72.417 177.208 72.463 L 179.833 72.508 179.838 84.546 C 179.841 91.166,179.913 97.108,179.997 97.750 C 180.315 100.168,181.966 102.331,183.965 102.947 C 184.488 103.109,184.954 103.291,185.000 103.353 C 185.327 103.793,190.266 104.041,193.667 103.788 L 196.417 103.583 196.461 99.638 L 196.506 95.693 194.295 95.699 C 191.460 95.708,190.732 95.512,190.502 94.682 C 190.399 94.312,190.335 89.958,190.334 83.292 L 190.333 72.500 193.417 72.500 L 196.500 72.500 196.500 68.833 L 196.500 65.167 193.417 65.167 L 190.333 65.167 190.333 59.833 L 190.333 54.500 185.083 54.500 L 179.833 54.500 179.833 59.833 M77.792 63.613 C 77.356 63.653,77.000 63.756,77.000 63.842 C 77.000 63.929,76.827 64.000,76.615 64.000 C 75.375 64.000,71.784 65.345,70.586 66.259 C 70.292 66.483,69.992 66.667,69.918 66.667 C 69.770 66.667,69.530 66.882,68.108 68.286 C 66.713 69.663,66.333 70.089,66.333 70.274 C 66.333 70.364,66.185 70.596,66.004 70.791 C 65.621 71.201,64.813 72.584,64.322 73.667 C 64.135 74.079,63.841 74.717,63.669 75.083 C 63.497 75.450,63.205 76.313,63.021 77.000 C 62.837 77.688,62.609 78.503,62.516 78.812 C 61.884 80.892,61.971 88.665,62.638 89.750 C 62.694 89.842,62.910 90.587,63.118 91.405 C 63.325 92.224,63.553 92.937,63.624 92.989 C 63.695 93.041,63.934 93.533,64.156 94.083 C 64.377 94.633,64.609 95.121,64.672 95.167 C 64.735 95.212,64.920 95.513,65.084 95.833 C 65.628 96.903,66.824 98.451,67.998 99.607 C 69.521 101.107,69.683 101.241,70.522 101.697 C 70.914 101.909,71.325 102.166,71.437 102.266 C 71.548 102.367,72.115 102.625,72.695 102.839 C 73.275 103.053,73.789 103.285,73.836 103.353 C 74.655 104.534,88.998 104.536,89.830 103.355 C 89.878 103.288,90.292 103.095,90.750 102.927 C 91.600 102.615,93.548 101.605,94.000 101.242 C 94.660 100.712,97.167 98.185,97.167 98.050 C 97.167 97.965,97.335 97.718,97.542 97.499 C 98.349 96.644,99.975 93.495,100.423 91.917 C 100.579 91.367,100.770 90.837,100.848 90.740 C 101.085 90.442,101.484 87.579,101.598 85.357 C 101.738 82.612,101.216 77.333,100.805 77.333 C 100.729 77.333,100.667 77.231,100.667 77.105 C 100.667 76.395,99.454 73.435,98.677 72.250 C 98.436 71.883,98.136 71.377,98.008 71.125 C 97.881 70.873,97.713 70.667,97.634 70.667 C 97.556 70.667,97.426 70.498,97.345 70.292 C 97.143 69.773,94.858 67.333,94.575 67.333 C 94.449 67.333,94.270 67.193,94.178 67.022 C 94.087 66.850,93.757 66.589,93.445 66.441 C 93.134 66.294,92.785 66.059,92.669 65.920 C 92.554 65.781,92.390 65.667,92.306 65.667 C 92.222 65.667,91.650 65.431,91.035 65.143 C 89.936 64.628,87.765 64.006,87.056 64.002 C 86.857 64.001,86.664 63.908,86.626 63.795 C 86.557 63.589,79.636 63.446,77.792 63.613 M122.042 63.612 C 121.744 63.654,121.500 63.758,121.500 63.844 C 121.500 63.930,121.362 64.000,121.194 64.000 C 120.678 64.000,118.874 64.650,118.211 65.075 C 116.897 65.918,114.935 67.783,114.740 68.375 C 114.687 68.535,114.572 68.667,114.483 68.667 C 114.395 68.667,114.255 68.835,114.172 69.042 C 114.071 69.292,114.018 68.599,114.011 66.958 L 114.000 64.500 108.917 64.500 L 103.833 64.500 103.833 83.833 L 103.833 103.167 109.000 103.167 L 114.167 103.167 114.167 92.125 C 114.168 81.895,114.289 78.273,114.642 78.000 C 114.702 77.954,114.930 77.373,115.151 76.708 C 115.372 76.044,115.599 75.500,115.657 75.500 C 115.714 75.500,115.903 75.256,116.076 74.958 C 117.085 73.219,119.368 72.167,122.132 72.167 C 123.057 72.167,123.855 72.233,123.905 72.315 C 123.956 72.396,124.204 72.514,124.457 72.576 C 125.333 72.792,126.252 73.359,126.667 73.938 C 126.896 74.258,127.180 74.625,127.298 74.754 C 128.055 75.581,128.068 75.819,128.125 89.875 L 128.178 103.167 133.506 103.167 L 138.833 103.167 138.833 88.875 C 138.832 73.205,138.795 72.503,137.861 70.445 C 137.604 69.880,137.324 69.250,137.239 69.047 C 136.976 68.420,135.617 66.884,134.963 66.473 C 134.622 66.259,134.340 66.034,134.338 65.973 C 134.328 65.724,131.837 64.539,130.750 64.265 C 130.108 64.104,129.433 63.887,129.250 63.783 C 128.916 63.593,123.154 63.457,122.042 63.612 M154.250 63.605 C 153.975 63.645,153.600 63.743,153.417 63.821 C 153.233 63.900,152.521 64.090,151.833 64.243 C 148.785 64.922,144.887 67.764,143.645 70.213 C 143.449 70.600,143.231 70.954,143.162 71.000 C 142.999 71.106,142.333 73.127,142.333 73.514 C 142.333 73.674,142.241 73.836,142.129 73.874 C 141.856 73.965,141.835 78.607,142.104 79.183 C 142.207 79.403,142.417 80.012,142.569 80.537 C 142.722 81.061,142.938 81.587,143.049 81.705 C 143.159 81.822,143.438 82.189,143.667 82.519 C 144.164 83.234,145.484 84.399,146.221 84.772 C 146.512 84.920,146.862 85.136,147.000 85.253 C 147.137 85.370,147.612 85.587,148.055 85.735 C 148.497 85.883,149.060 86.108,149.305 86.233 C 149.550 86.359,150.350 86.624,151.083 86.823 C 151.817 87.021,152.567 87.254,152.750 87.339 C 152.933 87.425,153.833 87.649,154.750 87.838 C 155.667 88.027,156.567 88.252,156.750 88.337 C 156.933 88.423,157.983 88.691,159.083 88.932 C 160.183 89.173,161.158 89.429,161.250 89.500 C 161.342 89.571,161.974 89.786,162.656 89.977 C 163.968 90.346,164.878 90.947,165.357 91.763 C 165.653 92.269,165.777 93.833,165.520 93.833 C 165.440 93.833,165.276 94.069,165.157 94.356 C 164.994 94.750,164.711 94.979,164.012 95.286 C 163.501 95.510,162.903 95.781,162.682 95.888 C 162.099 96.172,155.803 96.160,155.708 95.875 C 155.670 95.760,155.501 95.667,155.333 95.667 C 154.512 95.667,152.167 94.154,152.167 93.624 C 152.167 93.547,152.020 93.181,151.841 92.811 C 151.662 92.440,151.466 91.806,151.406 91.402 L 151.295 90.667 145.981 90.667 L 140.667 90.667 140.667 91.046 C 140.667 91.766,141.020 94.240,141.147 94.411 C 141.217 94.506,141.372 94.921,141.490 95.333 C 142.336 98.287,146.025 102.098,148.833 102.918 C 149.063 102.985,149.554 103.176,149.925 103.342 C 152.688 104.580,166.487 104.599,167.321 103.366 C 167.374 103.289,167.776 103.126,168.216 103.006 C 168.656 102.885,169.433 102.534,169.945 102.226 C 170.456 101.918,170.918 101.667,170.973 101.667 C 171.027 101.667,171.224 101.521,171.411 101.343 C 171.597 101.165,172.181 100.617,172.708 100.125 C 173.235 99.633,173.667 99.145,173.667 99.041 C 173.667 98.936,173.773 98.790,173.903 98.717 C 174.594 98.327,175.759 95.459,175.921 93.750 C 175.973 93.200,176.099 92.468,176.201 92.123 C 176.337 91.669,176.338 91.394,176.206 91.123 C 176.106 90.918,175.987 90.263,175.942 89.667 C 175.852 88.478,175.443 86.972,175.118 86.633 C 175.004 86.514,174.837 86.250,174.747 86.047 C 174.431 85.332,173.073 83.871,172.083 83.180 C 170.297 81.932,169.861 81.690,168.714 81.303 C 168.092 81.094,167.545 80.870,167.498 80.807 C 167.394 80.667,164.891 80.000,164.469 80.000 C 164.303 80.000,164.167 79.937,164.167 79.861 C 164.167 79.785,163.210 79.549,162.042 79.338 C 160.873 79.126,159.842 78.899,159.750 78.832 C 159.658 78.765,158.646 78.505,157.500 78.253 C 156.354 78.001,155.379 77.742,155.333 77.677 C 155.287 77.612,154.883 77.458,154.435 77.335 C 151.022 76.396,151.947 72.329,155.701 71.766 C 159.545 71.190,163.061 72.164,163.903 74.038 C 164.079 74.430,164.322 74.968,164.445 75.234 C 164.567 75.500,164.667 75.894,164.667 76.109 L 164.667 76.500 169.935 76.500 L 175.203 76.500 175.115 75.958 C 174.744 73.674,174.205 71.500,174.010 71.500 C 173.953 71.500,173.809 71.170,173.690 70.767 C 173.571 70.364,173.329 69.880,173.153 69.691 C 172.977 69.502,172.833 69.267,172.833 69.168 C 172.833 68.888,170.606 66.730,169.987 66.410 C 169.682 66.252,169.330 66.021,169.205 65.895 C 169.079 65.769,168.906 65.667,168.821 65.667 C 168.735 65.667,168.272 65.472,167.791 65.235 C 166.731 64.711,165.200 64.248,163.984 64.082 C 163.489 64.015,163.031 63.876,162.966 63.774 C 162.849 63.589,155.351 63.443,154.250 63.605 M209.750 63.605 C 209.475 63.645,209.100 63.749,208.917 63.835 C 208.733 63.920,208.061 64.108,207.423 64.251 C 206.182 64.530,203.688 65.645,203.117 66.177 C 202.927 66.355,202.681 66.500,202.572 66.500 C 202.315 66.500,199.130 69.572,198.597 70.333 C 198.373 70.654,198.015 71.254,197.803 71.667 C 197.591 72.079,197.365 72.456,197.302 72.503 C 197.134 72.630,196.500 74.154,196.500 74.430 C 196.500 74.560,196.434 74.667,196.354 74.667 C 196.181 74.667,195.569 77.028,195.405 78.333 C 195.341 78.837,195.205 79.355,195.103 79.484 C 194.846 79.806,194.845 88.461,195.101 89.016 C 195.203 89.237,195.450 90.274,195.651 91.321 C 195.852 92.369,196.119 93.419,196.244 93.655 C 196.369 93.890,196.785 94.731,197.169 95.522 C 197.553 96.313,198.066 97.205,198.309 97.506 C 199.050 98.423,201.375 100.667,201.584 100.667 C 201.693 100.667,201.918 100.818,202.085 101.002 C 202.252 101.187,202.733 101.506,203.153 101.711 C 203.573 101.916,204.004 102.166,204.112 102.266 C 204.219 102.367,204.781 102.625,205.362 102.839 C 205.942 103.053,206.454 103.280,206.500 103.342 C 206.616 103.499,208.502 103.951,209.995 104.180 C 212.882 104.622,219.387 104.153,220.917 103.394 C 221.192 103.257,221.792 103.010,222.250 102.846 C 225.902 101.533,230.609 96.078,230.951 92.761 L 231.047 91.833 225.715 91.833 L 220.384 91.833 220.067 92.539 C 219.749 93.247,217.837 95.333,217.507 95.333 C 217.409 95.333,216.974 95.502,216.540 95.708 C 215.603 96.153,211.179 96.287,211.042 95.875 C 211.003 95.760,210.877 95.667,210.761 95.667 C 210.532 95.667,208.970 94.871,208.833 94.686 C 208.787 94.623,208.527 94.401,208.255 94.191 C 207.535 93.638,206.550 92.107,206.216 91.023 C 206.056 90.506,205.878 90.046,205.820 90.000 C 205.712 89.914,205.333 87.577,205.333 86.993 C 205.333 86.672,205.536 86.667,218.525 86.667 L 231.717 86.667 231.625 83.024 C 231.574 81.020,231.458 79.239,231.367 79.065 C 231.275 78.892,231.078 78.056,230.928 77.207 C 230.567 75.160,228.685 70.667,228.190 70.667 C 228.127 70.667,227.939 70.413,227.773 70.104 C 227.324 69.271,224.314 66.342,223.901 66.336 C 223.800 66.335,223.583 66.183,223.417 66.000 C 223.251 65.817,223.054 65.667,222.981 65.667 C 222.907 65.667,222.296 65.406,221.623 65.086 C 220.951 64.767,219.842 64.388,219.159 64.243 C 218.476 64.099,217.767 63.894,217.583 63.789 C 217.252 63.598,210.827 63.447,209.750 63.605 M251.375 63.621 C 251.077 63.658,250.833 63.758,250.833 63.844 C 250.833 63.930,250.702 64.001,250.542 64.002 C 248.973 64.015,245.438 66.681,244.415 68.621 C 244.233 68.967,243.993 69.325,243.882 69.417 C 243.772 69.508,243.566 69.808,243.425 70.083 C 243.186 70.551,243.169 70.384,243.168 67.542 L 243.167 64.500 238.167 64.500 L 233.167 64.500 233.167 83.833 L 233.167 103.167 238.408 103.167 L 243.649 103.167 243.700 92.025 C 243.735 84.124,243.804 80.816,243.937 80.650 C 244.039 80.522,244.177 80.117,244.243 79.750 C 244.409 78.821,245.009 77.459,245.367 77.199 C 245.532 77.079,245.667 76.870,245.667 76.735 C 245.667 76.600,245.929 76.334,246.250 76.145 C 246.571 75.955,246.833 75.748,246.833 75.683 C 246.833 75.542,248.259 74.834,248.546 74.832 C 248.658 74.832,248.975 74.713,249.250 74.569 C 249.760 74.302,252.565 74.011,254.708 74.004 L 255.833 74.000 255.833 68.750 L 255.833 63.500 253.875 63.527 C 252.798 63.541,251.673 63.584,251.375 63.621 M23.000 63.826 C 22.863 63.904,22.188 64.089,21.500 64.238 C 20.813 64.388,20.063 64.615,19.833 64.743 C 19.604 64.871,19.192 65.094,18.917 65.238 C 18.642 65.382,18.192 65.695,17.917 65.934 C 17.642 66.172,17.263 66.491,17.076 66.642 C 16.889 66.793,16.345 67.427,15.868 68.052 L 15.000 69.187 15.000 66.843 L 15.000 64.500 9.833 64.500 L 4.667 64.500 4.667 83.833 L 4.667 103.167 10.000 103.167 L 15.333 103.167 15.333 90.660 C 15.333 76.958,15.383 76.138,16.262 75.190 C 16.487 74.948,16.709 74.637,16.755 74.500 C 17.181 73.249,21.554 72.364,23.869 73.061 C 24.574 73.273,26.167 74.615,26.167 74.998 C 26.167 75.078,26.270 75.246,26.396 75.372 C 27.008 75.984,27.054 76.932,27.120 90.208 L 27.184 103.167 32.425 103.167 L 37.667 103.167 37.667 90.990 C 37.667 79.210,37.765 76.500,38.191 76.500 C 38.269 76.500,38.333 76.399,38.333 76.275 C 38.333 74.764,40.621 72.867,42.878 72.506 C 45.240 72.129,48.500 73.338,48.500 74.593 C 48.500 74.712,48.606 74.915,48.735 75.044 C 49.376 75.686,49.400 76.175,49.458 89.875 L 49.515 103.167 54.850 103.167 L 60.185 103.167 60.118 88.292 C 60.052 73.837,59.982 71.846,59.526 71.501 C 59.465 71.454,59.313 71.117,59.188 70.750 C 58.913 69.939,58.470 68.947,58.334 68.833 C 58.279 68.787,58.058 68.498,57.843 68.191 C 57.494 67.691,56.711 66.886,55.750 66.037 C 55.567 65.875,55.118 65.594,54.753 65.413 C 54.387 65.232,53.993 64.995,53.877 64.887 C 53.618 64.645,52.118 64.199,51.093 64.059 C 50.675 64.002,50.333 63.890,50.333 63.811 C 50.333 63.605,45.377 63.627,45.250 63.833 C 45.193 63.925,44.987 64.000,44.792 64.000 C 43.711 64.000,40.548 65.182,39.667 65.915 C 38.790 66.644,36.604 68.975,36.473 69.321 C 36.321 69.720,36.295 69.699,35.753 68.743 C 34.306 66.191,32.153 64.550,29.708 64.139 C 29.044 64.027,28.500 63.875,28.500 63.801 C 28.500 63.623,23.321 63.647,23.000 63.826 M84.819 72.668 C 86.311 73.194,87.708 74.221,88.464 75.349 C 88.673 75.661,88.948 76.041,89.073 76.192 C 89.199 76.343,89.472 76.981,89.679 77.609 C 89.886 78.236,90.110 78.825,90.177 78.917 C 90.811 79.785,90.814 88.504,90.181 89.000 C 90.122 89.046,89.939 89.533,89.774 90.083 C 89.609 90.633,89.254 91.396,88.987 91.777 C 88.719 92.159,88.500 92.535,88.500 92.613 C 88.500 92.749,87.292 93.930,86.523 94.546 C 84.618 96.070,78.806 96.066,77.193 94.538 C 77.069 94.421,76.751 94.213,76.484 94.075 C 76.218 93.937,76.000 93.770,76.000 93.702 C 76.000 93.635,75.811 93.376,75.581 93.128 C 74.800 92.285,73.978 90.661,73.597 89.202 C 73.388 88.403,73.149 87.600,73.067 87.417 C 72.838 86.908,72.877 80.798,73.112 80.317 C 73.220 80.097,73.432 79.392,73.583 78.750 C 73.734 78.108,74.000 77.321,74.173 77.000 C 74.346 76.679,74.599 76.192,74.736 75.917 C 75.241 74.904,77.035 73.297,78.061 72.939 C 78.440 72.807,79.050 72.586,79.417 72.449 C 80.648 71.988,83.182 72.090,84.819 72.668 M215.127 72.332 C 215.286 72.424,215.841 72.651,216.359 72.839 C 216.878 73.026,217.553 73.400,217.859 73.670 C 218.166 73.940,218.464 74.163,218.522 74.164 C 218.981 74.176,220.494 77.335,220.498 78.292 C 220.499 78.498,220.575 78.667,220.667 78.667 C 220.758 78.667,220.833 78.892,220.833 79.167 L 220.833 79.667 213.250 79.667 L 205.667 79.667 205.667 79.248 C 205.667 79.017,205.738 78.699,205.824 78.539 C 205.911 78.380,206.108 77.837,206.262 77.333 C 206.563 76.346,207.538 74.574,208.003 74.167 C 209.703 72.679,210.926 72.214,213.211 72.186 C 214.106 72.175,214.968 72.241,215.127 72.332 "
            stroke="none" fill="#0c0c0c" fillRule="evenodd"></path>
    </g>
</svg>