<svg id="svg" version="1.1" xmlns="http://www.w3.org/2000/svg" xmlns:xlink="http://www.w3.org/1999/xlink" width="400"
    height="86.73511293634498" viewBox="0, 0, 400,86.73511293634498">
    <g id="svgg">
        <path id="path0"
            d="M32.583 0.242 C 31.522 0.729,29.882 3.345,29.576 5.042 C 29.444 5.770,29.455 5.765,28.868 5.338 C 26.924 3.925,23.496 4.282,22.998 5.950 C 22.856 6.426,22.686 6.870,22.620 6.936 C 22.452 7.104,22.470 8.128,22.643 8.235 C 22.721 8.284,22.829 8.682,22.881 9.120 C 22.933 9.558,23.024 10.041,23.083 10.192 C 23.169 10.413,23.031 10.502,22.387 10.640 C 21.945 10.735,21.331 10.919,21.023 11.049 C 20.525 11.259,20.396 11.253,19.857 10.995 C 19.523 10.835,18.087 10.143,16.667 9.457 C 12.725 7.555,11.643 7.061,10.917 6.833 C 10.550 6.718,10.164 6.556,10.060 6.473 C 9.955 6.390,9.183 6.100,8.344 5.828 C 3.064 4.116,1.470 6.972,4.573 12.583 C 4.877 13.133,5.182 13.771,5.249 14.000 C 5.317 14.229,5.551 14.655,5.769 14.947 C 5.988 15.239,6.243 15.680,6.337 15.927 C 6.638 16.719,8.054 18.707,8.977 19.633 L 9.870 20.530 9.352 21.064 C 9.067 21.359,8.833 21.674,8.833 21.766 C 8.833 21.857,8.489 22.454,8.069 23.091 C 7.648 23.729,7.048 24.794,6.735 25.458 C 6.423 26.123,5.904 27.227,5.583 27.912 C 5.263 28.597,5.000 29.300,5.000 29.475 C 5.000 29.650,4.889 29.884,4.754 29.996 C 4.619 30.108,4.460 30.474,4.399 30.808 C 4.339 31.143,4.236 31.492,4.171 31.583 C 4.105 31.675,3.958 32.125,3.844 32.583 C 3.729 33.042,3.578 33.567,3.507 33.750 C 3.263 34.379,2.390 37.978,1.748 41.000 C 1.207 43.543,0.540 48.037,0.393 50.131 C 0.332 50.982,0.220 51.717,0.142 51.765 C -0.052 51.885,-0.039 57.600,0.156 57.961 C 0.242 58.120,0.473 60.313,0.668 62.833 C 1.284 70.777,2.542 73.779,6.299 76.280 C 7.558 77.118,9.747 78.167,10.238 78.167 C 10.737 78.167,10.800 79.108,10.359 79.977 C 9.752 81.174,9.500 82.275,9.500 83.738 C 9.500 86.254,9.438 86.238,18.769 86.137 C 26.539 86.053,26.470 86.087,26.628 82.360 C 26.735 79.841,26.929 79.432,28.358 78.712 C 29.906 77.933,30.469 77.835,33.417 77.835 C 39.095 77.835,40.999 78.785,41.001 81.620 C 41.002 82.916,41.259 84.680,41.467 84.821 C 41.544 84.874,41.655 85.044,41.712 85.200 C 42.165 86.429,56.499 86.694,57.698 85.495 C 58.393 84.799,58.274 81.644,57.513 80.583 C 56.722 79.482,56.895 78.364,57.917 77.974 C 62.340 76.286,65.179 73.363,66.066 69.583 C 66.216 68.942,66.413 68.154,66.503 67.833 C 66.704 67.119,67.289 60.097,67.438 56.626 C 67.580 53.288,67.019 46.564,66.356 43.667 C 66.262 43.254,66.024 41.904,65.827 40.667 C 65.630 39.429,65.409 38.342,65.334 38.250 C 65.260 38.158,65.078 37.430,64.929 36.632 C 64.780 35.833,64.481 34.633,64.265 33.965 C 64.049 33.297,63.777 32.375,63.661 31.917 C 63.546 31.458,63.275 30.687,63.059 30.203 C 62.843 29.719,62.667 29.246,62.667 29.152 C 62.667 29.057,62.367 28.344,62.002 27.566 C 61.636 26.789,61.289 25.963,61.230 25.730 C 61.172 25.497,61.029 25.270,60.914 25.226 C 60.799 25.182,60.660 24.944,60.606 24.698 C 60.552 24.451,60.282 23.912,60.005 23.500 C 59.729 23.087,59.408 22.601,59.293 22.419 C 59.178 22.238,58.877 21.774,58.625 21.389 C 58.059 20.526,58.052 20.284,58.584 20.000 C 58.813 19.877,59.149 19.546,59.329 19.263 C 59.510 18.981,60.110 18.116,60.663 17.340 C 61.215 16.565,61.667 15.805,61.667 15.652 C 61.667 15.499,61.779 15.281,61.917 15.167 C 62.054 15.053,62.167 14.897,62.167 14.821 C 62.167 14.745,62.498 13.986,62.902 13.133 C 65.609 7.426,65.407 5.333,62.148 5.333 C 60.116 5.333,57.045 6.513,49.034 10.371 L 47.484 11.117 46.117 10.779 C 45.365 10.594,44.728 10.426,44.700 10.407 C 44.673 10.388,44.766 9.872,44.908 9.259 C 45.896 5.001,43.289 3.234,39.050 5.289 C 38.322 5.642,38.169 5.623,38.164 5.181 C 38.156 4.493,36.375 1.236,35.910 1.058 C 35.776 1.006,35.667 0.876,35.667 0.768 C 35.667 0.119,33.615 -0.231,32.583 0.242 M34.405 3.887 C 35.250 4.994,35.848 6.781,36.033 8.750 C 36.257 11.128,36.333 11.182,37.769 9.984 C 38.452 9.413,41.157 8.127,41.443 8.237 C 41.870 8.401,41.371 10.946,40.716 11.946 C 40.333 12.529,40.540 12.774,41.527 12.903 C 42.651 13.051,46.146 14.101,46.491 14.395 C 46.633 14.516,46.900 14.669,47.083 14.734 C 48.798 15.344,51.947 17.974,54.183 20.667 C 55.077 21.742,55.245 21.974,55.796 22.896 C 55.954 23.160,56.243 23.572,56.438 23.813 C 56.905 24.389,59.227 28.876,59.553 29.833 C 59.694 30.246,60.007 31.105,60.249 31.742 C 60.491 32.380,60.754 33.205,60.834 33.576 C 60.913 33.947,61.208 35.075,61.489 36.083 C 61.770 37.092,62.075 38.367,62.168 38.917 C 62.260 39.467,62.449 40.329,62.589 40.833 C 62.728 41.337,63.072 43.288,63.353 45.167 C 63.633 47.046,63.929 48.996,64.009 49.500 C 64.280 51.190,64.380 55.193,64.186 56.552 C 63.960 58.140,63.313 59.860,62.515 61.000 C 62.056 61.655,59.651 64.167,59.482 64.167 C 59.423 64.167,58.941 64.427,58.412 64.746 C 55.265 66.641,45.680 68.218,47.750 66.500 C 48.247 66.088,48.011 65.884,46.807 65.685 C 44.550 65.312,43.524 63.889,45.283 63.570 C 47.134 63.235,48.207 62.503,47.208 62.257 C 45.736 61.894,44.500 60.953,44.500 60.195 C 44.500 59.490,44.866 59.334,46.531 59.331 C 48.695 59.328,48.967 59.185,48.336 58.382 C 47.841 57.753,47.976 57.711,50.203 57.794 C 53.316 57.910,56.011 57.122,57.511 55.656 C 57.786 55.387,58.088 55.167,58.181 55.167 C 58.274 55.167,58.465 54.893,58.604 54.559 C 58.744 54.225,58.964 53.845,59.094 53.716 C 59.815 52.995,60.291 49.417,59.667 49.417 C 59.511 49.417,59.398 49.605,59.367 49.917 C 59.303 50.556,58.710 52.405,58.317 53.188 C 57.668 54.483,55.397 55.998,53.549 56.369 C 52.107 56.658,52.167 56.937,52.167 49.946 C 52.167 43.275,52.127 42.957,51.204 42.325 L 50.608 41.917 34.262 41.867 C 16.435 41.813,16.974 41.786,16.213 42.784 L 15.750 43.390 15.667 49.737 C 15.621 53.227,15.517 56.186,15.436 56.312 C 15.253 56.595,13.766 56.457,13.055 56.090 C 12.796 55.956,12.382 55.806,12.137 55.756 C 11.891 55.707,11.578 55.554,11.440 55.416 C 11.303 55.279,11.117 55.167,11.027 55.167 C 10.258 55.167,8.500 51.970,8.500 50.570 C 8.500 49.832,8.161 49.214,7.859 49.401 C 7.214 49.799,7.886 52.569,9.190 54.892 C 10.430 57.101,15.079 58.442,19.125 57.757 C 19.977 57.613,20.053 57.836,19.387 58.531 C 18.799 59.145,18.902 59.208,20.712 59.349 C 24.196 59.619,24.313 60.964,20.950 62.096 C 19.903 62.449,20.015 62.659,21.516 63.166 C 23.040 63.680,23.167 63.761,23.166 64.218 C 23.164 64.856,21.955 65.465,20.125 65.751 C 19.415 65.862,19.360 65.988,19.833 66.417 C 20.017 66.583,20.167 66.830,20.167 66.967 C 20.167 67.399,14.664 66.881,13.203 66.311 C 12.954 66.214,12.356 66.030,11.875 65.903 C 7.818 64.828,4.611 61.570,3.644 57.543 C 3.179 55.605,3.500 47.610,4.081 46.670 C 4.114 46.616,4.378 45.227,4.667 43.583 C 4.955 41.939,5.222 40.546,5.258 40.487 C 5.295 40.427,5.519 39.450,5.755 38.314 C 6.797 33.322,9.720 25.719,11.220 24.100 C 11.466 23.835,11.667 23.505,11.667 23.366 C 11.667 23.141,12.189 22.340,12.777 21.667 C 12.896 21.529,13.360 20.967,13.808 20.417 C 16.983 16.512,21.627 13.625,25.796 12.964 C 27.448 12.702,27.423 12.909,26.140 10.072 C 25.731 9.168,25.777 8.000,26.222 8.000 C 26.503 8.000,29.186 9.328,29.750 9.746 C 30.025 9.950,30.483 10.237,30.768 10.384 L 31.286 10.651 31.384 9.488 C 31.437 8.849,31.558 8.083,31.652 7.788 C 31.745 7.492,31.973 6.719,32.157 6.071 C 32.472 4.962,33.469 3.333,33.832 3.333 C 33.915 3.333,34.173 3.583,34.405 3.887 M8.284 9.146 C 9.514 9.654,10.038 9.885,11.917 10.753 C 12.558 11.049,13.871 11.653,14.833 12.095 C 17.934 13.520,17.974 13.589,16.375 14.758 C 15.756 15.210,14.605 16.199,13.816 16.956 C 13.028 17.714,12.332 18.333,12.269 18.333 C 11.782 18.333,9.736 15.623,8.558 13.417 C 5.958 8.547,5.934 8.177,8.284 9.146 M61.000 8.917 C 61.463 9.475,58.215 15.388,56.368 17.349 L 55.363 18.417 54.057 17.154 C 53.338 16.460,52.169 15.457,51.458 14.926 C 49.579 13.520,49.510 13.614,53.917 11.587 C 55.658 10.786,57.397 9.984,57.781 9.806 C 60.085 8.733,60.705 8.562,61.000 8.917 M22.351 28.180 C 18.609 28.915,14.981 33.984,16.104 36.909 C 16.621 38.258,18.500 37.456,18.500 35.886 C 18.500 33.904,20.337 31.466,22.248 30.910 C 25.901 29.848,29.822 32.374,29.836 35.798 C 29.841 37.104,30.725 37.903,31.642 37.430 C 32.386 37.045,32.521 36.254,32.150 34.467 C 31.240 30.088,26.879 27.291,22.351 28.180 M41.891 28.237 C 38.107 29.155,34.665 34.030,35.770 36.909 C 36.250 38.159,38.167 37.494,38.167 36.078 C 38.167 30.341,46.552 28.574,48.960 33.803 C 49.185 34.291,49.430 35.183,49.504 35.786 C 49.813 38.270,52.000 38.312,52.000 35.834 C 52.000 30.862,46.892 27.024,41.891 28.237 M28.667 43.479 C 28.667 45.042,26.389 47.585,25.300 47.239 C 24.353 46.939,23.076 45.332,22.702 43.970 C 22.472 43.135,22.355 43.167,25.694 43.167 C 28.490 43.167,28.667 43.185,28.667 43.479 M36.919 43.337 C 37.479 44.244,35.065 47.333,33.795 47.333 C 32.505 47.333,30.036 44.219,30.601 43.305 C 30.727 43.100,36.791 43.131,36.919 43.337 M45.096 43.390 C 45.395 44.169,43.807 46.631,42.710 47.089 C 42.091 47.348,40.946 46.937,40.303 46.226 C 39.897 45.776,38.972 43.646,39.072 43.387 C 39.196 43.063,44.972 43.067,45.096 43.390 M47.903 52.768 C 48.481 52.990,48.038 53.547,46.150 54.969 C 45.747 55.273,44.367 56.349,43.083 57.361 C 41.800 58.373,40.159 59.662,39.437 60.225 C 38.715 60.789,37.515 61.733,36.770 62.324 C 33.789 64.690,33.893 64.729,25.833 58.210 C 24.779 57.357,23.515 56.343,23.024 55.955 C 22.533 55.567,21.952 55.100,21.733 54.917 C 21.513 54.733,20.959 54.290,20.500 53.931 C 19.668 53.280,19.482 52.936,19.875 52.777 C 20.175 52.656,47.588 52.647,47.903 52.768 M50.465 55.145 L 50.417 56.417 49.917 56.357 C 49.642 56.324,48.877 56.284,48.218 56.269 C 46.713 56.234,46.656 56.169,47.523 55.478 C 50.123 53.407,50.533 53.360,50.465 55.145 M18.640 54.333 C 19.020 54.608,19.380 54.833,19.441 54.833 C 19.680 54.833,20.667 55.696,20.667 55.905 C 20.667 56.117,17.785 56.397,17.458 56.216 C 17.253 56.103,17.317 54.250,17.533 54.033 C 17.811 53.756,17.861 53.769,18.640 54.333 M46.699 57.246 C 46.581 58.074,46.580 58.075,45.832 58.198 C 45.420 58.266,44.840 58.365,44.542 58.418 C 43.624 58.582,43.890 58.103,45.278 57.090 C 46.710 56.044,46.868 56.061,46.699 57.246 M22.687 57.183 C 23.767 58.046,24.019 58.456,23.417 58.367 C 23.233 58.340,22.671 58.265,22.167 58.201 L 21.250 58.083 21.197 57.441 C 21.087 56.093,21.282 56.059,22.687 57.183 M43.230 59.908 C 43.121 60.829,43.265 61.280,43.883 61.958 L 44.225 62.333 43.883 62.708 C 42.594 64.124,43.336 66.235,45.248 66.594 C 45.887 66.714,46.167 67.061,46.167 67.735 C 46.167 68.467,46.938 68.722,48.873 68.629 C 50.909 68.531,50.833 68.424,50.833 71.411 C 50.833 74.111,50.783 74.172,49.383 73.175 C 46.610 71.199,42.846 68.350,38.417 64.873 C 36.800 63.605,36.797 63.670,38.542 62.290 C 39.298 61.692,40.583 60.675,41.398 60.032 C 43.121 58.670,43.377 58.652,43.230 59.908 M25.297 59.292 C 25.857 59.653,25.878 59.669,27.915 61.345 C 28.830 62.099,29.786 62.868,30.040 63.056 C 30.293 63.243,30.500 63.487,30.500 63.598 C 30.500 63.857,25.589 67.748,22.526 69.917 C 22.007 70.284,20.690 71.281,19.599 72.133 C 17.006 74.156,17.083 74.188,17.083 71.081 L 17.083 68.583 18.766 68.642 C 20.849 68.715,21.499 68.473,21.503 67.621 C 21.506 66.901,21.622 66.771,22.492 66.517 C 24.109 66.044,25.019 63.867,24.047 62.794 C 23.776 62.493,23.785 62.436,24.235 61.636 C 24.650 60.897,24.695 60.684,24.603 59.897 C 24.486 58.908,24.578 58.828,25.297 59.292 M63.617 64.208 C 63.367 70.126,61.686 72.938,57.038 75.217 C 53.623 76.891,53.421 77.270,54.304 80.335 C 54.582 81.297,54.833 82.308,54.863 82.583 L 54.917 83.083 49.736 83.127 L 44.554 83.171 44.366 82.294 C 44.262 81.811,44.091 80.908,43.985 80.286 C 43.828 79.357,43.648 78.956,42.979 78.038 C 41.867 76.513,41.673 76.595,46.605 76.500 C 52.501 76.386,52.167 76.672,52.167 71.751 C 52.167 68.083,52.163 68.093,53.460 67.905 C 56.620 67.447,59.945 65.637,62.204 63.148 C 63.766 61.427,63.736 61.405,63.617 64.208 M5.394 63.256 C 7.399 65.469,9.793 66.843,13.102 67.678 C 15.546 68.296,15.289 67.834,15.367 71.750 C 15.463 76.645,15.159 76.385,20.937 76.500 C 25.661 76.594,25.590 76.575,24.854 77.543 C 23.999 78.668,23.538 79.810,23.324 81.333 C 23.042 83.340,23.535 83.178,17.853 83.127 L 12.917 83.083 12.862 82.701 C 12.833 82.490,13.047 81.480,13.338 80.456 C 14.254 77.240,14.034 76.800,10.692 75.158 C 6.041 72.873,4.460 70.306,4.004 64.301 C 3.792 61.499,3.799 61.494,5.394 63.256 M32.500 65.000 C 33.279 65.397,34.441 65.432,35.276 65.083 C 36.223 64.688,35.756 64.403,41.667 68.971 C 42.996 69.999,44.557 71.194,45.137 71.628 C 45.716 72.062,46.504 72.658,46.887 72.952 C 47.270 73.246,47.921 73.738,48.333 74.044 C 49.818 75.146,50.687 75.083,33.836 75.083 C 16.684 75.083,17.716 75.173,19.515 73.833 C 20.068 73.421,21.435 72.368,22.552 71.495 C 23.669 70.621,25.370 69.314,26.331 68.590 C 27.292 67.866,28.814 66.687,29.714 65.970 C 31.514 64.536,31.560 64.520,32.500 65.000 "
            stroke="none" fill="#0b0607" fillRule="evenodd"></path>
        <path id="path1"
            d="M33.087 4.113 C 32.727 4.584,32.359 5.358,32.157 6.071 C 31.973 6.719,31.745 7.492,31.652 7.788 C 31.558 8.083,31.437 8.849,31.384 9.488 L 31.286 10.651 30.768 10.384 C 30.483 10.237,30.025 9.950,29.750 9.746 C 29.186 9.328,26.503 8.000,26.222 8.000 C 25.777 8.000,25.731 9.168,26.140 10.072 C 27.423 12.909,27.448 12.702,25.796 12.964 C 21.627 13.625,16.983 16.512,13.808 20.417 C 13.360 20.967,12.896 21.529,12.777 21.667 C 12.189 22.340,11.667 23.141,11.667 23.366 C 11.667 23.505,11.466 23.835,11.220 24.100 C 9.720 25.719,6.797 33.322,5.755 38.314 C 5.519 39.450,5.295 40.427,5.258 40.487 C 5.222 40.546,4.955 41.939,4.667 43.583 C 4.378 45.227,4.114 46.616,4.081 46.670 C 3.500 47.610,3.179 55.605,3.644 57.543 C 4.611 61.570,7.818 64.828,11.875 65.903 C 12.356 66.030,12.954 66.214,13.203 66.311 C 14.664 66.881,20.167 67.399,20.167 66.967 C 20.167 66.830,20.017 66.583,19.833 66.417 C 19.359 65.988,19.415 65.862,20.125 65.752 C 23.422 65.246,24.129 64.011,21.597 63.181 C 20.015 62.662,19.890 62.453,20.950 62.096 C 24.313 60.964,24.196 59.619,20.712 59.349 C 18.902 59.208,18.799 59.145,19.387 58.531 C 20.053 57.836,19.977 57.613,19.125 57.757 C 15.079 58.442,10.430 57.101,9.190 54.892 C 7.886 52.569,7.214 49.799,7.859 49.401 C 8.161 49.214,8.500 49.832,8.500 50.570 C 8.500 52.042,10.266 55.167,11.099 55.167 C 11.228 55.167,11.333 55.230,11.333 55.307 C 11.333 55.519,12.123 55.833,12.657 55.833 C 12.918 55.833,13.172 55.940,13.222 56.070 C 13.344 56.389,15.118 56.615,15.388 56.346 C 15.528 56.206,15.607 54.335,15.667 49.770 L 15.750 43.390 16.213 42.784 C 16.974 41.786,16.435 41.813,34.262 41.867 L 50.608 41.917 51.204 42.325 C 52.127 42.957,52.167 43.275,52.167 49.946 C 52.167 56.937,52.107 56.658,53.549 56.369 C 55.397 55.998,57.668 54.483,58.317 53.188 C 58.710 52.405,59.303 50.556,59.367 49.917 C 59.398 49.605,59.511 49.417,59.667 49.417 C 60.291 49.417,59.815 52.995,59.094 53.716 C 58.964 53.845,58.744 54.225,58.604 54.559 C 58.465 54.893,58.274 55.167,58.181 55.167 C 58.088 55.167,57.786 55.387,57.511 55.656 C 56.011 57.122,53.316 57.910,50.203 57.794 C 47.976 57.711,47.841 57.753,48.336 58.382 C 48.967 59.185,48.695 59.328,46.531 59.331 C 44.866 59.334,44.500 59.490,44.500 60.195 C 44.500 60.953,45.736 61.894,47.208 62.257 C 48.207 62.503,47.134 63.235,45.283 63.570 C 43.524 63.889,44.550 65.312,46.807 65.685 C 48.011 65.884,48.247 66.088,47.750 66.500 C 45.680 68.218,55.265 66.641,58.412 64.746 C 58.941 64.427,59.423 64.167,59.482 64.167 C 59.651 64.167,62.056 61.655,62.515 61.000 C 63.313 59.860,63.960 58.140,64.186 56.552 C 64.380 55.193,64.280 51.190,64.009 49.500 C 63.929 48.996,63.633 47.046,63.353 45.167 C 63.072 43.288,62.728 41.337,62.589 40.833 C 62.449 40.329,62.260 39.467,62.168 38.917 C 62.075 38.367,61.770 37.092,61.489 36.083 C 61.208 35.075,60.913 33.947,60.834 33.576 C 60.754 33.205,60.491 32.380,60.249 31.742 C 60.007 31.105,59.694 30.246,59.553 29.833 C 59.227 28.876,56.905 24.389,56.438 23.813 C 56.243 23.572,55.954 23.160,55.796 22.896 C 55.245 21.974,55.077 21.742,54.183 20.667 C 51.947 17.974,48.798 15.344,47.083 14.734 C 46.900 14.669,46.633 14.516,46.491 14.395 C 46.146 14.101,42.651 13.051,41.527 12.903 C 40.540 12.774,40.333 12.529,40.716 11.946 C 41.371 10.946,41.870 8.401,41.443 8.237 C 41.157 8.127,38.452 9.413,37.769 9.984 C 36.333 11.182,36.257 11.128,36.033 8.750 C 35.848 6.781,35.250 4.994,34.405 3.887 C 33.861 3.173,33.796 3.184,33.087 4.113 M26.160 28.260 C 29.864 29.102,33.330 34.041,32.230 36.909 C 31.699 38.293,29.842 37.431,29.836 35.798 C 29.822 32.374,25.901 29.848,22.248 30.910 C 20.337 31.466,18.500 33.904,18.500 35.886 C 18.500 37.141,17.600 37.899,16.677 37.422 C 15.948 37.045,15.814 36.242,16.184 34.467 C 17.129 29.938,21.521 27.205,26.160 28.260 M45.518 28.170 C 49.082 28.846,52.000 32.296,52.000 35.834 C 52.000 38.312,49.813 38.270,49.504 35.786 C 48.643 28.841,38.167 29.112,38.167 36.078 C 38.167 37.160,37.215 37.873,36.362 37.431 C 35.614 37.045,35.478 36.257,35.850 34.467 C 36.752 30.131,41.060 27.325,45.518 28.170 M301.500 53.156 C 294.156 54.707,290.281 60.576,290.267 70.167 C 290.255 78.685,293.493 84.152,299.750 86.178 C 302.479 87.062,309.136 86.805,311.741 85.716 C 315.922 83.968,319.833 78.654,319.833 74.723 L 319.833 74.167 315.428 74.167 L 311.024 74.167 310.842 75.042 C 310.182 78.218,308.764 79.417,305.667 79.417 C 301.143 79.417,299.271 76.654,299.285 70.000 C 299.299 63.147,301.296 60.083,305.750 60.083 C 308.544 60.083,309.881 61.082,310.713 63.790 L 311.083 64.997 315.563 64.998 L 320.042 65.000 319.934 65.539 C 317.989 75.261,322.555 84.152,330.583 86.275 C 332.277 86.723,339.713 86.726,341.333 86.280 C 352.740 83.139,356.359 66.425,347.683 56.963 C 343.862 52.796,335.535 51.553,328.453 54.092 C 324.988 55.334,321.823 58.991,320.418 63.376 C 320.057 64.502,319.833 64.675,319.833 63.827 C 319.833 61.892,318.308 58.230,316.835 56.630 C 313.993 53.543,307.083 51.977,301.500 53.156 M368.287 53.261 C 366.171 53.774,364.528 54.865,363.038 56.750 L 362.511 57.417 362.506 55.542 L 362.500 53.667 358.250 53.667 L 354.000 53.667 354.000 69.750 L 354.000 85.833 358.417 85.833 L 362.833 85.833 362.833 75.425 C 362.833 68.506,362.895 64.720,363.017 64.133 C 363.937 59.698,370.525 58.983,372.200 63.138 L 372.581 64.083 372.633 74.958 L 372.684 85.833 377.002 85.833 L 381.320 85.833 381.368 75.125 L 381.417 64.417 381.814 63.430 C 383.318 59.697,388.617 58.878,390.367 62.109 C 391.124 63.506,391.167 64.217,391.167 75.364 L 391.167 85.833 395.590 85.833 L 400.014 85.833 399.961 73.125 C 399.903 59.043,399.963 59.832,398.783 57.604 C 395.646 51.679,384.546 51.357,380.650 57.077 C 380.148 57.814,380.179 57.821,379.593 56.833 C 377.694 53.635,372.941 52.133,368.287 53.261 M339.021 60.624 C 342.513 62.343,344.036 67.306,342.946 73.417 C 342.015 78.635,336.454 81.227,332.032 78.503 C 327.320 75.601,327.348 63.913,332.074 60.972 C 333.944 59.808,337.048 59.652,339.021 60.624 M62.204 63.148 C 59.945 65.637,56.620 67.447,53.460 67.905 C 52.163 68.093,52.167 68.083,52.167 71.751 C 52.167 76.672,52.501 76.386,46.605 76.500 C 41.673 76.595,41.867 76.513,42.979 78.038 C 43.648 78.956,43.828 79.357,43.985 80.286 C 44.091 80.908,44.262 81.811,44.366 82.294 L 44.554 83.171 49.736 83.127 L 54.917 83.083 54.863 82.583 C 54.833 82.308,54.582 81.297,54.304 80.335 C 53.421 77.270,53.623 76.891,57.038 75.217 C 61.686 72.938,63.367 70.126,63.617 64.208 C 63.736 61.405,63.766 61.427,62.204 63.148 M3.935 62.137 C 3.792 62.368,4.142 66.261,4.409 67.412 C 5.348 71.458,6.796 73.244,10.692 75.158 C 14.034 76.800,14.254 77.240,13.338 80.456 C 13.047 81.480,12.833 82.490,12.862 82.701 L 12.917 83.083 17.853 83.127 C 23.535 83.178,23.042 83.340,23.324 81.333 C 23.538 79.810,23.999 78.668,24.854 77.543 C 25.590 76.575,25.661 76.594,20.937 76.500 C 15.158 76.385,15.477 76.660,15.342 71.668 L 15.250 68.252 13.167 67.705 C 9.712 66.796,7.405 65.476,5.394 63.256 C 4.261 62.004,4.095 61.877,3.935 62.137 M279.167 81.333 L 279.167 85.833 283.750 85.833 L 288.333 85.833 288.333 81.333 L 288.333 76.833 283.750 76.833 L 279.167 76.833 279.167 81.333 "
            stroke="none" fill="#f90433" fillRule="evenodd"></path>
        <path id="path2"
            d="M206.041 21.542 L 206.083 43.083 210.458 43.128 L 214.833 43.172 214.833 21.586 L 214.833 0.000 210.416 -0.000 L 205.999 -0.000 206.041 21.542 M249.167 6.917 L 249.167 11.333 246.917 11.333 L 244.667 11.333 244.667 14.347 L 244.667 17.361 243.832 16.113 C 241.048 11.950,237.554 10.281,231.583 10.261 C 221.450 10.226,216.167 16.048,216.167 27.250 C 216.167 35.160,218.520 39.658,224.140 42.488 C 227.809 44.336,234.867 44.498,238.772 42.824 C 242.219 41.346,246.167 36.634,246.167 33.996 L 246.167 33.500 241.791 33.500 L 237.416 33.500 237.013 34.260 C 234.743 38.539,227.940 38.047,225.770 33.447 C 225.356 32.568,224.833 30.452,224.833 29.652 C 224.833 29.341,225.112 29.333,235.750 29.333 L 246.667 29.333 246.665 27.292 C 246.663 23.678,246.160 20.748,245.167 18.557 L 244.688 17.500 246.919 17.500 L 249.151 17.500 249.204 28.208 C 249.253 38.257,249.276 38.972,249.575 39.807 C 250.152 41.418,251.870 42.885,253.583 43.229 C 255.234 43.561,257.896 43.656,260.292 43.469 L 262.833 43.271 262.833 40.059 L 262.833 36.847 261.065 36.847 C 257.571 36.847,257.833 37.688,257.833 26.475 L 257.833 17.500 261.500 17.500 L 265.167 17.500 265.170 27.458 C 265.172 33.070,265.245 37.910,265.337 38.547 C 265.921 42.586,269.151 44.027,276.375 43.473 L 279.000 43.272 279.000 40.053 L 279.000 36.833 277.108 36.833 C 273.677 36.833,274.000 37.909,274.000 26.479 L 274.000 17.500 276.500 17.500 L 279.000 17.500 279.000 14.417 L 279.000 11.333 276.503 11.333 L 274.006 11.333 273.961 6.958 L 273.917 2.583 269.542 2.539 L 265.167 2.494 265.167 6.914 L 265.167 11.333 261.500 11.333 L 257.833 11.333 257.833 6.917 L 257.833 2.500 253.500 2.500 L 249.167 2.500 249.167 6.917 M6.788 9.042 C 6.517 9.813,11.155 17.584,12.104 17.948 C 12.251 18.004,12.901 17.505,13.802 16.645 C 14.605 15.878,15.690 14.950,16.214 14.583 C 17.652 13.576,17.770 13.701,13.484 11.682 C 8.740 9.446,6.901 8.721,6.788 9.042 M59.583 9.263 C 59.033 9.494,58.246 9.822,57.833 9.991 C 55.977 10.751,50.887 13.214,50.611 13.486 C 50.316 13.777,50.346 13.816,51.528 14.671 C 52.200 15.157,53.333 16.120,54.045 16.809 L 55.339 18.064 56.098 17.323 C 57.850 15.616,61.547 8.811,60.708 8.837 C 60.640 8.839,60.133 9.031,59.583 9.263 M86.000 10.552 C 83.679 11.189,81.710 12.570,80.618 14.325 L 80.250 14.917 80.167 12.917 L 80.083 10.917 75.958 10.872 L 71.833 10.828 71.833 26.997 L 71.833 43.167 76.074 43.167 L 80.314 43.167 80.376 33.125 C 80.445 22.083,80.417 22.390,81.510 20.340 C 83.238 17.097,88.199 16.183,90.669 18.653 C 91.928 19.912,91.888 19.507,91.991 32.000 L 92.083 43.083 96.548 43.128 L 101.012 43.172 100.960 30.711 C 100.902 16.868,100.954 17.532,99.748 15.061 C 97.845 11.163,91.435 9.060,86.000 10.552 M114.417 10.268 C 114.233 10.313,113.429 10.498,112.630 10.679 C 106.068 12.164,102.313 17.687,102.044 26.250 C 101.776 34.765,104.104 39.532,109.973 42.488 C 113.643 44.336,120.700 44.498,124.605 42.824 C 128.053 41.346,132.000 36.634,132.000 33.996 L 132.000 33.500 127.625 33.500 L 123.249 33.500 122.846 34.260 C 120.589 38.514,113.836 38.055,111.614 33.497 C 111.209 32.667,110.667 30.464,110.667 29.652 C 110.667 29.341,110.945 29.333,121.583 29.333 L 132.500 29.333 132.499 27.292 C 132.493 18.398,128.812 12.466,122.216 10.719 C 120.630 10.299,115.506 10.003,114.417 10.268 M185.487 10.327 C 178.654 11.558,174.708 16.520,175.673 22.667 C 176.309 26.725,179.014 28.545,187.583 30.683 C 194.775 32.476,195.312 32.760,195.128 34.673 C 194.962 36.404,193.417 37.167,190.074 37.167 C 185.745 37.167,183.333 35.604,183.333 32.800 C 183.333 32.510,183.107 32.497,178.958 32.539 L 174.583 32.583 174.633 33.667 C 174.796 37.208,177.073 40.724,180.278 42.385 C 184.380 44.510,194.158 44.560,198.438 42.477 C 205.220 39.177,206.114 29.947,200.036 25.980 C 197.999 24.650,196.705 24.225,189.417 22.494 C 184.394 21.301,183.223 20.350,184.463 18.471 C 186.432 15.484,194.333 16.713,194.333 20.005 C 194.333 21.045,194.127 21.000,198.874 21.000 L 203.213 21.000 203.100 20.042 C 202.497 14.908,199.653 11.834,194.417 10.656 C 192.607 10.248,187.055 10.044,185.487 10.327 M289.333 10.419 C 282.006 12.055,278.076 17.386,277.723 26.167 C 277.390 34.466,279.888 39.513,285.798 42.484 C 289.297 44.243,295.562 44.496,299.833 43.050 C 303.309 41.873,307.341 37.422,307.771 34.288 L 307.879 33.500 303.381 33.500 L 298.884 33.500 298.583 34.167 C 297.052 37.562,291.928 38.263,288.796 35.505 C 287.534 34.395,286.333 31.540,286.333 29.652 C 286.333 29.341,286.614 29.333,297.359 29.333 L 308.385 29.333 308.276 26.375 C 307.955 17.649,304.366 12.285,297.750 10.649 C 295.811 10.170,291.035 10.039,289.333 10.419 M324.250 10.410 C 321.626 11.087,320.606 11.865,318.690 14.648 L 317.843 15.879 317.796 13.398 L 317.750 10.917 313.667 10.917 L 309.583 10.917 309.541 27.044 L 309.498 43.172 313.874 43.128 L 318.250 43.083 318.344 33.750 C 318.447 23.598,318.442 23.654,319.435 21.828 C 320.545 19.790,323.022 18.857,327.375 18.838 L 328.333 18.833 328.333 14.500 L 328.333 10.167 326.708 10.181 C 325.815 10.189,324.708 10.292,324.250 10.410 M130.333 11.138 C 130.333 11.213,131.858 16.632,133.720 23.179 C 135.583 29.727,137.237 35.646,137.394 36.333 C 137.552 37.021,138.037 38.821,138.472 40.333 L 139.264 43.083 143.674 43.128 C 148.480 43.176,148.500 43.173,148.500 42.217 C 148.500 41.717,153.007 21.289,153.153 21.126 C 153.253 21.015,153.896 23.862,157.158 38.833 L 158.083 43.083 162.513 43.128 L 166.942 43.172 167.137 42.544 C 167.377 41.773,170.965 29.285,172.226 24.833 C 172.733 23.046,173.827 19.267,174.657 16.435 C 175.487 13.604,176.167 11.222,176.167 11.144 C 176.167 11.065,174.149 11.000,171.683 11.000 L 167.200 11.000 166.937 12.208 C 166.792 12.873,165.777 17.504,164.682 22.500 C 163.588 27.496,162.640 31.865,162.577 32.208 C 162.514 32.552,162.408 32.833,162.342 32.833 C 162.228 32.833,160.212 23.507,159.820 21.167 C 159.626 20.004,157.889 11.778,157.735 11.289 C 157.649 11.016,157.327 10.998,153.283 11.039 L 148.925 11.083 148.814 11.500 C 148.754 11.729,147.783 16.567,146.656 22.250 C 145.530 27.933,144.570 32.692,144.524 32.824 C 144.477 32.957,144.054 31.307,143.584 29.158 C 143.113 27.008,142.020 22.044,141.156 18.126 L 139.583 11.001 134.958 11.001 C 132.415 11.000,130.333 11.062,130.333 11.138 M120.028 17.960 C 121.799 18.833,123.139 20.706,123.425 22.708 L 123.538 23.500 117.269 23.500 C 110.099 23.500,110.746 23.679,111.316 21.848 C 112.541 17.912,116.419 16.181,120.028 17.960 M234.195 17.960 C 235.966 18.833,237.306 20.706,237.592 22.708 L 237.705 23.500 231.436 23.500 C 224.266 23.500,224.913 23.679,225.482 21.848 C 226.708 17.912,230.585 16.181,234.195 17.960 M295.928 18.000 C 297.647 18.877,298.761 20.540,299.087 22.715 L 299.205 23.500 292.914 23.500 L 286.624 23.500 286.735 22.792 C 287.428 18.369,291.992 15.991,295.928 18.000 M22.833 43.495 C 22.833 44.339,24.168 46.313,25.050 46.773 C 25.925 47.230,27.212 46.299,27.933 44.688 C 28.571 43.261,28.695 43.333,25.583 43.333 C 23.915 43.333,22.833 43.397,22.833 43.495 M30.957 43.432 C 30.595 43.794,31.953 46.152,32.798 46.627 C 34.286 47.463,36.667 45.625,36.667 43.640 C 36.667 43.335,31.251 43.138,30.957 43.432 M39.333 43.497 C 39.333 45.148,41.584 47.292,42.742 46.743 C 43.602 46.335,44.833 44.424,44.833 43.498 C 44.833 43.396,43.786 43.333,42.083 43.333 C 40.399 43.333,39.333 43.397,39.333 43.497 M217.167 49.667 L 217.167 54.167 214.917 54.167 L 212.667 54.167 212.667 57.167 L 212.667 60.167 214.911 60.167 L 217.155 60.167 217.203 71.125 L 217.250 82.083 217.633 82.917 C 218.949 85.778,222.728 86.823,229.500 86.199 L 230.750 86.083 230.795 82.799 L 230.840 79.514 229.069 79.514 C 225.560 79.514,225.833 80.381,225.833 69.242 L 225.833 60.167 228.333 60.167 L 230.833 60.167 230.833 57.167 L 230.833 54.167 228.333 54.167 L 225.833 54.167 225.833 49.667 L 225.833 45.167 221.500 45.167 L 217.167 45.167 217.167 49.667 M20.024 52.981 C 19.769 53.143,19.424 52.854,27.382 59.139 C 34.489 64.752,33.388 64.646,39.000 60.254 C 41.246 58.496,44.096 56.291,45.333 55.353 C 48.646 52.844,48.823 53.074,43.475 52.944 C 36.974 52.785,20.291 52.812,20.024 52.981 M132.417 52.949 C 127.875 53.548,124.673 55.536,122.222 59.278 C 116.222 68.439,119.674 82.474,128.737 85.763 C 131.454 86.749,138.306 87.023,141.167 86.260 C 152.266 83.298,155.830 67.428,147.692 57.196 C 145.122 53.965,138.557 52.140,132.417 52.949 M168.397 53.153 C 166.029 53.793,164.209 55.041,162.694 57.064 L 162.333 57.545 162.333 55.606 L 162.333 53.667 158.167 53.667 L 154.000 53.667 154.000 69.750 L 154.000 85.833 158.241 85.833 L 162.481 85.833 162.537 75.792 C 162.600 64.557,162.572 64.833,163.870 62.672 C 165.918 59.262,171.773 58.990,173.448 62.227 C 174.139 63.563,174.163 63.984,174.165 75.125 L 174.167 85.833 178.592 85.833 L 183.017 85.833 182.960 73.125 C 182.896 59.077,182.934 59.591,181.801 57.465 C 179.902 53.902,173.384 51.805,168.397 53.153 M195.750 52.951 C 189.105 53.849,184.724 59.151,185.655 65.167 C 186.309 69.392,188.845 71.139,197.500 73.326 C 204.494 75.093,205.324 75.497,205.331 77.141 C 205.339 78.888,203.489 79.833,200.061 79.833 C 195.772 79.833,193.500 78.380,193.500 75.636 C 193.500 75.351,193.239 75.333,188.984 75.333 L 184.467 75.333 184.581 76.375 C 185.110 81.226,187.985 84.581,192.923 86.110 C 195.037 86.764,203.508 86.827,205.750 86.205 C 211.462 84.620,214.616 80.243,213.993 74.763 C 213.421 69.725,209.848 67.362,199.625 65.261 C 195.640 64.442,194.642 63.980,194.327 62.811 C 193.750 60.665,195.267 59.604,198.928 59.591 C 202.379 59.580,204.079 60.609,204.426 62.921 L 204.538 63.667 208.875 63.667 L 213.213 63.667 213.100 62.708 C 212.313 56.011,207.663 52.777,198.937 52.858 C 197.459 52.872,196.025 52.914,195.750 52.951 M241.250 53.072 C 233.546 54.846,229.500 60.676,229.500 70.000 C 229.500 80.856,234.968 86.583,245.333 86.583 L 249.250 86.583 250.833 86.033 C 255.228 84.506,259.667 79.796,259.667 76.660 L 259.667 76.167 255.291 76.167 L 250.916 76.167 250.513 76.927 C 248.769 80.213,243.782 80.878,240.695 78.235 C 239.568 77.271,238.667 75.192,238.406 72.958 L 238.295 72.000 249.256 72.000 L 260.217 72.000 260.122 69.042 C 259.838 60.181,256.438 55.237,249.250 53.234 C 247.876 52.851,242.667 52.746,241.250 53.072 M276.021 53.096 C 273.780 53.699,272.121 54.972,270.514 57.321 L 269.667 58.559 269.667 56.113 L 269.667 53.667 265.583 53.667 L 261.500 53.667 261.500 69.750 L 261.500 85.833 265.824 85.833 L 270.149 85.833 270.204 76.458 C 270.258 67.251,270.265 67.063,270.634 65.965 C 271.630 62.998,273.621 61.809,277.991 61.571 L 280.167 61.453 280.167 57.143 L 280.167 52.833 278.542 52.844 C 277.648 52.850,276.513 52.964,276.021 53.096 M85.700 53.337 C 83.421 53.934,81.607 55.202,80.471 56.991 L 80.000 57.732 80.000 55.699 L 80.000 53.667 75.750 53.667 L 71.500 53.667 71.500 69.750 L 71.500 85.833 75.911 85.833 L 80.322 85.833 80.371 74.958 C 80.427 62.719,80.383 63.156,81.692 61.847 C 83.468 60.071,87.178 59.966,88.857 61.644 C 90.271 63.058,90.232 62.687,90.294 75.042 L 90.349 85.833 94.675 85.833 L 99.000 85.833 99.000 75.535 C 99.000 64.589,99.022 64.248,99.818 62.703 C 101.493 59.452,106.580 59.222,108.164 62.327 C 108.778 63.531,108.833 64.613,108.833 75.364 L 108.833 85.833 113.259 85.833 L 117.684 85.833 117.623 73.458 C 117.555 59.774,117.583 60.146,116.453 57.842 C 113.412 51.644,102.367 51.226,98.259 57.153 L 97.784 57.840 97.434 57.139 C 95.734 53.740,90.561 52.064,85.700 53.337 M49.924 54.154 C 49.870 54.242,49.492 54.480,49.085 54.684 C 48.678 54.887,48.140 55.267,47.891 55.527 L 47.438 56.000 48.365 56.000 C 48.875 56.000,49.526 56.047,49.813 56.104 L 50.333 56.208 50.333 55.197 C 50.333 54.252,50.151 53.787,49.924 54.154 M17.667 55.083 L 17.667 56.000 19.000 56.000 C 20.758 56.000,20.676 55.780,18.449 54.524 C 17.623 54.059,17.667 54.028,17.667 55.083 M21.333 57.234 C 21.333 57.797,21.340 57.802,22.176 57.859 L 23.018 57.917 22.301 57.297 C 21.414 56.530,21.333 56.525,21.333 57.234 M45.362 57.368 C 44.627 57.882,44.581 58.402,45.304 58.015 C 45.492 57.915,45.837 57.833,46.072 57.833 C 46.436 57.833,46.500 57.759,46.500 57.333 C 46.500 56.711,46.291 56.717,45.362 57.368 M41.554 60.303 C 40.896 60.824,39.999 61.512,39.562 61.833 C 39.124 62.154,38.449 62.689,38.063 63.022 L 37.359 63.627 38.966 64.938 C 40.359 66.075,41.822 67.187,47.201 71.199 C 47.778 71.629,48.699 72.322,49.247 72.740 C 50.565 73.745,50.500 73.826,50.500 71.167 L 50.500 68.833 48.651 68.833 C 46.493 68.833,45.833 68.557,45.833 67.651 C 45.833 67.265,45.734 67.122,45.375 66.991 C 43.092 66.160,42.216 64.291,43.431 62.846 L 43.863 62.333 43.431 61.821 C 43.074 61.395,43.000 61.139,43.000 60.321 C 43.000 59.128,43.038 59.129,41.554 60.303 M24.833 60.342 C 24.833 60.908,24.712 61.395,24.462 61.829 C 24.110 62.442,24.105 62.489,24.379 62.792 C 25.456 63.982,23.818 67.000,22.095 67.000 C 21.918 67.000,21.833 67.155,21.833 67.482 C 21.833 68.527,21.413 68.744,19.265 68.806 L 17.333 68.862 17.333 71.098 C 17.333 72.327,17.372 73.333,17.418 73.333 C 17.563 73.333,19.193 72.156,20.399 71.180 C 21.031 70.668,22.132 69.837,22.847 69.333 C 25.102 67.741,30.144 63.804,30.157 63.624 C 30.162 63.555,29.748 63.180,29.235 62.791 C 28.723 62.402,27.603 61.502,26.746 60.792 C 24.902 59.262,24.833 59.246,24.833 60.342 M138.695 60.569 C 143.770 63.102,144.753 73.486,140.325 77.784 C 138.155 79.889,134.201 80.135,131.574 78.327 C 127.083 75.237,126.992 64.655,131.427 61.293 C 133.285 59.884,136.651 59.549,138.695 60.569 M247.060 60.339 C 249.260 61.162,250.704 63.006,251.103 65.502 L 251.209 66.167 244.938 66.167 L 238.667 66.167 238.667 65.776 C 238.667 61.840,243.208 58.898,247.060 60.339 M30.214 65.964 C 29.553 66.488,27.923 67.742,26.593 68.750 C 25.263 69.758,23.545 71.082,22.777 71.692 C 22.008 72.302,20.921 73.137,20.362 73.549 C 18.427 74.974,16.961 74.833,33.759 74.833 C 46.791 74.833,48.682 74.802,48.507 74.592 C 48.397 74.459,47.582 73.810,46.695 73.148 C 45.809 72.487,44.596 71.574,44.000 71.120 C 43.404 70.666,42.441 69.947,41.860 69.522 C 41.279 69.097,40.191 68.261,39.443 67.663 C 38.695 67.065,37.624 66.224,37.062 65.793 L 36.040 65.011 35.361 65.339 C 34.488 65.761,33.334 65.759,32.500 65.333 C 31.607 64.878,31.576 64.886,30.214 65.964 "
            stroke="none" fill="#fbfbfb" fillRule="evenodd"></path>
        <path id="path3"
            d="M60.724 9.500 C 60.628 9.861,60.607 10.120,60.678 10.076 C 60.826 9.985,61.066 9.010,60.966 8.910 C 60.929 8.874,60.821 9.139,60.724 9.500 M58.500 9.583 C 58.271 9.714,58.158 9.822,58.250 9.822 C 58.342 9.822,58.604 9.714,58.833 9.583 C 59.063 9.452,59.175 9.345,59.083 9.345 C 58.992 9.345,58.729 9.452,58.500 9.583 M9.167 9.750 C 9.396 9.881,9.658 9.988,9.750 9.988 C 9.842 9.988,9.729 9.881,9.500 9.750 C 9.271 9.619,9.008 9.512,8.917 9.512 C 8.825 9.512,8.938 9.619,9.167 9.750 M6.833 9.725 C 6.833 9.906,8.827 13.833,8.919 13.833 C 8.994 13.833,7.055 9.850,6.898 9.681 C 6.862 9.642,6.833 9.662,6.833 9.725 M56.000 10.667 C 55.679 10.842,55.492 10.986,55.583 10.986 C 55.675 10.986,56.012 10.842,56.333 10.667 C 56.654 10.491,56.842 10.347,56.750 10.347 C 56.658 10.347,56.321 10.491,56.000 10.667 M12.667 11.248 C 12.667 11.362,13.687 11.868,13.763 11.792 C 13.800 11.756,13.568 11.602,13.248 11.449 C 12.928 11.297,12.667 11.206,12.667 11.248 M53.167 12.000 C 52.846 12.176,52.658 12.319,52.750 12.319 C 52.842 12.319,53.179 12.176,53.500 12.000 C 53.821 11.824,54.008 11.681,53.917 11.681 C 53.825 11.681,53.487 11.824,53.167 12.000 M15.333 12.583 C 15.563 12.714,15.825 12.822,15.917 12.822 C 16.008 12.822,15.896 12.714,15.667 12.583 C 15.438 12.452,15.175 12.345,15.083 12.345 C 14.992 12.345,15.104 12.452,15.333 12.583 M51.060 12.987 C 50.772 13.163,50.478 13.406,50.406 13.528 C 50.329 13.659,50.407 13.639,50.596 13.479 C 50.773 13.330,51.142 13.090,51.417 12.944 C 51.692 12.799,51.842 12.677,51.750 12.674 C 51.658 12.671,51.348 12.812,51.060 12.987 M17.006 13.447 C 17.209 13.772,17.190 13.847,16.824 14.165 L 16.417 14.520 16.875 14.241 C 17.399 13.922,17.454 13.641,17.057 13.312 C 16.804 13.103,16.800 13.115,17.006 13.447 M52.083 15.189 C 52.450 15.492,53.334 16.302,54.047 16.988 L 55.344 18.235 56.214 17.328 L 57.083 16.421 56.215 17.240 L 55.346 18.058 53.965 16.735 C 53.205 16.007,52.321 15.237,52.000 15.025 C 51.474 14.676,51.482 14.692,52.083 15.189 M13.944 16.500 C 12.164 18.202,12.272 18.154,11.592 17.542 L 11.083 17.083 11.578 17.630 C 11.850 17.931,12.158 18.156,12.263 18.130 C 12.473 18.079,15.763 15.000,15.608 15.000 C 15.556 15.000,14.807 15.675,13.944 16.500 M10.500 16.333 C 10.790 16.700,11.066 17.000,11.111 17.000 C 11.157 17.000,10.957 16.700,10.667 16.333 C 10.376 15.967,10.101 15.667,10.055 15.667 C 10.009 15.667,10.210 15.967,10.500 16.333 M24.375 43.291 C 25.085 43.322,26.248 43.322,26.958 43.291 C 27.669 43.259,27.087 43.234,25.667 43.234 C 24.246 43.234,23.665 43.259,24.375 43.291 M32.466 43.291 C 33.227 43.322,34.427 43.322,35.133 43.290 C 35.839 43.259,35.217 43.234,33.750 43.234 C 32.283 43.234,31.706 43.260,32.466 43.291 M40.883 43.291 C 41.597 43.322,42.722 43.322,43.383 43.290 C 44.043 43.259,43.458 43.233,42.083 43.233 C 40.708 43.234,40.168 43.259,40.883 43.291 M28.353 43.520 C 28.310 44.112,27.592 45.457,26.940 46.167 L 26.250 46.916 26.974 46.250 C 27.715 45.568,28.568 43.975,28.442 43.508 C 28.382 43.286,28.369 43.288,28.353 43.520 M30.751 43.708 C 31.681 46.988,34.486 48.230,35.748 45.921 L 36.024 45.417 35.671 45.866 C 34.346 47.555,32.544 47.230,31.502 45.112 C 31.217 44.533,30.971 43.897,30.956 43.697 C 30.941 43.497,30.865 43.333,30.787 43.333 C 30.708 43.333,30.692 43.502,30.751 43.708 M44.622 44.195 C 43.760 46.930,42.145 47.586,40.512 45.864 C 39.984 45.307,39.880 45.238,40.148 45.625 C 41.304 47.294,42.593 47.471,43.777 46.122 C 44.285 45.543,45.067 43.783,44.959 43.460 C 44.929 43.371,44.778 43.702,44.622 44.195 M22.933 44.167 C 23.277 45.478,25.167 47.556,25.611 47.111 C 25.656 47.067,25.531 46.979,25.335 46.917 C 24.672 46.707,23.778 45.755,23.300 44.750 C 23.038 44.200,22.873 43.938,22.933 44.167 M36.375 44.542 C 36.196 45.031,36.200 45.052,36.422 44.760 C 36.634 44.480,36.759 44.000,36.620 44.000 C 36.594 44.000,36.484 44.244,36.375 44.542 M19.764 52.978 C 19.715 53.057,19.842 53.263,20.046 53.436 L 20.417 53.750 20.115 53.392 C 19.882 53.116,19.863 53.015,20.031 52.947 C 20.178 52.888,20.185 52.855,20.052 52.846 C 19.942 52.839,19.813 52.898,19.764 52.978 M44.966 52.958 C 47.182 52.994,47.983 53.059,47.898 53.196 C 47.826 53.313,47.856 53.339,47.977 53.264 C 48.510 52.935,47.749 52.836,44.948 52.871 L 41.917 52.909 44.966 52.958 M49.643 54.161 C 49.427 54.341,49.335 54.491,49.438 54.494 C 49.541 54.498,49.719 54.388,49.832 54.252 C 50.175 53.838,50.333 54.135,50.333 55.195 L 50.333 56.204 49.708 56.107 C 49.130 56.018,49.118 56.024,49.547 56.188 C 50.306 56.477,50.500 56.290,50.500 55.269 C 50.500 53.806,50.332 53.588,49.643 54.161 M17.568 54.230 C 17.344 54.814,17.578 56.080,17.917 56.114 C 18.176 56.140,18.186 56.129,17.958 56.062 C 17.727 55.993,17.667 55.789,17.667 55.071 C 17.667 54.032,17.631 54.059,18.407 54.516 C 18.733 54.709,19.000 54.829,19.000 54.783 C 19.000 54.451,17.679 53.941,17.568 54.230 M22.000 54.993 C 22.321 55.279,23.033 55.854,23.583 56.270 C 24.133 56.686,24.321 56.793,24.000 56.507 C 23.679 56.221,22.967 55.646,22.417 55.230 C 21.867 54.814,21.679 54.707,22.000 54.993 M45.333 55.354 C 44.752 55.863,44.752 55.864,45.287 55.508 C 45.582 55.312,45.867 55.080,45.921 54.992 C 46.082 54.732,45.949 54.814,45.333 55.354 M19.750 55.266 C 19.933 55.440,20.177 55.691,20.292 55.824 C 20.414 55.965,20.500 55.987,20.500 55.877 C 20.500 55.774,20.256 55.523,19.958 55.319 C 19.560 55.046,19.505 55.032,19.750 55.266 M47.692 55.517 C 47.386 55.796,47.180 56.068,47.234 56.123 C 47.289 56.178,47.352 56.191,47.375 56.152 C 47.398 56.113,47.637 55.838,47.906 55.541 C 48.519 54.864,48.423 54.853,47.692 55.517 M22.145 57.181 C 22.615 57.555,23.000 57.874,23.000 57.889 C 23.000 57.904,22.606 57.903,22.125 57.887 L 21.250 57.857 22.291 58.002 C 22.864 58.081,23.426 58.195,23.541 58.255 C 23.802 58.390,22.694 57.381,22.026 56.875 C 21.156 56.216,21.256 56.473,22.145 57.181 M45.654 56.998 C 44.503 57.776,44.080 58.135,44.187 58.243 C 44.330 58.385,44.847 58.157,44.747 57.996 C 44.645 57.831,46.085 56.833,46.425 56.833 C 46.558 56.833,46.667 56.758,46.667 56.667 C 46.667 56.395,46.433 56.471,45.654 56.998 M24.667 57.055 C 24.667 57.101,24.967 57.376,25.333 57.667 C 25.700 57.957,26.000 58.157,26.000 58.111 C 26.000 58.066,25.700 57.790,25.333 57.500 C 24.967 57.210,24.667 57.009,24.667 57.055 M42.417 57.602 L 41.750 58.198 42.458 57.668 C 43.068 57.212,43.288 56.993,43.125 57.002 C 43.102 57.004,42.783 57.273,42.417 57.602 M45.333 57.998 C 45.163 58.106,45.296 58.125,45.750 58.055 C 46.574 57.929,46.714 57.833,46.069 57.836 C 45.802 57.837,45.471 57.910,45.333 57.998 M39.500 59.853 C 38.299 60.821,37.606 61.448,38.167 61.061 C 38.681 60.706,40.833 58.960,40.833 58.898 C 40.833 58.784,40.771 58.829,39.500 59.853 M41.964 59.808 C 41.441 60.235,40.506 60.958,39.888 61.417 C 38.461 62.475,37.268 63.500,37.464 63.500 C 37.547 63.500,37.748 63.353,37.911 63.173 C 38.074 62.993,38.692 62.486,39.284 62.048 C 39.876 61.609,40.920 60.816,41.603 60.285 C 42.286 59.755,42.917 59.365,43.006 59.420 C 43.094 59.475,43.167 59.445,43.167 59.353 C 43.167 58.963,42.861 59.079,41.964 59.808 M25.333 59.559 C 25.333 59.663,27.848 61.743,29.027 62.614 C 29.546 62.998,30.050 63.448,30.147 63.614 C 30.279 63.841,30.322 63.854,30.319 63.667 C 30.317 63.529,29.598 62.854,28.722 62.167 C 27.846 61.479,26.726 60.594,26.232 60.199 C 25.738 59.805,25.333 59.517,25.333 59.559 M27.833 59.544 C 27.833 59.591,28.377 60.064,29.042 60.597 C 29.706 61.129,30.569 61.821,30.958 62.135 C 31.348 62.450,31.667 62.669,31.667 62.622 C 31.667 62.576,31.123 62.102,30.458 61.570 C 29.794 61.038,28.931 60.346,28.542 60.031 C 28.152 59.717,27.833 59.498,27.833 59.544 M24.334 61.748 C 23.955 62.443,23.948 62.500,24.216 62.796 C 24.738 63.373,24.607 65.026,23.979 65.786 L 23.458 66.417 24.062 65.794 C 24.777 65.057,24.950 63.423,24.379 62.792 C 24.105 62.489,24.110 62.441,24.476 61.806 C 24.687 61.438,24.832 61.110,24.798 61.076 C 24.764 61.041,24.555 61.344,24.334 61.748 M43.005 61.112 C 43.002 61.220,43.194 61.539,43.431 61.821 L 43.863 62.333 43.431 62.846 C 43.194 63.128,43.002 63.447,43.005 63.554 C 43.008 63.662,43.093 63.600,43.194 63.417 C 43.296 63.233,43.532 62.915,43.718 62.708 L 44.058 62.333 43.718 61.958 C 43.532 61.752,43.296 61.433,43.194 61.250 C 43.093 61.067,43.008 61.005,43.005 61.112 M35.917 62.667 C 35.367 63.119,34.767 63.500,34.583 63.514 C 34.298 63.535,34.292 63.550,34.544 63.615 C 34.792 63.680,37.000 62.140,37.000 61.902 C 37.000 61.783,36.940 61.825,35.917 62.667 M32.740 63.404 C 32.918 63.549,33.218 63.660,33.407 63.652 C 33.682 63.641,33.662 63.611,33.305 63.504 C 33.060 63.430,32.760 63.318,32.638 63.256 C 32.516 63.193,32.562 63.260,32.740 63.404 M37.333 63.711 C 37.333 63.747,37.652 64.031,38.042 64.340 C 38.431 64.650,38.644 64.772,38.515 64.611 C 38.271 64.307,37.333 63.593,37.333 63.711 M28.548 64.967 C 26.707 66.469,24.422 68.220,22.849 69.333 C 21.377 70.375,19.333 71.989,19.333 72.109 C 19.333 72.153,19.789 71.828,20.345 71.386 C 20.902 70.945,21.792 70.283,22.323 69.917 C 23.875 68.844,29.756 64.259,29.921 63.992 C 30.087 63.725,29.964 63.812,28.548 64.967 M30.632 65.464 C 30.201 65.805,29.166 66.605,28.333 67.243 C 27.499 67.880,26.727 68.514,26.617 68.650 C 26.431 68.880,27.302 68.231,30.274 65.924 C 31.624 64.877,31.612 64.880,32.500 65.333 C 33.164 65.672,34.559 65.783,34.960 65.528 C 35.075 65.455,34.732 65.427,34.197 65.466 C 33.438 65.520,33.073 65.459,32.535 65.185 C 31.634 64.725,31.554 64.737,30.632 65.464 M38.833 64.886 C 38.833 64.931,39.208 65.283,39.667 65.667 C 40.125 66.050,40.500 66.327,40.500 66.281 C 40.500 66.235,40.125 65.884,39.667 65.500 C 39.208 65.116,38.833 64.840,38.833 64.886 M36.661 65.447 C 38.438 66.891,40.637 68.628,41.000 68.873 C 41.229 69.028,41.623 69.314,41.875 69.508 C 42.127 69.702,42.333 69.825,42.333 69.782 C 42.333 69.738,41.565 69.115,40.625 68.398 C 39.685 67.680,38.542 66.790,38.083 66.420 C 37.625 66.050,36.987 65.574,36.667 65.362 L 36.083 64.978 36.661 65.447 M43.000 65.185 C 43.000 65.648,44.206 66.566,45.375 66.991 C 45.731 67.121,45.833 67.266,45.833 67.642 C 45.833 67.908,45.965 68.225,46.125 68.347 C 46.373 68.534,46.386 68.532,46.208 68.334 C 46.094 68.205,46.000 67.899,46.000 67.654 C 46.000 67.137,45.775 66.909,45.098 66.739 C 44.832 66.672,44.251 66.267,43.807 65.839 C 43.363 65.411,43.000 65.117,43.000 65.185 M40.727 66.463 C 40.825 66.622,45.407 70.092,47.333 71.467 C 47.746 71.762,48.477 72.305,48.958 72.674 C 49.440 73.043,49.833 73.306,49.833 73.257 C 49.833 73.172,49.615 73.002,47.263 71.250 C 45.790 70.152,42.822 67.936,41.595 67.018 C 41.057 66.615,40.667 66.365,40.727 66.463 M22.667 66.667 C 22.529 66.756,22.248 66.829,22.042 66.831 C 21.715 66.833,21.670 66.914,21.693 67.458 C 21.720 68.074,21.721 68.075,21.787 67.542 C 21.834 67.163,21.942 67.000,22.145 67.000 C 22.305 67.000,22.582 66.890,22.760 66.755 C 23.122 66.481,23.054 66.416,22.667 66.667 M17.167 71.083 C 17.167 73.841,17.169 73.844,18.393 72.909 C 19.423 72.123,19.383 72.012,18.335 72.749 C 17.878 73.070,17.465 73.333,17.418 73.333 C 17.143 73.333,17.346 68.854,17.625 68.782 C 17.844 68.724,17.824 68.701,17.542 68.686 C 17.169 68.667,17.167 68.683,17.167 71.083 M50.125 68.776 C 50.492 68.855,50.500 68.905,50.500 71.196 C 50.500 73.242,50.468 73.523,50.241 73.436 C 50.093 73.379,50.026 73.407,50.085 73.502 C 50.531 74.224,50.675 73.618,50.629 71.208 L 50.583 68.750 50.167 68.723 C 49.799 68.699,49.795 68.705,50.125 68.776 M25.500 69.415 C 24.491 70.175,23.861 70.720,24.167 70.566 C 24.510 70.394,26.333 68.998,26.333 68.907 C 26.333 68.793,26.298 68.814,25.500 69.415 M42.547 69.942 C 42.650 70.108,44.126 71.245,46.167 72.731 C 46.762 73.165,47.016 73.309,46.729 73.051 C 46.254 72.624,45.629 72.143,43.264 70.385 C 42.814 70.050,42.491 69.851,42.547 69.942 M22.590 71.634 C 21.951 72.156,20.831 73.033,20.101 73.583 C 19.370 74.133,18.742 74.677,18.706 74.792 C 18.653 74.957,21.751 75.000,33.819 75.000 C 42.169 75.000,49.000 74.939,49.000 74.865 C 49.000 74.790,48.759 74.546,48.464 74.323 C 47.418 73.531,47.260 73.468,48.000 74.139 L 48.750 74.819 33.785 74.826 C 17.089 74.834,18.445 74.940,20.083 73.755 C 21.110 73.013,23.833 70.823,23.833 70.740 C 23.833 70.621,23.801 70.644,22.590 71.634 "
            stroke="none" fill="#9c9c9c" fillRule="evenodd"></path>
        <path id="path4"
            d="M6.557 8.926 C 6.502 9.068,6.538 9.350,6.636 9.551 C 6.793 9.872,6.804 9.852,6.723 9.389 C 6.643 8.933,6.684 8.851,7.024 8.787 L 7.417 8.712 7.036 8.689 C 6.827 8.677,6.611 8.783,6.557 8.926 M59.294 12.723 C 58.585 14.113,58.120 15.100,58.261 14.917 C 58.588 14.490,60.711 10.322,60.638 10.251 C 60.608 10.221,60.003 11.334,59.294 12.723 M14.333 12.000 C 14.654 12.176,14.992 12.319,15.083 12.319 C 15.175 12.319,14.987 12.176,14.667 12.000 C 14.346 11.824,14.008 11.681,13.917 11.681 C 13.825 11.681,14.012 11.824,14.333 12.000 M50.442 13.305 C 50.011 13.782,50.084 13.898,51.458 14.926 C 52.169 15.457,53.334 16.457,54.047 17.147 L 55.344 18.402 56.214 17.495 L 57.083 16.588 56.215 17.406 L 55.346 18.225 53.965 16.903 C 53.205 16.176,52.077 15.211,51.458 14.758 C 50.248 13.873,50.188 13.770,50.609 13.305 C 50.761 13.137,50.847 13.000,50.802 13.000 C 50.756 13.000,50.594 13.137,50.442 13.305 M17.144 13.373 C 17.268 13.532,17.326 13.780,17.271 13.923 C 17.213 14.073,17.240 14.141,17.335 14.082 C 17.590 13.925,17.531 13.565,17.208 13.312 C 16.944 13.105,16.938 13.111,17.144 13.373 M15.917 14.938 C 15.367 15.362,14.342 16.272,13.639 16.961 C 12.741 17.842,12.281 18.182,12.089 18.109 C 11.929 18.047,11.858 18.072,11.918 18.169 C 12.123 18.501,12.449 18.310,13.505 17.240 C 14.098 16.638,15.127 15.728,15.792 15.217 C 16.856 14.398,17.113 14.166,16.958 14.167 C 16.935 14.167,16.467 14.514,15.917 14.938 M9.507 15.129 C 9.723 15.521,10.041 15.970,10.215 16.127 C 10.389 16.285,10.255 16.002,9.917 15.498 C 9.139 14.341,9.007 14.222,9.507 15.129 M57.406 15.945 C 57.150 16.282,57.025 16.504,57.129 16.440 C 57.342 16.308,58.064 15.333,57.948 15.333 C 57.907 15.333,57.663 15.609,57.406 15.945 M10.833 16.958 C 11.051 17.256,11.255 17.500,11.287 17.500 C 11.414 17.500,11.001 16.875,10.727 16.653 C 10.547 16.507,10.587 16.623,10.833 16.958 M28.292 43.277 C 29.077 43.594,27.242 46.503,25.949 46.990 C 25.061 47.324,23.761 46.227,23.079 44.567 C 22.857 44.026,22.674 43.696,22.672 43.833 C 22.664 44.740,24.362 46.942,25.300 47.239 C 26.143 47.507,27.557 46.318,28.237 44.771 C 28.745 43.614,28.784 43.161,28.375 43.180 C 28.201 43.188,28.167 43.227,28.292 43.277 M30.601 43.305 C 30.036 44.219,32.505 47.333,33.795 47.333 C 34.703 47.333,37.078 45.022,36.630 44.574 C 36.591 44.536,36.318 44.935,36.022 45.462 C 34.717 47.782,32.557 47.633,31.363 45.140 C 30.651 43.654,30.590 43.377,30.951 43.283 C 31.213 43.215,31.215 43.203,30.968 43.186 C 30.813 43.175,30.648 43.229,30.601 43.305 M36.552 43.284 C 36.790 43.345,36.834 43.472,36.759 43.889 C 36.673 44.371,36.680 44.382,36.839 44.011 C 37.056 43.503,36.934 43.161,36.547 43.186 C 36.267 43.204,36.268 43.210,36.552 43.284 M39.066 43.403 C 39.016 43.533,39.098 43.852,39.248 44.111 C 39.398 44.371,39.470 44.433,39.408 44.250 C 39.139 43.453,39.142 43.362,39.443 43.285 C 39.726 43.211,39.727 43.204,39.453 43.186 C 39.290 43.175,39.115 43.273,39.066 43.403 M44.723 43.284 C 45.297 43.432,44.466 45.524,43.480 46.415 C 43.124 46.737,42.898 47.000,42.978 47.000 C 43.324 47.000,44.485 45.477,44.818 44.585 C 45.210 43.537,45.182 43.156,44.714 43.186 C 44.438 43.204,44.439 43.211,44.723 43.284 M39.500 44.726 C 39.500 45.281,40.395 46.442,41.083 46.779 C 41.581 47.024,41.581 47.023,41.019 46.566 C 40.709 46.314,40.240 45.768,39.978 45.354 C 39.715 44.940,39.500 44.657,39.500 44.726 M41.904 47.203 C 42.056 47.288,42.278 47.288,42.430 47.203 C 42.625 47.093,42.558 47.056,42.167 47.056 C 41.775 47.056,41.708 47.093,41.904 47.203 M26.971 52.792 C 30.851 52.817,37.151 52.817,40.971 52.792 C 44.791 52.767,41.617 52.746,33.917 52.746 C 26.217 52.746,23.091 52.767,26.971 52.792 M47.491 53.792 L 46.917 54.417 47.542 53.842 C 48.123 53.308,48.243 53.167,48.116 53.167 C 48.088 53.167,47.807 53.448,47.491 53.792 M49.156 54.296 C 46.611 55.998,46.405 56.386,48.167 56.161 L 49.250 56.023 48.208 56.064 C 47.635 56.086,47.167 56.076,47.167 56.042 C 47.167 55.923,48.141 55.158,49.154 54.482 C 49.711 54.110,50.167 53.774,50.167 53.736 C 50.167 53.625,50.129 53.645,49.156 54.296 M17.533 54.033 C 17.317 54.250,17.253 56.103,17.458 56.216 C 17.785 56.397,20.667 56.117,20.667 55.905 C 20.667 55.678,19.671 54.833,19.404 54.833 C 19.323 54.833,19.536 55.024,19.878 55.256 C 20.765 55.859,20.671 55.956,19.125 56.037 C 17.429 56.125,17.500 56.167,17.500 55.083 C 17.500 53.973,17.643 53.876,18.494 54.413 C 19.340 54.947,19.380 54.824,18.545 54.256 C 17.830 53.771,17.802 53.764,17.533 54.033 M45.278 57.090 C 43.890 58.103,43.624 58.582,44.542 58.418 C 44.840 58.365,45.420 58.266,45.832 58.198 C 46.369 58.109,46.588 57.992,46.607 57.784 C 46.621 57.624,46.600 57.596,46.559 57.720 C 46.489 57.936,44.351 58.380,44.169 58.217 C 44.034 58.095,46.236 56.500,46.540 56.500 C 46.622 56.500,46.646 56.669,46.594 56.875 L 46.498 57.250 46.694 56.870 C 47.113 56.052,46.586 56.134,45.278 57.090 M49.537 56.360 C 49.806 56.530,50.290 56.539,50.390 56.375 C 50.432 56.306,50.210 56.244,49.895 56.237 C 49.543 56.229,49.406 56.276,49.537 56.360 M21.234 56.566 C 21.185 56.694,21.168 57.087,21.197 57.441 L 21.250 58.083 22.167 58.201 C 22.671 58.265,23.233 58.340,23.417 58.367 C 24.019 58.456,23.767 58.046,22.687 57.183 C 21.553 56.276,21.374 56.200,21.234 56.566 M22.026 56.875 C 22.298 57.081,22.797 57.492,23.135 57.787 L 23.750 58.324 23.168 58.162 C 22.848 58.073,22.304 58.000,21.959 58.000 L 21.333 58.000 21.333 57.250 C 21.333 56.386,21.361 56.371,22.026 56.875 M43.250 57.102 L 42.583 57.698 43.292 57.168 C 43.901 56.712,44.121 56.493,43.958 56.502 C 43.935 56.504,43.617 56.773,43.250 57.102 M25.333 57.715 C 25.333 57.764,26.440 58.685,27.792 59.762 C 29.144 60.839,30.381 61.832,30.542 61.969 C 30.702 62.106,30.833 62.177,30.833 62.127 C 30.833 62.077,29.915 61.302,28.792 60.404 C 27.669 59.507,26.431 58.515,26.042 58.200 C 25.652 57.884,25.333 57.666,25.333 57.715 M41.167 58.685 C 40.479 59.238,39.804 59.810,39.667 59.956 C 39.382 60.257,41.118 58.936,42.000 58.180 C 43.026 57.301,42.461 57.643,41.167 58.685 M41.398 60.032 C 36.754 63.702,36.979 63.488,37.294 63.917 C 37.516 64.219,41.167 67.068,41.167 66.939 C 41.167 66.901,40.304 66.172,39.250 65.319 C 38.196 64.466,37.333 63.706,37.333 63.629 C 37.333 63.446,38.193 62.698,39.789 61.492 C 40.501 60.954,41.473 60.206,41.949 59.829 C 42.991 59.005,43.100 59.024,43.027 60.026 C 42.969 60.838,43.145 61.330,43.717 61.958 L 44.058 62.333 43.717 62.708 C 42.460 64.088,43.205 66.264,45.098 66.739 C 45.785 66.911,46.000 67.138,46.000 67.690 C 46.000 68.564,46.754 68.857,48.859 68.799 C 49.836 68.772,50.607 68.705,50.573 68.650 C 50.539 68.595,49.773 68.586,48.871 68.629 C 46.938 68.722,46.167 68.467,46.167 67.735 C 46.167 67.061,45.887 66.714,45.248 66.594 C 43.336 66.235,42.594 64.124,43.883 62.708 L 44.225 62.333 43.883 61.958 C 43.265 61.280,43.121 60.829,43.230 59.908 C 43.377 58.652,43.121 58.670,41.398 60.032 M24.603 59.897 C 24.695 60.684,24.650 60.897,24.235 61.636 C 23.785 62.436,23.776 62.493,24.047 62.794 C 25.026 63.875,24.169 65.930,22.499 66.507 C 21.971 66.689,21.745 66.825,21.965 66.828 C 23.764 66.854,25.336 64.033,24.214 62.794 C 23.942 62.493,23.952 62.436,24.400 61.638 C 24.791 60.942,24.859 60.658,24.794 59.982 C 24.697 58.974,24.667 58.972,26.083 60.088 C 26.725 60.594,27.940 61.550,28.783 62.212 C 30.383 63.470,30.481 63.595,30.102 63.898 C 29.974 64.000,29.119 64.683,28.201 65.417 C 27.284 66.150,26.041 67.114,25.440 67.558 C 24.839 68.002,24.251 68.482,24.134 68.623 C 23.835 68.983,25.290 67.908,28.101 65.692 C 30.675 63.662,30.740 63.573,30.040 63.056 C 29.786 62.868,28.830 62.099,27.915 61.345 C 24.555 58.580,24.442 58.530,24.603 59.897 M38.083 61.104 C 36.393 62.426,36.176 62.726,37.789 61.511 C 38.944 60.641,39.529 60.125,39.302 60.179 C 39.273 60.185,38.725 60.602,38.083 61.104 M35.667 63.025 C 35.346 63.306,35.234 63.460,35.419 63.367 C 35.723 63.213,36.478 62.491,36.317 62.507 C 36.280 62.510,35.987 62.744,35.667 63.025 M31.820 62.894 C 32.042 63.167,32.667 63.580,32.667 63.454 C 32.667 63.422,32.423 63.218,32.125 62.999 C 31.790 62.754,31.673 62.714,31.820 62.894 M29.717 65.967 C 28.818 66.683,27.033 68.065,25.750 69.039 C 24.467 70.013,23.154 71.046,22.833 71.336 C 22.512 71.626,22.700 71.514,23.250 71.087 C 23.800 70.660,24.512 70.138,24.833 69.928 C 25.154 69.717,26.410 68.766,27.623 67.814 C 31.975 64.400,31.502 64.657,32.500 65.167 C 33.435 65.644,35.833 65.476,35.833 64.934 C 35.833 64.888,35.573 64.959,35.255 65.092 C 34.439 65.433,33.272 65.394,32.500 65.000 C 31.560 64.521,31.514 64.537,29.717 65.967 M37.130 65.708 C 37.773 66.190,39.525 67.523,41.024 68.672 C 42.523 69.820,43.907 70.870,44.099 71.005 C 44.291 71.140,44.936 71.625,45.531 72.083 C 46.126 72.542,47.150 73.324,47.807 73.822 C 48.463 74.320,49.000 74.788,49.000 74.863 C 49.000 74.939,42.169 75.000,33.819 75.000 C 21.750 75.000,18.653 74.957,18.706 74.792 C 18.742 74.677,19.422 74.096,20.216 73.500 C 21.010 72.904,21.793 72.275,21.955 72.102 C 22.117 71.929,21.859 72.079,21.382 72.435 C 20.904 72.792,20.062 73.421,19.511 73.833 C 17.719 75.174,16.685 75.083,33.836 75.083 C 50.687 75.083,49.818 75.146,48.333 74.044 C 47.921 73.738,47.270 73.246,46.887 72.952 C 46.504 72.658,45.716 72.062,45.137 71.628 C 44.557 71.194,42.996 69.999,41.667 68.971 C 37.730 65.929,36.259 64.834,36.105 64.834 C 36.026 64.834,36.487 65.227,37.130 65.708 M21.500 67.579 C 21.500 68.477,20.885 68.717,18.766 68.642 L 17.083 68.583 17.083 71.081 C 17.083 74.191,17.010 74.161,19.603 72.133 C 20.693 71.281,22.019 70.288,22.549 69.926 C 23.078 69.565,23.603 69.159,23.714 69.023 C 24.005 68.670,22.164 69.988,19.732 71.875 C 17.014 73.984,17.167 74.030,17.167 71.111 L 17.167 68.721 18.875 68.788 C 20.988 68.871,21.667 68.579,21.667 67.586 C 21.667 67.264,21.629 67.000,21.583 67.000 C 21.537 67.000,21.500 67.261,21.500 67.579 M42.000 67.664 C 42.412 68.035,43.050 68.542,43.417 68.791 C 43.783 69.039,45.096 69.999,46.333 70.923 C 51.237 74.586,50.847 74.553,50.797 71.297 L 50.760 68.917 50.709 71.292 C 50.649 74.046,50.699 73.997,49.167 72.830 C 48.571 72.377,47.746 71.764,47.333 71.469 C 46.921 71.174,45.383 70.046,43.917 68.961 C 42.450 67.877,41.587 67.293,42.000 67.664 "
            stroke="none" fill="#7c7c7c" fillRule="evenodd"></path>
    </g>
</svg>