<svg id="visual" viewBox="0 0 900 600" width="900" height="600" xmlns="http://www.w3.org/2000/svg" xmlns:xlink="http://www.w3.org/1999/xlink" version="1.1"><rect x="0" y="0" width="900" height="600" fill="#FFFFFF"></rect><path d="M0 200L10.7 207.7C21.3 215.3 42.7 230.7 64.2 244.8C85.7 259 107.3 272 128.8 268.5C150.3 265 171.7 245 193 242C214.3 239 235.7 253 257 261C278.3 269 299.7 271 321.2 280.8C342.7 290.7 364.3 308.3 385.8 298.5C407.3 288.7 428.7 251.3 450 235.5C471.3 219.7 492.7 225.3 514.2 223C535.7 220.7 557.3 210.3 578.8 206.5C600.3 202.7 621.7 205.3 643 223.7C664.3 242 685.7 276 707 293.2C728.3 310.3 749.7 310.7 771.2 289.3C792.7 268 814.3 225 835.8 224.7C857.3 224.3 878.7 266.7 889.3 287.8L900 309L900 0L889.3 0C878.7 0 857.3 0 835.8 0C814.3 0 792.7 0 771.2 0C749.7 0 728.3 0 707 0C685.7 0 664.3 0 643 0C621.7 0 600.3 0 578.8 0C557.3 0 535.7 0 514.2 0C492.7 0 471.3 0 450 0C428.7 0 407.3 0 385.8 0C364.3 0 342.7 0 321.2 0C299.7 0 278.3 0 257 0C235.7 0 214.3 0 193 0C171.7 0 150.3 0 128.8 0C107.3 0 85.7 0 64.2 0C42.7 0 21.3 0 10.7 0L0 0Z" fill="#222222"></path><path d="M0 240L10.7 228.5C21.3 217 42.7 194 64.2 196C85.7 198 107.3 225 128.8 243.5C150.3 262 171.7 272 193 262.5C214.3 253 235.7 224 257 214.5C278.3 205 299.7 215 321.2 211C342.7 207 364.3 189 385.8 187.5C407.3 186 428.7 201 450 207.5C471.3 214 492.7 212 514.2 205.3C535.7 198.7 557.3 187.3 578.8 191C600.3 194.7 621.7 213.3 643 211.3C664.3 209.3 685.7 186.7 707 184.7C728.3 182.7 749.7 201.3 771.2 201.8C792.7 202.3 814.3 184.7 835.8 183.2C857.3 181.7 878.7 196.3 889.3 203.7L900 211L900 0L889.3 0C878.7 0 857.3 0 835.8 0C814.3 0 792.7 0 771.2 0C749.7 0 728.3 0 707 0C685.7 0 664.3 0 643 0C621.7 0 600.3 0 578.8 0C557.3 0 535.7 0 514.2 0C492.7 0 471.3 0 450 0C428.7 0 407.3 0 385.8 0C364.3 0 342.7 0 321.2 0C299.7 0 278.3 0 257 0C235.7 0 214.3 0 193 0C171.7 0 150.3 0 128.8 0C107.3 0 85.7 0 64.2 0C42.7 0 21.3 0 10.7 0L0 0Z" fill="#402725"></path><path d="M0 204L10.7 202.2C21.3 200.3 42.7 196.7 64.2 196.5C85.7 196.3 107.3 199.7 128.8 195.7C150.3 191.7 171.7 180.3 193 171C214.3 161.7 235.7 154.3 257 155.7C278.3 157 299.7 167 321.2 183.3C342.7 199.7 364.3 222.3 385.8 227C407.3 231.7 428.7 218.3 450 200C471.3 181.7 492.7 158.3 514.2 160.8C535.7 163.3 557.3 191.7 578.8 209.3C600.3 227 621.7 234 643 226.5C664.3 219 685.7 197 707 195C728.3 193 749.7 211 771.2 207.3C792.7 203.7 814.3 178.3 835.8 179C857.3 179.7 878.7 206.3 889.3 219.7L900 233L900 0L889.3 0C878.7 0 857.3 0 835.8 0C814.3 0 792.7 0 771.2 0C749.7 0 728.3 0 707 0C685.7 0 664.3 0 643 0C621.7 0 600.3 0 578.8 0C557.3 0 535.7 0 514.2 0C492.7 0 471.3 0 450 0C428.7 0 407.3 0 385.8 0C364.3 0 342.7 0 321.2 0C299.7 0 278.3 0 257 0C235.7 0 214.3 0 193 0C171.7 0 150.3 0 128.8 0C107.3 0 85.7 0 64.2 0C42.7 0 21.3 0 10.7 0L0 0Z" fill="#5e2b28"></path><path d="M0 139L10.7 141.3C21.3 143.7 42.7 148.3 64.2 152.8C85.7 157.3 107.3 161.7 128.8 164.5C150.3 167.3 171.7 168.7 193 166.7C214.3 164.7 235.7 159.3 257 165.7C278.3 172 299.7 190 321.2 197.5C342.7 205 364.3 202 385.8 196.3C407.3 190.7 428.7 182.3 450 177.2C471.3 172 492.7 170 514.2 169.8C535.7 169.7 557.3 171.3 578.8 175.5C600.3 179.7 621.7 186.3 643 180C664.3 173.7 685.7 154.3 707 151.3C728.3 148.3 749.7 161.7 771.2 164.3C792.7 167 814.3 159 835.8 153.5C857.3 148 878.7 145 889.3 143.5L900 142L900 0L889.3 0C878.7 0 857.3 0 835.8 0C814.3 0 792.7 0 771.2 0C749.7 0 728.3 0 707 0C685.7 0 664.3 0 643 0C621.7 0 600.3 0 578.8 0C557.3 0 535.7 0 514.2 0C492.7 0 471.3 0 450 0C428.7 0 407.3 0 385.8 0C364.3 0 342.7 0 321.2 0C299.7 0 278.3 0 257 0C235.7 0 214.3 0 193 0C171.7 0 150.3 0 128.8 0C107.3 0 85.7 0 64.2 0C42.7 0 21.3 0 10.7 0L0 0Z" fill="#7c2d2b"></path><path d="M0 153L10.7 150.3C21.3 147.7 42.7 142.3 64.2 143.8C85.7 145.3 107.3 153.7 128.8 157.2C150.3 160.7 171.7 159.3 193 150.3C214.3 141.3 235.7 124.7 257 120.5C278.3 116.3 299.7 124.7 321.2 131.3C342.7 138 364.3 143 385.8 141.7C407.3 140.3 428.7 132.7 450 129.8C471.3 127 492.7 129 514.2 128.7C535.7 128.3 557.3 125.7 578.8 126.8C600.3 128 621.7 133 643 137.8C664.3 142.7 685.7 147.3 707 148.8C728.3 150.3 749.7 148.7 771.2 142.2C792.7 135.7 814.3 124.3 835.8 128.8C857.3 133.3 878.7 153.7 889.3 163.8L900 174L900 0L889.3 0C878.7 0 857.3 0 835.8 0C814.3 0 792.7 0 771.2 0C749.7 0 728.3 0 707 0C685.7 0 664.3 0 643 0C621.7 0 600.3 0 578.8 0C557.3 0 535.7 0 514.2 0C492.7 0 471.3 0 450 0C428.7 0 407.3 0 385.8 0C364.3 0 342.7 0 321.2 0C299.7 0 278.3 0 257 0C235.7 0 214.3 0 193 0C171.7 0 150.3 0 128.8 0C107.3 0 85.7 0 64.2 0C42.7 0 21.3 0 10.7 0L0 0Z" fill="#9b2c2d"></path><path d="M0 124L10.7 114.7C21.3 105.3 42.7 86.7 64.2 83C85.7 79.3 107.3 90.7 128.8 90.5C150.3 90.3 171.7 78.7 193 85.5C214.3 92.3 235.7 117.7 257 118.5C278.3 119.3 299.7 95.7 321.2 90.5C342.7 85.3 364.3 98.7 385.8 98.5C407.3 98.3 428.7 84.7 450 81.8C471.3 79 492.7 87 514.2 92.8C535.7 98.7 557.3 102.3 578.8 107.7C600.3 113 621.7 120 643 122.2C664.3 124.3 685.7 121.7 707 116.3C728.3 111 749.7 103 771.2 104C792.7 105 814.3 115 835.8 120.5C857.3 126 878.7 127 889.3 127.5L900 128L900 0L889.3 0C878.7 0 857.3 0 835.8 0C814.3 0 792.7 0 771.2 0C749.7 0 728.3 0 707 0C685.7 0 664.3 0 643 0C621.7 0 600.3 0 578.8 0C557.3 0 535.7 0 514.2 0C492.7 0 471.3 0 450 0C428.7 0 407.3 0 385.8 0C364.3 0 342.7 0 321.2 0C299.7 0 278.3 0 257 0C235.7 0 214.3 0 193 0C171.7 0 150.3 0 128.8 0C107.3 0 85.7 0 64.2 0C42.7 0 21.3 0 10.7 0L0 0Z" fill="#ba2830"></path><path d="M0 58L10.7 57.2C21.3 56.3 42.7 54.7 64.2 61.3C85.7 68 107.3 83 128.8 85C150.3 87 171.7 76 193 72.5C214.3 69 235.7 73 257 77C278.3 81 299.7 85 321.2 80.5C342.7 76 364.3 63 385.8 56.2C407.3 49.3 428.7 48.7 450 57.5C471.3 66.3 492.7 84.7 514.2 89.2C535.7 93.7 557.3 84.3 578.8 79.5C600.3 74.7 621.7 74.3 643 71.5C664.3 68.7 685.7 63.3 707 62C728.3 60.7 749.7 63.3 771.2 67.7C792.7 72 814.3 78 835.8 75.8C857.3 73.7 878.7 63.3 889.3 58.2L900 53L900 0L889.3 0C878.7 0 857.3 0 835.8 0C814.3 0 792.7 0 771.2 0C749.7 0 728.3 0 707 0C685.7 0 664.3 0 643 0C621.7 0 600.3 0 578.8 0C557.3 0 535.7 0 514.2 0C492.7 0 471.3 0 450 0C428.7 0 407.3 0 385.8 0C364.3 0 342.7 0 321.2 0C299.7 0 278.3 0 257 0C235.7 0 214.3 0 193 0C171.7 0 150.3 0 128.8 0C107.3 0 85.7 0 64.2 0C42.7 0 21.3 0 10.7 0L0 0Z" fill="#db1e33"></path><path d="M0 37L10.7 35C21.3 33 42.7 29 64.2 27.2C85.7 25.3 107.3 25.7 128.8 29.5C150.3 33.3 171.7 40.7 193 46C214.3 51.3 235.7 54.7 257 53.2C278.3 51.7 299.7 45.3 321.2 45.8C342.7 46.3 364.3 53.7 385.8 53.5C407.3 53.3 428.7 45.7 450 46.3C471.3 47 492.7 56 514.2 59.2C535.7 62.3 557.3 59.7 578.8 54C600.3 48.3 621.7 39.7 643 38C664.3 36.3 685.7 41.7 707 41.5C728.3 41.3 749.7 35.7 771.2 34.3C792.7 33 814.3 36 835.8 36.7C857.3 37.3 878.7 35.7 889.3 34.8L900 34L900 0L889.3 0C878.7 0 857.3 0 835.8 0C814.3 0 792.7 0 771.2 0C749.7 0 728.3 0 707 0C685.7 0 664.3 0 643 0C621.7 0 600.3 0 578.8 0C557.3 0 535.7 0 514.2 0C492.7 0 471.3 0 450 0C428.7 0 407.3 0 385.8 0C364.3 0 342.7 0 321.2 0C299.7 0 278.3 0 257 0C235.7 0 214.3 0 193 0C171.7 0 150.3 0 128.8 0C107.3 0 85.7 0 64.2 0C42.7 0 21.3 0 10.7 0L0 0Z" fill="#fc0036"></path></svg>