<svg id="visual" viewBox="0 0 900 600" width="900" height="600" xmlns="http://www.w3.org/2000/svg" xmlns:xlink="http://www.w3.org/1999/xlink" version="1.1"><rect x="0" y="0" width="900" height="600" fill="#FFFFFF"></rect><path d="M0 426L10.7 410.5C21.3 395 42.7 364 64.2 353C85.7 342 107.3 351 128.8 350.5C150.3 350 171.7 340 193 328.2C214.3 316.3 235.7 302.7 257 318.3C278.3 334 299.7 379 321.2 398.2C342.7 417.3 364.3 410.7 385.8 408.7C407.3 406.7 428.7 409.3 450 400.8C471.3 392.3 492.7 372.7 514.2 366C535.7 359.3 557.3 365.7 578.8 372.7C600.3 379.7 621.7 387.3 643 388.5C664.3 389.7 685.7 384.3 707 376C728.3 367.7 749.7 356.3 771.2 364.7C792.7 373 814.3 401 835.8 414.8C857.3 428.7 878.7 428.3 889.3 428.2L900 428L900 601L889.3 601C878.7 601 857.3 601 835.8 601C814.3 601 792.7 601 771.2 601C749.7 601 728.3 601 707 601C685.7 601 664.3 601 643 601C621.7 601 600.3 601 578.8 601C557.3 601 535.7 601 514.2 601C492.7 601 471.3 601 450 601C428.7 601 407.3 601 385.8 601C364.3 601 342.7 601 321.2 601C299.7 601 278.3 601 257 601C235.7 601 214.3 601 193 601C171.7 601 150.3 601 128.8 601C107.3 601 85.7 601 64.2 601C42.7 601 21.3 601 10.7 601L0 601Z" fill="#222222"></path><path d="M0 348L10.7 367C21.3 386 42.7 424 64.2 440.8C85.7 457.7 107.3 453.3 128.8 442.3C150.3 431.3 171.7 413.7 193 395.8C214.3 378 235.7 360 257 371C278.3 382 299.7 422 321.2 427C342.7 432 364.3 402 385.8 396.7C407.3 391.3 428.7 410.7 450 424.5C471.3 438.3 492.7 446.7 514.2 452C535.7 457.3 557.3 459.7 578.8 461C600.3 462.3 621.7 462.7 643 437.7C664.3 412.7 685.7 362.3 707 352.5C728.3 342.7 749.7 373.3 771.2 390.3C792.7 407.3 814.3 410.7 835.8 404.3C857.3 398 878.7 382 889.3 374L900 366L900 601L889.3 601C878.7 601 857.3 601 835.8 601C814.3 601 792.7 601 771.2 601C749.7 601 728.3 601 707 601C685.7 601 664.3 601 643 601C621.7 601 600.3 601 578.8 601C557.3 601 535.7 601 514.2 601C492.7 601 471.3 601 450 601C428.7 601 407.3 601 385.8 601C364.3 601 342.7 601 321.2 601C299.7 601 278.3 601 257 601C235.7 601 214.3 601 193 601C171.7 601 150.3 601 128.8 601C107.3 601 85.7 601 64.2 601C42.7 601 21.3 601 10.7 601L0 601Z" fill="#3d2725"></path><path d="M0 355L10.7 364.3C21.3 373.7 42.7 392.3 64.2 399.2C85.7 406 107.3 401 128.8 399.8C150.3 398.7 171.7 401.3 193 408C214.3 414.7 235.7 425.3 257 425.3C278.3 425.3 299.7 414.7 321.2 403.8C342.7 393 364.3 382 385.8 385.2C407.3 388.3 428.7 405.7 450 416.5C471.3 427.3 492.7 431.7 514.2 424C535.7 416.3 557.3 396.7 578.8 397C600.3 397.3 621.7 417.7 643 425C664.3 432.3 685.7 426.7 707 422.3C728.3 418 749.7 415 771.2 420.2C792.7 425.3 814.3 438.7 835.8 448.8C857.3 459 878.7 466 889.3 469.5L900 473L900 601L889.3 601C878.7 601 857.3 601 835.8 601C814.3 601 792.7 601 771.2 601C749.7 601 728.3 601 707 601C685.7 601 664.3 601 643 601C621.7 601 600.3 601 578.8 601C557.3 601 535.7 601 514.2 601C492.7 601 471.3 601 450 601C428.7 601 407.3 601 385.8 601C364.3 601 342.7 601 321.2 601C299.7 601 278.3 601 257 601C235.7 601 214.3 601 193 601C171.7 601 150.3 601 128.8 601C107.3 601 85.7 601 64.2 601C42.7 601 21.3 601 10.7 601L0 601Z" fill="#572a27"></path><path d="M0 381L10.7 386.8C21.3 392.7 42.7 404.3 64.2 403.8C85.7 403.3 107.3 390.7 128.8 395.3C150.3 400 171.7 422 193 424.2C214.3 426.3 235.7 408.7 257 416.5C278.3 424.3 299.7 457.7 321.2 457.5C342.7 457.3 364.3 423.7 385.8 411C407.3 398.3 428.7 406.7 450 409.2C471.3 411.7 492.7 408.3 514.2 414C535.7 419.7 557.3 434.3 578.8 434.8C600.3 435.3 621.7 421.7 643 413C664.3 404.3 685.7 400.7 707 402.8C728.3 405 749.7 413 771.2 409.8C792.7 406.7 814.3 392.3 835.8 397.5C857.3 402.7 878.7 427.3 889.3 439.7L900 452L900 601L889.3 601C878.7 601 857.3 601 835.8 601C814.3 601 792.7 601 771.2 601C749.7 601 728.3 601 707 601C685.7 601 664.3 601 643 601C621.7 601 600.3 601 578.8 601C557.3 601 535.7 601 514.2 601C492.7 601 471.3 601 450 601C428.7 601 407.3 601 385.8 601C364.3 601 342.7 601 321.2 601C299.7 601 278.3 601 257 601C235.7 601 214.3 601 193 601C171.7 601 150.3 601 128.8 601C107.3 601 85.7 601 64.2 601C42.7 601 21.3 601 10.7 601L0 601Z" fill="#712d2a"></path><path d="M0 415L10.7 422.8C21.3 430.7 42.7 446.3 64.2 457.8C85.7 469.3 107.3 476.7 128.8 476.5C150.3 476.3 171.7 468.7 193 467C214.3 465.3 235.7 469.7 257 464.7C278.3 459.7 299.7 445.3 321.2 434.3C342.7 423.3 364.3 415.7 385.8 424.2C407.3 432.7 428.7 457.3 450 468.8C471.3 480.3 492.7 478.7 514.2 467.5C535.7 456.3 557.3 435.7 578.8 432.7C600.3 429.7 621.7 444.3 643 458.8C664.3 473.3 685.7 487.7 707 485.3C728.3 483 749.7 464 771.2 457.5C792.7 451 814.3 457 835.8 461.5C857.3 466 878.7 469 889.3 470.5L900 472L900 601L889.3 601C878.7 601 857.3 601 835.8 601C814.3 601 792.7 601 771.2 601C749.7 601 728.3 601 707 601C685.7 601 664.3 601 643 601C621.7 601 600.3 601 578.8 601C557.3 601 535.7 601 514.2 601C492.7 601 471.3 601 450 601C428.7 601 407.3 601 385.8 601C364.3 601 342.7 601 321.2 601C299.7 601 278.3 601 257 601C235.7 601 214.3 601 193 601C171.7 601 150.3 601 128.8 601C107.3 601 85.7 601 64.2 601C42.7 601 21.3 601 10.7 601L0 601Z" fill="#8b2d2c"></path><path d="M0 492L10.7 490.8C21.3 489.7 42.7 487.3 64.2 493.8C85.7 500.3 107.3 515.7 128.8 509.3C150.3 503 171.7 475 193 461C214.3 447 235.7 447 257 448.7C278.3 450.3 299.7 453.7 321.2 455.3C342.7 457 364.3 457 385.8 459.7C407.3 462.3 428.7 467.7 450 480.3C471.3 493 492.7 513 514.2 509.8C535.7 506.7 557.3 480.3 578.8 468.7C600.3 457 621.7 460 643 462.7C664.3 465.3 685.7 467.7 707 476.8C728.3 486 749.7 502 771.2 503.3C792.7 504.7 814.3 491.3 835.8 480C857.3 468.7 878.7 459.3 889.3 454.7L900 450L900 601L889.3 601C878.7 601 857.3 601 835.8 601C814.3 601 792.7 601 771.2 601C749.7 601 728.3 601 707 601C685.7 601 664.3 601 643 601C621.7 601 600.3 601 578.8 601C557.3 601 535.7 601 514.2 601C492.7 601 471.3 601 450 601C428.7 601 407.3 601 385.8 601C364.3 601 342.7 601 321.2 601C299.7 601 278.3 601 257 601C235.7 601 214.3 601 193 601C171.7 601 150.3 601 128.8 601C107.3 601 85.7 601 64.2 601C42.7 601 21.3 601 10.7 601L0 601Z" fill="#a62b2e"></path><path d="M0 476L10.7 482.8C21.3 489.7 42.7 503.3 64.2 503.3C85.7 503.3 107.3 489.7 128.8 490.2C150.3 490.7 171.7 505.3 193 509.8C214.3 514.3 235.7 508.7 257 513.8C278.3 519 299.7 535 321.2 535.3C342.7 535.7 364.3 520.3 385.8 515.3C407.3 510.3 428.7 515.7 450 511.5C471.3 507.3 492.7 493.7 514.2 492.2C535.7 490.7 557.3 501.3 578.8 501.8C600.3 502.3 621.7 492.7 643 495.3C664.3 498 685.7 513 707 520.7C728.3 528.3 749.7 528.7 771.2 527.7C792.7 526.7 814.3 524.3 835.8 526.3C857.3 528.3 878.7 534.7 889.3 537.8L900 541L900 601L889.3 601C878.7 601 857.3 601 835.8 601C814.3 601 792.7 601 771.2 601C749.7 601 728.3 601 707 601C685.7 601 664.3 601 643 601C621.7 601 600.3 601 578.8 601C557.3 601 535.7 601 514.2 601C492.7 601 471.3 601 450 601C428.7 601 407.3 601 385.8 601C364.3 601 342.7 601 321.2 601C299.7 601 278.3 601 257 601C235.7 601 214.3 601 193 601C171.7 601 150.3 601 128.8 601C107.3 601 85.7 601 64.2 601C42.7 601 21.3 601 10.7 601L0 601Z" fill="#c22631"></path><path d="M0 544L10.7 540.2C21.3 536.3 42.7 528.7 64.2 523.5C85.7 518.3 107.3 515.7 128.8 514.8C150.3 514 171.7 515 193 515.5C214.3 516 235.7 516 257 514.8C278.3 513.7 299.7 511.3 321.2 514.5C342.7 517.7 364.3 526.3 385.8 531.8C407.3 537.3 428.7 539.7 450 538.2C471.3 536.7 492.7 531.3 514.2 532.7C535.7 534 557.3 542 578.8 547.8C600.3 553.7 621.7 557.3 643 556C664.3 554.7 685.7 548.3 707 542.3C728.3 536.3 749.7 530.7 771.2 525C792.7 519.3 814.3 513.7 835.8 520C857.3 526.3 878.7 544.7 889.3 553.8L900 563L900 601L889.3 601C878.7 601 857.3 601 835.8 601C814.3 601 792.7 601 771.2 601C749.7 601 728.3 601 707 601C685.7 601 664.3 601 643 601C621.7 601 600.3 601 578.8 601C557.3 601 535.7 601 514.2 601C492.7 601 471.3 601 450 601C428.7 601 407.3 601 385.8 601C364.3 601 342.7 601 321.2 601C299.7 601 278.3 601 257 601C235.7 601 214.3 601 193 601C171.7 601 150.3 601 128.8 601C107.3 601 85.7 601 64.2 601C42.7 601 21.3 601 10.7 601L0 601Z" fill="#df1c33"></path><path d="M0 560L10.7 563.8C21.3 567.7 42.7 575.3 64.2 573.2C85.7 571 107.3 559 128.8 558.8C150.3 558.7 171.7 570.3 193 570.5C214.3 570.7 235.7 559.3 257 554.8C278.3 550.3 299.7 552.7 321.2 559C342.7 565.3 364.3 575.7 385.8 578.7C407.3 581.7 428.7 577.3 450 577.2C471.3 577 492.7 581 514.2 580.7C535.7 580.3 557.3 575.7 578.8 571.7C600.3 567.7 621.7 564.3 643 565.5C664.3 566.7 685.7 572.3 707 576.3C728.3 580.3 749.7 582.7 771.2 576.3C792.7 570 814.3 555 835.8 550.2C857.3 545.3 878.7 550.7 889.3 553.3L900 556L900 601L889.3 601C878.7 601 857.3 601 835.8 601C814.3 601 792.7 601 771.2 601C749.7 601 728.3 601 707 601C685.7 601 664.3 601 643 601C621.7 601 600.3 601 578.8 601C557.3 601 535.7 601 514.2 601C492.7 601 471.3 601 450 601C428.7 601 407.3 601 385.8 601C364.3 601 342.7 601 321.2 601C299.7 601 278.3 601 257 601C235.7 601 214.3 601 193 601C171.7 601 150.3 601 128.8 601C107.3 601 85.7 601 64.2 601C42.7 601 21.3 601 10.7 601L0 601Z" fill="#fc0036"></path></svg>