<?xml version="1.0" encoding="UTF-8"?>
<svg version="1.1" xmlns="http://www.w3.org/2000/svg" width="2609" height="528">
<path d="M0 0 C1.24652344 -0.02835938 2.49304688 -0.05671875 3.77734375 -0.0859375 C18.86628148 -0.11747133 31.32862542 6.60546725 42.4375 16.5625 C45.63951921 19.98480554 48.05795811 23.89481123 50.5 27.875 C50.87729248 28.48738525 51.25458496 29.09977051 51.64331055 29.73071289 C57.04246183 38.9113239 58.30817628 47.13982404 58.25 57.75 C58.24427979 58.95205078 58.23855957 60.15410156 58.23266602 61.39257812 C57.97507408 74.15248553 54.85637068 82.61703665 46.8125 92.671875 C45.13633729 97.13342573 46.87027337 100.29274722 48.75 104.5 C50.21588281 107.57776989 51.79595845 110.57526091 53.4375 113.5625 C53.85322266 114.33271484 54.26894531 115.10292969 54.69726562 115.89648438 C55.7084648 117.767784 56.72831383 119.63440534 57.75 121.5 C61.04598933 121.5 63.16697543 121.25725513 66.26953125 120.44140625 C67.12740234 120.22033203 67.98527344 119.99925781 68.86914062 119.77148438 C69.75794922 119.53751953 70.64675781 119.30355469 71.5625 119.0625 C73.31810237 118.60199298 75.07460261 118.14489382 76.83203125 117.69140625 C77.60780518 117.48717041 78.3835791 117.28293457 79.18286133 117.07250977 C86.23815789 115.49907463 93.12962803 115.31183563 100.32421875 115.26171875 C101.44327103 115.253647 102.5623233 115.24557526 103.71528625 115.23725891 C106.08467074 115.22345895 108.45407477 115.21271861 110.82348633 115.20483398 C113.20961472 115.19338934 115.59571906 115.17305916 117.98168945 115.14331055 C136.73921063 114.90993345 153.89587571 116.54862524 171.75 122.5 C177.82216649 112.02947119 177.82216649 112.02947119 183.4375 101.3125 C183.75074219 100.67957031 184.06398438 100.04664063 184.38671875 99.39453125 C185.42156907 93.99773118 180.19600024 88.17733948 177.50390625 83.828125 C172.93023696 75.14935833 172.22912739 67.45066272 172.25 57.6875 C172.22164063 56.49318359 172.19328125 55.29886719 172.1640625 54.06835938 C172.13169376 39.20301766 179.01809429 26.73993465 188.8125 15.8125 C200.5506173 4.80463424 214.17982871 -0.03231904 230 0 C231.24652344 -0.02835938 232.49304688 -0.05671875 233.77734375 -0.0859375 C248.86628148 -0.11747133 261.32862542 6.60546725 272.4375 16.5625 C275.63951921 19.98480554 278.05795811 23.89481123 280.5 27.875 C280.87729248 28.48738525 281.25458496 29.09977051 281.64331055 29.73071289 C287.04227192 38.91100098 288.30890736 47.14004849 288.25 57.75 C288.24355469 58.95277588 288.23710937 60.15555176 288.23046875 61.39477539 C288.05032833 70.11677159 287.2824501 76.89117677 282.75 84.5 C282.13382812 85.55058594 281.51765625 86.60117188 280.8828125 87.68359375 C273.22653338 99.85320473 260.80975935 111.67181106 246.25463867 115.07250977 C243.85753794 115.48164549 241.63178467 115.63769774 239.203125 115.6640625 C237.97009644 115.67747681 237.97009644 115.67747681 236.7121582 115.69116211 C233.05535138 115.68585778 229.40525669 115.60646379 225.75 115.5 C225.5025 116.32371094 225.255 117.14742188 225 117.99609375 C223.55596979 122.04389092 221.71575272 125.74851239 219.75 129.5625 C217.56848779 133.81882003 215.42937189 138.01292822 213.75 142.5 C214.28367187 142.8403125 214.81734375 143.180625 215.3671875 143.53125 C237.60982501 158.000509 255.53823826 177.47683951 271.31298828 198.60058594 C274.65174685 203.01369189 278.21635627 207.24267647 281.75 211.5 C283.29235825 213.39527073 284.83401985 215.29110861 286.375 217.1875 C287.83289047 218.95869795 289.29119588 220.72955448 290.75 222.5 C291.35714844 223.25667969 291.96429688 224.01335937 292.58984375 224.79296875 C297.14075366 230.29327484 302.45928753 235.2776051 309.75 236.5 C312.90430892 235.92079493 312.90430892 235.92079493 315.75 234.5 C316.45394612 233.18596724 317.11345658 231.8479743 317.75 230.5 C319.01594497 228.71068817 320.31028049 226.94128621 321.625 225.1875 C324.90996123 220.73571206 324.90996123 220.73571206 327.75 216 C335.83641496 201.20433245 348.00518004 186.81236365 364.375 181.2734375 C373.87148019 179.04509675 383.67205067 177.58602533 392.671875 182.0859375 C396.87894432 184.94864257 400.46899279 188.93798557 402.75 193.5 C404.13724686 209.83088078 404.13724686 209.83088078 400 215.375 C394.28041921 221.5856559 388.15744018 223.54513638 380.0546875 225.03515625 C377.605099 225.48029036 377.605099 225.48029036 374.75 226.5 C374.0353419 227.80823776 373.37823418 229.14813313 372.75 230.5 C371.48405503 232.28931183 370.18971951 234.05871379 368.875 235.8125 C365.59003877 240.26428794 365.59003877 240.26428794 362.75 245 C354.65755216 259.80670588 342.5239459 274.0922868 326.1953125 279.7265625 C311.75404424 283.16802286 295.50626725 282.94238385 282.50390625 275.078125 C278.81320055 272.6905337 275.27514765 270.12442899 271.75 267.5 C270.76 266.84 269.77 266.18 268.75 265.5 C268.4096875 266.304375 268.4096875 266.304375 268.0625 267.125 C266.75 269.5 266.75 269.5 263.9375 272.125 C262.53928045 273.63340397 262.53928045 273.63340397 261.75 275.5 C262.08100998 279.06472284 263.43668946 282.1910183 264.75 285.5 C265.42868825 287.45419962 266.09504958 289.41271719 266.75 291.375 C267.26433594 292.88900391 267.26433594 292.88900391 267.7890625 294.43359375 C268.72422935 297.4177644 269.44176124 300.38703988 270.125 303.4375 C271.49943954 309.1920216 273.75814427 314.27273772 276.33984375 319.58203125 C277.44654681 321.87207886 278.41162483 324.1268374 279.3125 326.5 C281.35543601 330.76351864 283.36533478 333.59443093 287.91015625 335.3203125 C300.12738452 338.37945999 309.38477388 333.47087848 319.76757812 327.60546875 C339.46919056 316.61915088 363.59797284 305.2391511 386.75 308.5 C390.70848167 309.90677559 393.59646391 311.74662853 396.75 314.5 C397.389375 315.02207031 398.02875 315.54414063 398.6875 316.08203125 C402.94703785 320.45002955 403.38752588 325.14820407 403.5 331 C403.40404011 336.99266312 402.83325884 341.51849898 398.5 345.9921875 C397.9225 346.48976563 397.345 346.98734375 396.75 347.5 C396.255 347.99757813 395.76 348.49515625 395.25 349.0078125 C390.89835195 352.81550454 386.13277066 353.38725015 380.51953125 354.04296875 C379.27558594 354.19378906 378.03164063 354.34460938 376.75 354.5 C375.86038574 354.60304443 374.97077148 354.70608887 374.05419922 354.81225586 C366.36764483 355.86982703 360.14773487 358.19705172 353.25 361.6875 C351.74735596 362.42516602 351.74735596 362.42516602 350.21435547 363.17773438 C344.02407585 366.24922412 338.07075002 369.56136779 332.1640625 373.14453125 C328.50496349 375.1990739 324.76027106 376.33615682 320.75 377.5 C318.68603413 378.20405061 316.6236036 378.91261364 314.5625 379.625 C299.14587826 384.94961634 283.09589236 383.42080276 268.2734375 376.9921875 C247.13469581 366.34855878 236.15685497 346.62780186 228.78125 324.91796875 C227.34219937 320.47132675 226.01488276 315.99907487 224.75 311.5 C220.75571477 311.5 219.79397819 312.96262984 216.75 315.5 C207.93987106 321.6017904 198.81945126 326.62788932 189.0625 331.0625 C188.11834229 331.49191895 187.17418457 331.92133789 186.20141602 332.36376953 C182.03594954 334.21017355 178.2603943 335.7240343 173.75 336.5 C181.72482869 360.00274033 191.14319541 384.29130856 208.26953125 402.7109375 C209.75 404.5 209.75 404.5 210.69921875 406.6015625 C212.04753941 409.0375619 213.20209278 409.44632001 215.75 410.5 C216.54535156 410.9021875 217.34070313 411.304375 218.16015625 411.71875 C222.92093598 414.0185081 227.18630742 415.73938158 232.4375 416.5 C238.98855312 417.50137526 243.35421536 420.16896629 248.0625 424.75 C252.2383239 431.55504635 253.57279726 437.69211252 251.75 445.5 C249.82640436 452.06285573 246.06837106 455.50275296 240.75 459.5 C233.59526818 463.07736591 219.34839912 461.65725041 211.7578125 459.62890625 C208.59843234 458.45089776 205.71308124 457.10619438 202.75 455.5 C201.27080078 454.75556641 201.27080078 454.75556641 199.76171875 453.99609375 C183.14547134 445.05219923 171.42670552 431.37627661 160.8515625 416.08496094 C159.9362057 414.76791831 159.00172416 413.46419224 158.0625 412.1640625 C150.45333664 401.37062968 145.35671051 388.81611253 140 376.8125 C139.31031128 375.28206055 139.31031128 375.28206055 138.60668945 373.72070312 C135.81702648 367.38670047 133.56253432 361.04742884 131.63574219 354.39916992 C130.8166752 351.71823814 129.79110458 349.10276145 128.75 346.5 C119.84 346.5 110.93 346.5 101.75 346.5 C100.986875 348.459375 100.22375 350.41875 99.4375 352.4375 C99.00824219 353.53964844 98.57898438 354.64179688 98.13671875 355.77734375 C97.1480215 358.43150847 96.23641482 361.06132952 95.37109375 363.75390625 C83.92500065 398.42980677 63.05841109 436.88727903 29.75 454.5 C20.68473517 458.69765727 13.50845335 460.75801484 3.5625 460.9375 C2.03786133 461.00614258 2.03786133 461.00614258 0.48242188 461.07617188 C-5.96068253 461.17184095 -9.69833842 460.33430313 -14.62231445 456.09008789 C-15.4280188 455.30299438 -15.4280188 455.30299438 -16.25 454.5 C-16.7958374 453.98373047 -17.3416748 453.46746094 -17.90405273 452.93554688 C-21.27337891 449.34192491 -22.13247198 443.67100365 -22.390625 438.90234375 C-21.97726003 431.4732566 -19.15587813 426.32940765 -13.875 421.1875 C-8.89987802 417.9892073 -4.60099404 416.48321482 1.1875 415.5625 C9.1116188 414.23637861 14.32869785 411.47733314 19.75 405.5 C20.85293727 404.44142592 21.95721361 403.38424606 23.0625 402.328125 C26.67971572 398.71656044 29.47115353 394.8779697 32.1875 390.5625 C32.89616211 389.44355347 32.89616211 389.44355347 33.61914062 388.30200195 C49.19121997 363.71628132 49.19121997 363.71628132 56.75 336.5 C56.19675049 336.32259277 55.64350098 336.14518555 55.07348633 335.96240234 C38.38426301 330.51899561 24.2051118 322.38808035 9.75 312.5 C8.76 311.84 7.77 311.18 6.75 310.5 C4.4020254 316.07480004 2.38886549 321.65001251 0.625 327.4375 C-5.47519633 346.48615664 -16.45013215 365.2985619 -34.3515625 375.21875 C-53.64324321 384.61135827 -71.16647642 384.25795641 -91.0546875 377.5546875 C-98.95586058 374.55072713 -106.48944814 370.57300732 -113.890625 366.51171875 C-125.59057396 360.09659522 -136.29562573 355.09168189 -149.80786133 354.30712891 C-156.38974765 353.83988941 -161.60121952 351.90798226 -166.52734375 347.4296875 C-167.34912109 346.41261719 -167.34912109 346.41261719 -168.1875 345.375 C-168.75339844 344.69179688 -169.31929687 344.00859375 -169.90234375 343.3046875 C-173.98220284 337.84122402 -173.12225434 329.05716796 -172.25 322.5 C-169.78133139 316.14158418 -164.19205307 312.4520221 -158.25 309.5 C-142.27952833 304.17650944 -120.89588089 312.18547598 -106.60375977 319.22875977 C-103.85022621 320.60634987 -101.10896612 322.00705185 -98.37011719 323.41357422 C-94.81925205 325.23316771 -91.25375167 327.02330698 -87.6875 328.8125 C-87.04530518 329.13766602 -86.40311035 329.46283203 -85.74145508 329.79785156 C-76.59935396 334.39455872 -67.18834135 338.68349678 -56.8125 335.5 C-49.10544033 331.74440045 -46.46740075 322.81680396 -43.625 315.3125 C-43.03090332 313.77057983 -43.03090332 313.77057983 -42.42480469 312.19750977 C-40.1864227 306.28921154 -38.23989175 300.46621448 -36.94140625 294.2734375 C-35.76940577 289.57219263 -33.86358296 285.11159501 -32.04296875 280.62890625 C-31.1224842 276.99684653 -31.40424971 275.70373474 -33.25 272.5 C-34.89694485 270.81384218 -36.56126121 269.14429829 -38.25 267.5 C-38.25 266.84 -38.25 266.18 -38.25 265.5 C-39.10722656 266.10328125 -39.96445313 266.7065625 -40.84765625 267.328125 C-43.75405143 269.36613304 -46.6780711 271.37716235 -49.60986328 273.37841797 C-50.73395415 274.14711006 -51.84785328 274.93085899 -52.95263672 275.72705078 C-63.62355898 282.78793967 -79.01744484 282.83938304 -91.14672852 280.57202148 C-110.66460737 276.29672107 -122.94000283 260.58036741 -133.25 244.5 C-134.56169519 242.18791861 -135.81604202 239.8556003 -137.0546875 237.50390625 C-138.74778889 234.66547156 -140.85744337 232.31373162 -143.11328125 229.91015625 C-144.25 228.5 -144.25 228.5 -144.25 226.5 C-147.72421615 225.25284548 -151.13819788 224.2897495 -154.75 223.5625 C-162.37987393 221.8754927 -166.65730311 218.70836876 -171.25 212.5 C-172.86282972 209.27434056 -172.51787069 205.79059192 -172.5625 202.25 C-172.59150391 201.49847656 -172.62050781 200.74695313 -172.65039062 199.97265625 C-172.72142893 193.7103565 -170.85968571 190.28843131 -166.5390625 185.671875 C-160.54441132 180.54968479 -155.38213293 178.98912122 -147.49609375 179.203125 C-130.6069233 180.74774227 -118.26964837 187.85207846 -107.33984375 200.796875 C-101.75035818 208.02663952 -96.70773043 215.40346111 -92.4453125 223.49609375 C-90.75221111 226.33452844 -88.64255663 228.68626838 -86.38671875 231.08984375 C-85.25 232.5 -85.25 232.5 -85.25 234.5 C-80.81855413 236.39009964 -80.81855413 236.39009964 -76.1796875 235.91796875 C-71.72755535 233.79347223 -68.57915301 231.16206831 -65.25 227.5 C-63.98070146 226.26924849 -62.70970867 225.04024312 -61.4375 223.8125 C-56.97087057 219.34587057 -53.10706407 214.49380043 -49.25 209.5 C-48.69828125 208.79230469 -48.1465625 208.08460938 -47.578125 207.35546875 C-45.38638709 204.54273844 -43.19747128 201.7278416 -41.01904297 198.90478516 C-35.03525893 191.15758981 -28.90034508 183.69230868 -22.25 176.5 C-21.39792969 175.54480469 -20.54585937 174.58960938 -19.66796875 173.60546875 C-10.07515967 162.87012195 0.04387965 153.66522316 11.9140625 145.49609375 C14.72678372 143.6373765 14.72678372 143.6373765 16.75 141.5 C16.21890625 140.4378125 15.6878125 139.375625 15.140625 138.28125 C10.890625 129.78125 10.890625 129.78125 9.83007812 127.65234375 C9.09224861 126.18202164 8.34574376 124.71602922 7.59179688 123.25390625 C4.75 117.71064815 4.75 117.71064815 4.75 115.5 C3.60144531 115.55800781 2.45289063 115.61601562 1.26953125 115.67578125 C-15.9087306 116.28464983 -28.97861543 111.02601976 -41.9375 99.4375 C-52.94536576 87.6993827 -57.78231904 74.07017129 -57.75 58.25 C-57.77835937 57.00347656 -57.80671875 55.75695312 -57.8359375 54.47265625 C-57.86747133 39.38371852 -51.14453275 26.92137458 -41.1875 15.8125 C-29.4493827 4.80463424 -15.82017129 -0.03231904 0 0 Z " fill="#FB0036" transform="translate(172.25,62.5)"/>
<path d="M0 0 C1.13308594 -0.01160156 2.26617188 -0.02320313 3.43359375 -0.03515625 C17.41504519 0.01288997 30.95087184 3.42291019 41.47265625 13.0625 C45.81327326 18.01364696 49.12468418 23.7416604 52.5 29.375 C55.0572024 26.86782982 57.44881863 24.30492731 59.75 21.5625 C70.69204982 9.09365254 84.72867558 1.51178923 101.45166016 0.13134766 C122.39194658 -1.00081685 139.26498407 1.74985917 155.6875 15.5625 C168.62848281 27.71117774 172.80818628 43.62436969 173.67789078 60.9107933 C173.74332614 64.60863046 173.74786783 68.30116177 173.72705078 71.99951172 C173.72648479 73.40057365 173.72680688 74.80163617 173.72793579 76.20269775 C173.72850298 79.95800104 173.71685307 83.71317311 173.70278788 87.46844625 C173.69017318 91.4108521 173.68910164 95.3532619 173.68673706 99.29568481 C173.68055353 106.7396835 173.66418564 114.18362251 173.64403808 121.62759507 C173.62158098 130.11142582 173.61066113 138.59525963 173.60064721 147.07911277 C173.57981615 164.51111575 173.54317967 181.94303707 173.5 199.375 C156.01 199.375 138.52 199.375 120.5 199.375 C120.48018066 195.5195752 120.46036133 191.66415039 120.43994141 187.69189453 C120.37297052 174.93939975 120.29542983 162.1869875 120.21247292 149.43458748 C120.16244393 141.70445846 120.11600027 133.97433953 120.078125 126.24414062 C120.04508694 119.50308253 120.00519132 112.76210505 119.95720994 106.02113616 C119.93206183 102.45495287 119.91024673 98.88882224 119.89665604 95.32257462 C119.88132042 91.33228306 119.85066866 87.34224496 119.81884766 83.35205078 C119.81668747 82.18175827 119.81452728 81.01146576 119.81230164 79.80570984 C119.70876086 69.61093693 119.1137848 58.5214797 111.89453125 50.6171875 C104.74053709 44.07910012 96.99455835 43.83505067 87.70703125 44.07421875 C79.90287326 44.49573695 74.60768541 46.8445595 69.125 52.4375 C60.95078116 62.44472549 60.3567881 74.14993316 60.29467773 86.53076172 C60.28477814 87.7508342 60.27487854 88.97090668 60.26467896 90.22795105 C60.23856974 93.56012879 60.21667555 96.89228358 60.19667697 100.22450018 C60.17474331 103.71187708 60.14739088 107.19921144 60.12062073 110.68655396 C60.07079329 117.28432552 60.02581774 123.88212082 59.98259836 130.47993863 C59.93314072 137.99386855 59.87825433 145.50775578 59.82291877 153.02164435 C59.70925154 168.47272489 59.6030961 183.92384476 59.5 199.375 C42.34 199.375 25.18 199.375 7.5 199.375 C7.470271 193.78933105 7.470271 193.78933105 7.43994141 188.09082031 C7.37291267 175.7614254 7.29537217 163.43211515 7.21247292 151.10281754 C7.16248612 143.63057727 7.11604241 136.15834722 7.078125 128.68603516 C7.04504259 122.16835915 7.00512349 115.65076578 6.95720994 109.13318133 C6.93210527 105.68654204 6.91027806 102.23995642 6.89665604 98.79325104 C6.88126971 94.93270648 6.85061033 91.07236016 6.81884766 87.21191406 C6.81668747 86.08621506 6.81452728 84.96051605 6.81230164 83.80070496 C6.7006545 73.11687507 6.50186275 60.91717642 -1.10546875 52.625 C-7.15145559 47.07283549 -13.19254385 45.9848357 -21.1875 46 C-21.98043457 46.00016113 -22.77336914 46.00032227 -23.59033203 46.00048828 C-30.1405006 46.1271969 -35.60173081 47.45780549 -41.5 50.375 C-42.21414062 50.66632813 -42.92828125 50.95765625 -43.6640625 51.2578125 C-45.98737978 52.67157578 -46.47964941 53.88080967 -47.5 56.375 C-47.84160156 57.08398438 -48.18320313 57.79296875 -48.53515625 58.5234375 C-48.87417969 59.25820313 -49.21320312 59.99296875 -49.5625 60.75 C-49.90410156 61.47960937 -50.24570313 62.20921875 -50.59765625 62.9609375 C-52.30062467 67.51693093 -52.62500638 72.12592829 -52.65821838 76.9559021 C-52.67290161 78.58379166 -52.67290161 78.58379166 -52.68788147 80.24456787 C-52.69363693 81.41989075 -52.6993924 82.59521362 -52.70532227 83.80615234 C-52.71522186 85.05548553 -52.72512146 86.30481873 -52.73532104 87.5920105 C-52.76143425 91.00476431 -52.78332682 94.41749566 -52.80332303 97.83028746 C-52.82525351 101.40174542 -52.85260751 104.97316181 -52.87937927 108.54458618 C-52.92921098 115.30173013 -52.97418496 122.05889727 -53.01740164 128.81608641 C-53.06685561 136.51139073 -53.12174337 144.20665331 -53.17708123 151.90191722 C-53.29075502 167.72624099 -53.39690839 183.55060321 -53.5 199.375 C-70.99 199.375 -88.48 199.375 -106.5 199.375 C-106.5 135.025 -106.5 70.675 -106.5 4.375 C-89.67 4.375 -72.84 4.375 -55.5 4.375 C-55.005 15.76 -55.005 15.76 -54.5 27.375 C-53.18 25.704375 -51.86 24.03375 -50.5 22.3125 C-37.06005113 6.00898505 -20.99961877 -0.21501316 0 0 Z " fill="#FB0035" transform="translate(2435.5,322.625)"/>
<path d="M0 0 C1.13308594 -0.01160156 2.26617188 -0.02320313 3.43359375 -0.03515625 C17.41504519 0.01288997 30.95087184 3.42291019 41.47265625 13.0625 C45.81327326 18.01364696 49.12468418 23.7416604 52.5 29.375 C55.0572024 26.86782982 57.44881863 24.30492731 59.75 21.5625 C70.69204982 9.09365254 84.72867558 1.51178923 101.45166016 0.13134766 C122.39194658 -1.00081685 139.26498407 1.74985917 155.6875 15.5625 C168.62848281 27.71117774 172.80818628 43.62436969 173.67789078 60.9107933 C173.74332614 64.60863046 173.74786783 68.30116177 173.72705078 71.99951172 C173.72648479 73.40057365 173.72680688 74.80163617 173.72793579 76.20269775 C173.72850298 79.95800104 173.71685307 83.71317311 173.70278788 87.46844625 C173.69017318 91.4108521 173.68910164 95.3532619 173.68673706 99.29568481 C173.68055353 106.7396835 173.66418564 114.18362251 173.64403808 121.62759507 C173.62158098 130.11142582 173.61066113 138.59525963 173.60064721 147.07911277 C173.57981615 164.51111575 173.54317967 181.94303707 173.5 199.375 C156.01 199.375 138.52 199.375 120.5 199.375 C120.48018066 195.5195752 120.46036133 191.66415039 120.43994141 187.69189453 C120.37297052 174.93939975 120.29542983 162.1869875 120.21247292 149.43458748 C120.16244393 141.70445846 120.11600027 133.97433953 120.078125 126.24414062 C120.04508694 119.50308253 120.00519132 112.76210505 119.95720994 106.02113616 C119.93206183 102.45495287 119.91024673 98.88882224 119.89665604 95.32257462 C119.88132042 91.33228306 119.85066866 87.34224496 119.81884766 83.35205078 C119.81668747 82.18175827 119.81452728 81.01146576 119.81230164 79.80570984 C119.70876086 69.61093693 119.1137848 58.5214797 111.89453125 50.6171875 C104.74053709 44.07910012 96.99455835 43.83505067 87.70703125 44.07421875 C79.90287326 44.49573695 74.60768541 46.8445595 69.125 52.4375 C60.95078116 62.44472549 60.3567881 74.14993316 60.29467773 86.53076172 C60.28477814 87.7508342 60.27487854 88.97090668 60.26467896 90.22795105 C60.23856974 93.56012879 60.21667555 96.89228358 60.19667697 100.22450018 C60.17474331 103.71187708 60.14739088 107.19921144 60.12062073 110.68655396 C60.07079329 117.28432552 60.02581774 123.88212082 59.98259836 130.47993863 C59.93314072 137.99386855 59.87825433 145.50775578 59.82291877 153.02164435 C59.70925154 168.47272489 59.6030961 183.92384476 59.5 199.375 C42.34 199.375 25.18 199.375 7.5 199.375 C7.470271 193.78933105 7.470271 193.78933105 7.43994141 188.09082031 C7.37291267 175.7614254 7.29537217 163.43211515 7.21247292 151.10281754 C7.16248612 143.63057727 7.11604241 136.15834722 7.078125 128.68603516 C7.04504259 122.16835915 7.00512349 115.65076578 6.95720994 109.13318133 C6.93210527 105.68654204 6.91027806 102.23995642 6.89665604 98.79325104 C6.88126971 94.93270648 6.85061033 91.07236016 6.81884766 87.21191406 C6.81668747 86.08621506 6.81452728 84.96051605 6.81230164 83.80070496 C6.7006545 73.11687507 6.50186275 60.91717642 -1.10546875 52.625 C-7.15145559 47.07283549 -13.19254385 45.9848357 -21.1875 46 C-21.98043457 46.00016113 -22.77336914 46.00032227 -23.59033203 46.00048828 C-30.1405006 46.1271969 -35.60173081 47.45780549 -41.5 50.375 C-42.21414063 50.66632813 -42.92828125 50.95765625 -43.6640625 51.2578125 C-45.98737978 52.67157578 -46.47964941 53.88080967 -47.5 56.375 C-47.84160156 57.08398438 -48.18320312 57.79296875 -48.53515625 58.5234375 C-48.87417969 59.25820313 -49.21320312 59.99296875 -49.5625 60.75 C-49.90410156 61.47960937 -50.24570312 62.20921875 -50.59765625 62.9609375 C-52.30062467 67.51693093 -52.62500638 72.12592829 -52.65821838 76.9559021 C-52.67290161 78.58379166 -52.67290161 78.58379166 -52.68788147 80.24456787 C-52.69363693 81.41989075 -52.6993924 82.59521362 -52.70532227 83.80615234 C-52.71522186 85.05548553 -52.72512146 86.30481873 -52.73532104 87.5920105 C-52.76143425 91.00476431 -52.78332682 94.41749566 -52.80332303 97.83028746 C-52.82525351 101.40174542 -52.85260751 104.97316181 -52.87937927 108.54458618 C-52.92921098 115.30173013 -52.97418496 122.05889727 -53.01740164 128.81608641 C-53.06685561 136.51139073 -53.12174337 144.20665331 -53.17708123 151.90191722 C-53.29075502 167.72624099 -53.39690839 183.55060321 -53.5 199.375 C-70.99 199.375 -88.48 199.375 -106.5 199.375 C-106.5 135.025 -106.5 70.675 -106.5 4.375 C-89.67 4.375 -72.84 4.375 -55.5 4.375 C-55.005 15.76 -55.005 15.76 -54.5 27.375 C-53.18 25.704375 -51.86 24.03375 -50.5 22.3125 C-37.06005113 6.00898505 -20.99961877 -0.21501316 0 0 Z " fill="#1A1A1A" transform="translate(716.5,322.625)"/>
<path d="M0 0 C17.16 0 34.32 0 52 0 C52 17.82 52 35.64 52 54 C67.18 54 82.36 54 98 54 C98 36.18 98 18.36 98 0 C115.16 0 132.32 0 150 0 C150 17.82 150 35.64 150 54 C160.23 54 170.46 54 181 54 C181 65.88 181 77.76 181 90 C170.77 90 160.54 90 150 90 C150.10804046 104.51667774 150.2201209 119.03330878 150.33933926 133.5498991 C150.39459735 140.29032877 150.44806704 147.03076374 150.49731445 153.77124023 C150.54483453 160.27460831 150.59735449 166.77792482 150.65294075 173.28122902 C150.67334091 175.76394149 150.69205784 178.24666838 150.70907402 180.72940636 C150.73316965 184.20336496 150.76321744 187.67722442 150.79467773 191.15112305 C150.8004332 192.18042938 150.80618866 193.20973572 150.81211853 194.27023315 C150.82680176 195.69412102 150.82680176 195.69412102 150.84178162 197.14677429 C150.84823417 197.96809184 150.85468672 198.78940939 150.8613348 199.63561535 C151.00967335 202.16494067 151.44883583 204.5296886 152 207 C155.60870608 207.80929482 159.04461938 208.17814083 162.73828125 208.31640625 C163.70032471 208.35451416 164.66236816 208.39262207 165.65356445 208.43188477 C166.86101318 208.47498779 168.06846191 208.51809082 169.3125 208.5625 C173.169375 208.706875 177.02625 208.85125 181 209 C181 221.87 181 234.74 181 248 C177.2875 248.33 173.575 248.66 169.75 249 C168.6062793 249.10441406 167.46255859 249.20882812 166.28417969 249.31640625 C147.43884371 250.93668079 124.98078767 251.42822904 108.96875 239.73828125 C100.66430854 232.40598671 98.60733333 222.45028063 97.73353004 211.73115921 C97.63598579 208.46200898 97.62788704 205.20645348 97.65942383 201.93603516 C97.65876671 200.10417412 97.65876671 200.10417412 97.65809631 198.23530579 C97.65980891 194.93649427 97.6746895 191.63808168 97.69581819 188.33934832 C97.71477345 184.8734163 97.71635008 181.40747366 97.71989441 177.9414978 C97.72916022 171.40056146 97.75369859 164.85977838 97.78394288 158.31890905 C97.81765876 150.86288343 97.83401577 143.40684987 97.84902918 135.9507668 C97.88025418 120.63374108 97.93519634 105.31692606 98 90 C82.82 90 67.64 90 52 90 C52.10804046 104.51667774 52.2201209 119.03330878 52.33933926 133.5498991 C52.39459735 140.29032877 52.44806704 147.03076374 52.49731445 153.77124023 C52.54483453 160.27460831 52.59735449 166.77792482 52.65294075 173.28122902 C52.67334091 175.76394149 52.69205784 178.24666838 52.70907402 180.72940636 C52.73316965 184.20336496 52.76321744 187.67722442 52.79467773 191.15112305 C52.8004332 192.18042938 52.80618866 193.20973572 52.81211853 194.27023315 C52.82190735 195.21949173 52.83169617 196.16875031 52.84178162 197.14677429 C52.84823417 197.96809184 52.85468672 198.78940939 52.8613348 199.63561535 C53.00967335 202.16494067 53.44883583 204.5296886 54 207 C57.60870608 207.80929482 61.04461938 208.17814083 64.73828125 208.31640625 C65.70032471 208.35451416 66.66236816 208.39262207 67.65356445 208.43188477 C68.86101318 208.47498779 70.06846191 208.51809082 71.3125 208.5625 C75.169375 208.706875 79.02625 208.85125 83 209 C83 221.87 83 234.74 83 248 C79.2875 248.33 75.575 248.66 71.75 249 C70.6062793 249.10441406 69.46255859 249.20882812 68.28417969 249.31640625 C49.43884371 250.93668079 26.98078767 251.42822904 10.96875 239.73828125 C2.66430854 232.40598671 0.60733333 222.45028063 -0.26646996 211.73115921 C-0.36401421 208.46200898 -0.37211296 205.20645348 -0.34057617 201.93603516 C-0.34123329 200.10417412 -0.34123329 200.10417412 -0.34190369 198.23530579 C-0.34019109 194.93649427 -0.3253105 191.63808168 -0.30418181 188.33934832 C-0.28522655 184.8734163 -0.28364992 181.40747366 -0.28010559 177.9414978 C-0.27083978 171.40056146 -0.24630141 164.85977838 -0.21605712 158.31890905 C-0.18234124 150.86288343 -0.16598423 143.40684987 -0.15097082 135.9507668 C-0.11974582 120.63374108 -0.06480366 105.31692606 0 90 C-8.91 90 -17.82 90 -27 90 C-27 78.12 -27 66.24 -27 54 C-18.09 54 -9.18 54 0 54 C0 36.18 0 18.36 0 0 Z " fill="#1B1B1B" transform="translate(1691,16)"/>
<path d="M0 0 C18.48 0 36.96 0 56 0 C62.37709802 29.17667378 62.37709802 29.17667378 65.54305172 43.66428375 C67.25030111 51.47674522 68.95763315 59.2891886 70.6652832 67.1015625 C72.01802856 73.29027474 73.37057075 79.47903135 74.72287768 85.66783941 C75.43767852 88.93907951 76.15260547 92.21029192 76.86771584 95.48146439 C82.42752439 120.91460638 82.42752439 120.91460638 85 133 C87.09266732 124.92117549 88.91627256 116.82546055 90.52783203 108.63793945 C90.76074951 107.46736496 90.99366699 106.29679047 91.23364258 105.09074402 C91.86360938 101.92245878 92.4910452 98.75368471 93.11754847 95.58471322 C93.77646504 92.25617386 94.43936705 88.92842882 95.10202026 85.60063171 C97.06608203 75.733528 99.02414544 65.86523532 100.98071289 55.99664307 C102.50794729 48.29384837 104.0368842 40.59140043 105.57113159 32.88999909 C106.23011631 29.58126454 106.88750102 26.27222833 107.54126358 22.96245766 C108.26774784 19.28719083 108.99883065 15.61286708 109.73095703 11.9387207 C109.94706635 10.8390799 110.16317566 9.73943909 110.38583374 8.60647583 C110.58481262 7.6127446 110.7837915 6.61901337 110.98880005 5.59516907 C111.16096605 4.72675542 111.33313206 3.85834177 111.51051521 2.96361256 C112 1 112 1 113 0 C114.62674778 -0.09340434 116.25754051 -0.11745171 117.88696289 -0.11352539 C118.92796646 -0.11344986 119.96897003 -0.11337433 121.04151917 -0.11329651 C122.1737944 -0.10813522 123.30606964 -0.10297394 124.47265625 -0.09765625 C126.20182533 -0.09553383 126.20182533 -0.09553383 127.96592712 -0.09336853 C131.66481064 -0.08775005 135.36363464 -0.07519442 139.0625 -0.0625 C141.56315017 -0.05748738 144.06380129 -0.05292406 146.56445312 -0.04882812 C152.70965588 -0.03777462 158.85482369 -0.02101852 165 0 C166.47586975 3.45961526 167.49298584 6.78202134 168.26553345 10.46064758 C168.49546494 11.54453262 168.72539642 12.62841766 168.96229553 13.74514771 C169.20757492 14.92406586 169.45285431 16.10298401 169.70556641 17.31762695 C169.96920486 18.56681412 170.23284332 19.81600128 170.50447083 21.1030426 C171.22532668 24.51914994 171.9406038 27.93640388 172.65487337 31.35389352 C173.4030131 34.92868446 174.15629428 38.5023916 174.9090271 42.07621765 C176.33277226 48.83974153 177.7519013 55.60422526 179.16936815 62.36906737 C180.78370117 70.07232901 182.40318688 77.77450443 184.023103 85.47659361 C187.35446396 101.3165288 190.67936226 117.15781328 194 133 C196.16998955 127.13355728 197.37774194 121.08403562 198.68969727 114.98364258 C198.95172943 113.77814255 199.2137616 112.57264252 199.48373413 111.33061218 C200.05104765 108.71839314 200.6171547 106.1059476 201.18118477 103.49302101 C202.07298483 99.36177661 202.96951893 95.23156832 203.86668396 91.10148621 C205.28458336 84.57155827 206.6993843 78.04096363 208.11282629 71.51006955 C210.64603263 59.80536728 213.18297957 48.10147667 215.72336239 36.39832991 C216.61463547 32.29168401 217.50404736 28.18464068 218.39196599 24.07726824 C219.07329326 20.9272992 219.75668682 17.77777826 220.43969727 14.62817383 C220.68542984 13.48889435 220.93116241 12.34961487 221.18434143 11.17581177 C221.41000793 10.13700363 221.63567444 9.0981955 221.86817932 8.02790833 C222.06376718 7.12404798 222.25935503 6.22018763 222.46086979 5.28893757 C223 3 223 3 224 0 C241.82 0 259.64 0 278 0 C273.37508281 18.49966878 273.37508281 18.49966878 270.70332336 27.63803101 C270.50803858 28.30735027 270.31275379 28.97666954 270.11155128 29.66627121 C269.8088334 30.70351774 269.8088334 30.70351774 269.5 31.76171875 C269.06685261 33.25420702 268.63397392 34.74677329 268.20133972 36.2394104 C267.0443101 40.22867379 265.88373045 44.21689602 264.72246933 48.20492935 C263.49939 52.40771101 262.27974671 56.61148954 261.05981445 60.81518555 C259.04222165 67.76623346 257.02288126 74.71677133 255.00244141 81.66699219 C252.13575636 91.52909521 249.27568603 101.39310765 246.41796875 111.2578125 C246.19512333 112.02702089 245.97227791 112.79622929 245.7426796 113.58874702 C244.86032912 116.63440774 243.97799797 119.68007404 243.09571648 122.72575474 C241.65992432 127.68211624 240.22373625 132.63836281 238.78710938 137.59448242 C238.59409304 138.26037478 238.4010767 138.92626715 238.20221138 139.61233807 C237.25754262 142.87111408 236.31245995 146.12976907 235.36691284 149.38829041 C233.60878588 155.44737382 231.85277602 161.50703161 230.10433865 167.56891727 C229.26808065 170.46744439 228.4303619 173.3655483 227.59246254 176.2636013 C227.19270234 177.64769802 226.79363225 179.03199426 226.39528465 180.41649818 C225.84640671 182.32398623 225.29497159 184.2307379 224.7434082 186.13745117 C224.43007034 187.22402512 224.11673248 188.31059906 223.79389954 189.43009949 C223 192 223 192 222 194 C204.18 194 186.36 194 168 194 C153.645 127.175 153.645 127.175 139 59 C137.68140355 62.95578935 136.57683029 66.54820459 135.70323181 70.57417297 C135.46633133 71.65798752 135.22943085 72.74180206 134.98535156 73.85845947 C134.60576294 75.61908722 134.60576294 75.61908722 134.21850586 77.4152832 C133.8013462 79.33039965 133.3841862 81.24551603 132.96701348 83.16062963 C132.5213073 85.20978364 132.07723268 87.25928517 131.63361931 89.3088932 C130.70853785 93.58248228 129.77831881 97.85494295 128.8473053 102.12724304 C126.53716272 112.73212316 124.23432764 123.33858861 121.93182373 133.94512939 C120.13928626 142.20194626 118.34498881 150.45837305 116.54567057 158.71371526 C115.61940631 162.9644288 114.69672119 167.21589889 113.7767123 171.46797049 C113.34265481 173.47136773 112.90690914 175.47438854 112.47038269 177.47724915 C111.93712377 179.92394373 111.40656847 182.37122962 110.87911987 184.81918335 C110.64503922 185.88889877 110.41095856 186.9586142 110.16978455 188.06074524 C109.96682235 188.99594655 109.76386015 189.93114786 109.55474758 190.89468861 C109 193 109 193 108 194 C106.31198015 194.09353163 104.62004793 194.11744791 102.92944336 194.11352539 C101.84839828 194.11344986 100.76735321 194.11337433 99.65354919 194.11329651 C97.889515 194.10555458 97.889515 194.10555458 96.08984375 194.09765625 C94.89267227 194.0962413 93.69550079 194.09482635 92.46205139 194.09336853 C88.62050934 194.08774979 84.77902457 194.07519411 80.9375 194.0625 C78.34049563 194.05748741 75.74349035 194.05292409 73.14648438 194.04882812 C66.76430321 194.03777427 60.3821557 194.02101792 54 194 C41.57898905 150.01770523 29.18908786 106.0268382 16.85522461 62.02001953 C16.62732585 61.20696665 16.39942709 60.39391376 16.16462231 59.55622292 C15.05245706 55.58833833 13.9406648 51.62035007 12.82969666 47.65213013 C10.67548813 39.95996728 8.51251413 32.27041172 6.33447266 24.58496094 C5.70217805 22.3503355 5.07005228 20.11566237 4.4379673 17.88097763 C3.84578097 15.79072029 3.25077878 13.70127814 2.65568542 11.61184692 C2.12966484 9.75219803 2.12966484 9.75219803 1.59301758 7.85498047 C1.28399002 6.76748505 0.97496246 5.67998962 0.65657043 4.55953979 C0 2 0 2 0 0 Z " fill="#1A1A1A" transform="translate(968,68)"/>
<path d="M0 0 C20.05598686 15.96900439 32.15856684 41.19553136 35.89453125 66.3046875 C36.00539063 67.02914062 36.11625 67.75359375 36.23046875 68.5 C40.01005778 98.63456118 33.7906894 131.29256809 15.01953125 155.6796875 C13.67055732 157.24417798 12.29410562 158.78529529 10.89453125 160.3046875 C10.07339844 161.21734375 9.25226562 162.13 8.40625 163.0703125 C-1.33537897 173.38995419 -12.56796722 180.12901469 -26.10546875 184.3046875 C-27.35199219 184.69785156 -28.59851562 185.09101562 -29.8828125 185.49609375 C-55.35109639 192.55364219 -88.40129451 191.01895965 -112.10546875 179.3046875 C-113.01296875 178.88703125 -113.92046875 178.469375 -114.85546875 178.0390625 C-135.7806253 167.69537716 -149.23003771 146.58865148 -157.10546875 125.3046875 C-167.15143938 95.22936733 -165.30989969 60.72465715 -151.41796875 32.1796875 C-140.96105692 11.67113172 -125.1483078 -4.89686683 -103.10546875 -12.6953125 C-69.38173424 -22.78838128 -29.08443692 -21.30228796 0 0 Z M-95.11328125 37.375 C-108.99865504 54.14564627 -110.75928198 76.85745535 -108.88720703 97.73925781 C-107.07544443 112.68550323 -102.23049318 127.13547578 -90.71875 137.44140625 C-79.32847948 145.9706983 -66.90081654 146.57968976 -53.10546875 145.3046875 C-42.10776038 143.10514583 -33.61682071 136.2359062 -27.10546875 127.3046875 C-15.60594122 108.57510473 -15.11171934 83.26596157 -19.53710938 62.25537109 C-20.45736261 58.49310173 -21.67835135 54.90165997 -23.10546875 51.3046875 C-23.38003906 50.57507813 -23.65460937 49.84546875 -23.9375 49.09375 C-28.15221492 39.35564155 -36.53779287 31.63501175 -46.10546875 27.3046875 C-62.87381049 21.33212025 -82.63529346 24.50859236 -95.11328125 37.375 Z " fill="#FC0035" transform="translate(2282.10546875,339.6953125)"/>
<path d="M0 0 C20.05598686 15.96900439 32.15856684 41.19553136 35.89453125 66.3046875 C36.00539063 67.02914062 36.11625 67.75359375 36.23046875 68.5 C40.01005778 98.63456118 33.7906894 131.29256809 15.01953125 155.6796875 C13.67055732 157.24417798 12.29410562 158.78529529 10.89453125 160.3046875 C10.07339844 161.21734375 9.25226563 162.13 8.40625 163.0703125 C-1.33537897 173.38995419 -12.56796722 180.12901469 -26.10546875 184.3046875 C-27.35199219 184.69785156 -28.59851562 185.09101562 -29.8828125 185.49609375 C-55.35109639 192.55364219 -88.40129451 191.01895965 -112.10546875 179.3046875 C-113.01296875 178.88703125 -113.92046875 178.469375 -114.85546875 178.0390625 C-135.7806253 167.69537716 -149.23003771 146.58865148 -157.10546875 125.3046875 C-167.15143938 95.22936733 -165.30989969 60.72465715 -151.41796875 32.1796875 C-140.96105692 11.67113172 -125.1483078 -4.89686683 -103.10546875 -12.6953125 C-69.38173424 -22.78838128 -29.08443692 -21.30228796 0 0 Z M-95.11328125 37.375 C-108.99865504 54.14564627 -110.75928198 76.85745535 -108.88720703 97.73925781 C-107.07544443 112.68550323 -102.23049318 127.13547578 -90.71875 137.44140625 C-79.32847948 145.9706983 -66.90081654 146.57968976 -53.10546875 145.3046875 C-42.10776038 143.10514583 -33.61682071 136.2359062 -27.10546875 127.3046875 C-15.60594122 108.57510473 -15.11171934 83.26596157 -19.53710938 62.25537109 C-20.45736261 58.49310173 -21.67835135 54.90165997 -23.10546875 51.3046875 C-23.38003906 50.57507813 -23.65460938 49.84546875 -23.9375 49.09375 C-28.15221492 39.35564155 -36.53779287 31.63501175 -46.10546875 27.3046875 C-62.87381049 21.33212025 -82.63529346 24.50859236 -95.11328125 37.375 Z " fill="#1A1A1A" transform="translate(1063.10546875,339.6953125)"/>
<path d="M0 0 C0.68397858 0.00021149 1.36795715 0.00042297 2.07266235 0.00064087 C24.94411623 0.0711503 47.66234743 5.90317904 64.78515625 22.03515625 C90.41267566 49.10902596 93 79.79621268 93 116.375 C49.11 116.375 5.22 116.375 -40 116.375 C-36.45586615 139.38150698 -36.45586615 139.38150698 -22.8671875 157.15625 C-15.05944747 162.7060025 -7.15010465 164.9362786 2.375 164.8125 C3.61890503 164.80005249 3.61890503 164.80005249 4.88793945 164.78735352 C14.44757896 164.52489541 22.07010042 162.19612941 29.1322937 155.53305054 C31.15014017 153.2015198 32.17988477 150.98300826 33.46923828 148.19384766 C35.28440071 145.12181219 36.16630867 143.65902598 39.57928467 142.49627686 C42.82270546 142.21585603 45.92747062 142.249674 49.1796875 142.3984375 C50.93153854 142.41966171 50.93153854 142.41966171 52.71878052 142.4413147 C56.44015547 142.49718933 60.15545353 142.62261827 63.875 142.75 C66.40095455 142.80016952 68.92700373 142.84579532 71.453125 142.88671875 C77.63748141 142.99682706 83.81830673 143.16402887 90 143.375 C89.84926748 144.82087565 89.69573587 146.26645969 89.54101562 147.71191406 C89.45581665 148.51695374 89.37061768 149.32199341 89.28283691 150.15142822 C87.3122436 165.64359162 73.39491931 179.70018567 62 189.375 C39.71036174 206.49732086 11.21129485 209.02569088 -15.86328125 206.06152344 C-20.74815981 205.29996542 -25.3261051 204.00707357 -30 202.375 C-30.64662598 202.15537598 -31.29325195 201.93575195 -31.95947266 201.70947266 C-53.39095144 194.30720438 -71.65043457 180.13087286 -81.85546875 159.7421875 C-96.20780719 129.65616445 -96.38207744 89.04369686 -85.53344727 57.8203125 C-77.10298095 35.1032753 -62.1628012 17.80285996 -40 7.375 C-26.86730855 1.91661091 -14.15737488 -0.04034292 0 0 Z M-28 54.375 C-34.25028534 62.74255137 -37.29799774 72.16298644 -39 82.375 C-13.26 82.375 12.48 82.375 39 82.375 C37.89581376 70.22895138 35.90981603 61.28052155 27.38671875 52.3515625 C11.89413538 39.5213707 -14.25027683 38.63081149 -28 54.375 Z " fill="#1A1A1A" transform="translate(1664,321.625)"/>
<path d="M0 0 C0.68397858 0.00021149 1.36795715 0.00042297 2.07266235 0.00064087 C24.94411623 0.0711503 47.66234743 5.90317904 64.78515625 22.03515625 C90.41267566 49.10902596 93 79.79621268 93 116.375 C49.11 116.375 5.22 116.375 -40 116.375 C-36.45586615 139.38150698 -36.45586615 139.38150698 -22.8671875 157.15625 C-15.05944747 162.7060025 -7.15010465 164.9362786 2.375 164.8125 C3.61890503 164.80005249 3.61890503 164.80005249 4.88793945 164.78735352 C14.44757896 164.52489541 22.07010042 162.19612941 29.1322937 155.53305054 C31.15014017 153.2015198 32.17988477 150.98300826 33.46923828 148.19384766 C35.28440071 145.12181219 36.16630867 143.65902598 39.57928467 142.49627686 C42.82270546 142.21585603 45.92747062 142.249674 49.1796875 142.3984375 C50.93153854 142.41966171 50.93153854 142.41966171 52.71878052 142.4413147 C56.44015547 142.49718933 60.15545353 142.62261827 63.875 142.75 C66.40095455 142.80016952 68.92700373 142.84579532 71.453125 142.88671875 C77.63748141 142.99682706 83.81830673 143.16402887 90 143.375 C89.84926748 144.82087565 89.69573587 146.26645969 89.54101562 147.71191406 C89.45581665 148.51695374 89.37061768 149.32199341 89.28283691 150.15142822 C87.3122436 165.64359162 73.39491931 179.70018567 62 189.375 C39.71036174 206.49732086 11.21129485 209.02569088 -15.86328125 206.06152344 C-20.74815981 205.29996542 -25.3261051 204.00707357 -30 202.375 C-30.64662598 202.15537598 -31.29325195 201.93575195 -31.95947266 201.70947266 C-53.39095144 194.30720438 -71.65043457 180.13087286 -81.85546875 159.7421875 C-96.20780719 129.65616445 -96.38207744 89.04369686 -85.53344727 57.8203125 C-77.10298095 35.1032753 -62.1628012 17.80285996 -40 7.375 C-26.86730855 1.91661091 -14.15737488 -0.04034292 0 0 Z M-28 54.375 C-34.25028534 62.74255137 -37.29799774 72.16298644 -39 82.375 C-13.26 82.375 12.48 82.375 39 82.375 C37.89581376 70.22895138 35.90981603 61.28052155 27.38671875 52.3515625 C11.89413538 39.5213707 -14.25027683 38.63081149 -28 54.375 Z " fill="#1A1A1A" transform="translate(1957,61.625)"/>
<path d="M0 0 C0.68397858 0.00021149 1.36795715 0.00042297 2.07266235 0.00064087 C24.94411623 0.0711503 47.66234743 5.90317904 64.78515625 22.03515625 C90.41267566 49.10902596 93 79.79621268 93 116.375 C49.11 116.375 5.22 116.375 -40 116.375 C-36.45586615 139.38150698 -36.45586615 139.38150698 -22.8671875 157.15625 C-15.05944747 162.7060025 -7.15010465 164.9362786 2.375 164.8125 C3.61890503 164.80005249 3.61890503 164.80005249 4.88793945 164.78735352 C14.44757896 164.52489541 22.07010042 162.19612941 29.1322937 155.53305054 C31.15014017 153.2015198 32.17988477 150.98300826 33.46923828 148.19384766 C35.28440071 145.12181219 36.16630867 143.65902598 39.57928467 142.49627686 C42.82270546 142.21585603 45.92747062 142.249674 49.1796875 142.3984375 C50.93153854 142.41966171 50.93153854 142.41966171 52.71878052 142.4413147 C56.44015547 142.49718933 60.15545353 142.62261827 63.875 142.75 C66.40095455 142.80016952 68.92700373 142.84579532 71.453125 142.88671875 C77.63748141 142.99682706 83.81830673 143.16402887 90 143.375 C89.84926748 144.82087565 89.69573587 146.26645969 89.54101562 147.71191406 C89.45581665 148.51695374 89.37061768 149.32199341 89.28283691 150.15142822 C87.3122436 165.64359162 73.39491931 179.70018567 62 189.375 C39.71036174 206.49732086 11.21129485 209.02569088 -15.86328125 206.06152344 C-20.74815981 205.29996542 -25.3261051 204.00707357 -30 202.375 C-30.64662598 202.15537598 -31.29325195 201.93575195 -31.95947266 201.70947266 C-53.39095144 194.30720438 -71.65043457 180.13087286 -81.85546875 159.7421875 C-96.20780719 129.65616445 -96.38207744 89.04369686 -85.53344727 57.8203125 C-77.10298095 35.1032753 -62.1628012 17.80285996 -40 7.375 C-26.86730855 1.91661091 -14.15737488 -0.04034292 0 0 Z M-28 54.375 C-34.25028534 62.74255137 -37.29799774 72.16298644 -39 82.375 C-13.26 82.375 12.48 82.375 39 82.375 C37.89581376 70.22895138 35.90981603 61.28052155 27.38671875 52.3515625 C11.89413538 39.5213707 -14.25027683 38.63081149 -28 54.375 Z " fill="#1A1A1A" transform="translate(1582,61.625)"/>
<path d="M0 0 C0.68397858 0.00021149 1.36795715 0.00042297 2.07266235 0.00064087 C24.94411623 0.0711503 47.66234743 5.90317904 64.78515625 22.03515625 C90.41267566 49.10902596 93 79.79621268 93 116.375 C49.11 116.375 5.22 116.375 -40 116.375 C-36.45586615 139.38150698 -36.45586615 139.38150698 -22.8671875 157.15625 C-15.05944747 162.7060025 -7.15010465 164.9362786 2.375 164.8125 C3.61890503 164.80005249 3.61890503 164.80005249 4.88793945 164.78735352 C14.44757896 164.52489541 22.07010042 162.19612941 29.1322937 155.53305054 C31.15014017 153.2015198 32.17988477 150.98300826 33.46923828 148.19384766 C35.28440071 145.12181219 36.16630867 143.65902598 39.57928467 142.49627686 C42.82270546 142.21585603 45.92747062 142.249674 49.1796875 142.3984375 C50.93153854 142.41966171 50.93153854 142.41966171 52.71878052 142.4413147 C56.44015547 142.49718933 60.15545353 142.62261827 63.875 142.75 C66.40095455 142.80016952 68.92700373 142.84579532 71.453125 142.88671875 C77.63748141 142.99682706 83.81830673 143.16402887 90 143.375 C89.84926748 144.82087565 89.69573587 146.26645969 89.54101562 147.71191406 C89.45581665 148.51695374 89.37061768 149.32199341 89.28283691 150.15142822 C87.3122436 165.64359162 73.39491931 179.70018567 62 189.375 C39.71036174 206.49732086 11.21129485 209.02569088 -15.86328125 206.06152344 C-20.74815981 205.29996542 -25.3261051 204.00707357 -30 202.375 C-30.64662598 202.15537598 -31.29325195 201.93575195 -31.95947266 201.70947266 C-53.39095144 194.30720438 -71.65043457 180.13087286 -81.85546875 159.7421875 C-96.20780719 129.65616445 -96.38207744 89.04369686 -85.53344727 57.8203125 C-77.10298095 35.1032753 -62.1628012 17.80285996 -40 7.375 C-26.86730855 1.91661091 -14.15737488 -0.04034292 0 0 Z M-28 54.375 C-34.25028534 62.74255137 -37.29799774 72.16298644 -39 82.375 C-13.26 82.375 12.48 82.375 39 82.375 C37.89581376 70.22895138 35.90981603 61.28052155 27.38671875 52.3515625 C11.89413538 39.5213707 -14.25027683 38.63081149 -28 54.375 Z " fill="#1A1A1A" transform="translate(887,61.625)"/>
<path d="M0 0 C0.71768555 0.21430664 1.43537109 0.42861328 2.17480469 0.64941406 C18.92691627 5.84991142 32.34299191 14.89749881 40.8125 30.5625 C45.32918432 40.15257625 48 50.38341246 48 61 C30.84 61 13.68 61 -4 61 C-4.99 57.37 -5.98 53.74 -7 50 C-10.55506245 43.32079177 -15.03096335 40.74228759 -22 38 C-26.98062717 36.51378085 -32.03186158 36.77598936 -37.1875 36.75 C-38.19103516 36.729375 -39.19457031 36.70875 -40.22851562 36.6875 C-48.14239642 36.64630869 -55.97565825 37.40019802 -62 43.0625 C-62.556875 43.56910156 -63.11375 44.07570313 -63.6875 44.59765625 C-66.57154366 47.67911957 -66.28046639 50.72824788 -66.203125 54.75 C-65.90947102 58.00278253 -65.21344385 59.57904579 -63 62 C-56.08368097 66.02208001 -48.83672123 67.89132498 -41.125 69.875 C-39.79326866 70.22469046 -38.46164585 70.57479445 -37.13012695 70.92529297 C-28.52152003 73.17435874 -19.8727219 75.19179185 -11.1875 77.125 C10.01282222 81.9007389 32.27091199 88.75659053 45.375 107.5 C46.27856444 108.98296875 47.1550754 110.48285551 48 112 C48.38929688 112.68449219 48.77859375 113.36898437 49.1796875 114.07421875 C56.30689161 128.14654511 54.7791604 145.15668673 50.21875 159.75 C44.5501108 174.8663712 32.29189022 186.56367856 18 193.6875 C4.8509503 199.28485882 -9.43405127 202.12297062 -23.6796875 202.203125 C-24.49132355 202.20882507 -25.30295959 202.21452515 -26.13919067 202.22039795 C-27.85189537 202.22979185 -29.56461768 202.23635943 -31.27734375 202.24023438 C-33.83367673 202.24984465 -36.38917075 202.2808817 -38.9453125 202.3125 C-62.03201843 202.4614222 -87.71672034 198.52970207 -105.171875 181.91796875 C-118.37104342 168.07012325 -125 152.17118445 -125 133 C-107.51 133 -90.02 133 -72 133 C-71.01 136.96 -70.02 140.92 -69 145 C-64.68087291 153.06237056 -58.39235589 156.20691906 -50 159 C-44.02088973 160.40669903 -38.05090857 160.26290501 -31.9375 160.3125 C-30.77283203 160.34150391 -29.60816406 160.37050781 -28.40820312 160.40039062 C-19.68126869 160.46359405 -9.44996181 159.78484451 -2.8125 153.375 C0.52764529 148.9982579 0.50398202 145.37580822 0 140 C-1.79917972 135.5020507 -4.84401015 133.26158848 -9 131 C-12.14940125 129.72928701 -15.36728415 128.76600603 -18.625 127.8125 C-19.59993408 127.51988281 -20.57486816 127.22726562 -21.5793457 126.92578125 C-30.26425842 124.37978042 -39.03572705 122.22418667 -47.82516479 120.07714844 C-100.97072862 107.09301348 -100.97072862 107.09301348 -113.8203125 86.2578125 C-121.00356576 72.50973177 -120.47264944 56.33378331 -116.25390625 41.76171875 C-112.90707064 31.72121193 -107.40221509 24.45059558 -100 17 C-99.27296875 16.2265625 -98.5459375 15.453125 -97.796875 14.65625 C-74.40495656 -8.57653975 -29.8985484 -9.0480637 0 0 Z " fill="#1A1A1A" transform="translate(1423,326)"/>
<path d="M0 0 C0.71768555 0.21430664 1.43537109 0.42861328 2.17480469 0.64941406 C18.92691627 5.84991142 32.34299191 14.89749881 40.8125 30.5625 C45.32918432 40.15257625 48 50.38341246 48 61 C30.84 61 13.68 61 -4 61 C-4.99 57.37 -5.98 53.74 -7 50 C-10.55506245 43.32079177 -15.03096335 40.74228759 -22 38 C-26.98062717 36.51378085 -32.03186158 36.77598936 -37.1875 36.75 C-38.19103516 36.729375 -39.19457031 36.70875 -40.22851562 36.6875 C-48.14239642 36.64630869 -55.97565825 37.40019802 -62 43.0625 C-62.556875 43.56910156 -63.11375 44.07570312 -63.6875 44.59765625 C-66.57154366 47.67911957 -66.28046639 50.72824788 -66.203125 54.75 C-65.90947102 58.00278253 -65.21344385 59.57904579 -63 62 C-56.08368097 66.02208001 -48.83672123 67.89132498 -41.125 69.875 C-39.79326866 70.22469046 -38.46164585 70.57479445 -37.13012695 70.92529297 C-28.52152003 73.17435874 -19.8727219 75.19179185 -11.1875 77.125 C10.01282222 81.9007389 32.27091199 88.75659053 45.375 107.5 C46.27856444 108.98296875 47.1550754 110.48285551 48 112 C48.38929688 112.68449219 48.77859375 113.36898437 49.1796875 114.07421875 C56.30689161 128.14654511 54.7791604 145.15668673 50.21875 159.75 C44.5501108 174.8663712 32.29189022 186.56367856 18 193.6875 C4.8509503 199.28485882 -9.43405127 202.12297062 -23.6796875 202.203125 C-24.49132355 202.20882507 -25.30295959 202.21452515 -26.13919067 202.22039795 C-27.85189537 202.22979185 -29.56461768 202.23635943 -31.27734375 202.24023438 C-33.83367673 202.24984465 -36.38917075 202.2808817 -38.9453125 202.3125 C-62.03201843 202.4614222 -87.71672034 198.52970207 -105.171875 181.91796875 C-118.37104342 168.07012325 -125 152.17118445 -125 133 C-107.51 133 -90.02 133 -72 133 C-71.01 136.96 -70.02 140.92 -69 145 C-64.68087291 153.06237056 -58.39235589 156.20691906 -50 159 C-44.02088973 160.40669903 -38.05090857 160.26290501 -31.9375 160.3125 C-30.77283203 160.34150391 -29.60816406 160.37050781 -28.40820312 160.40039062 C-19.68126869 160.46359405 -9.44996181 159.78484451 -2.8125 153.375 C0.52764529 148.9982579 0.50398202 145.37580822 0 140 C-1.79917972 135.5020507 -4.84401015 133.26158848 -9 131 C-12.14940125 129.72928701 -15.36728415 128.76600603 -18.625 127.8125 C-19.59993408 127.51988281 -20.57486816 127.22726563 -21.5793457 126.92578125 C-30.26425842 124.37978042 -39.03572705 122.22418667 -47.82516479 120.07714844 C-100.97072862 107.09301348 -100.97072862 107.09301348 -113.8203125 86.2578125 C-121.00356576 72.50973177 -120.47264944 56.33378331 -116.25390625 41.76171875 C-112.90707064 31.72121193 -107.40221509 24.45059558 -100 17 C-99.27296875 16.2265625 -98.5459375 15.453125 -97.796875 14.65625 C-74.40495656 -8.57653975 -29.8985484 -9.0480637 0 0 Z " fill="#1A1A1A" transform="translate(1362,66)"/>
<path d="M0 0 C5.710774 4.27881873 9.70909843 8.83097164 13.1171875 15.0859375 C13.56835938 15.90707031 14.01953125 16.72820312 14.484375 17.57421875 C20.60010495 29.78758478 21.56831412 42.75107667 21.45776367 56.19116211 C21.45691453 57.63177981 21.45739812 59.07239879 21.45909119 60.51301575 C21.45994138 64.37162647 21.44247667 68.22994941 21.42136931 72.08849406 C21.40243703 76.14032525 21.40083918 80.19216522 21.39729309 84.24403381 C21.38802071 91.89344587 21.36347306 99.54272715 21.33324462 107.19208199 C21.29954965 115.91050419 21.2831769 124.6289331 21.26815832 133.34740436 C21.23691836 151.26033763 21.18196755 169.17309196 21.1171875 187.0859375 C3.6271875 187.0859375 -13.8628125 187.0859375 -31.8828125 187.0859375 C-31.8921582 183.18563721 -31.90150391 179.28533691 -31.91113281 175.2668457 C-31.94496674 162.35068461 -32.00035254 149.43469034 -32.06671524 136.51865864 C-32.10641149 128.69106546 -32.13885152 120.86357145 -32.15380859 113.03588867 C-32.16687422 106.20794664 -32.1939629 99.38022367 -32.23742557 92.55240506 C-32.25993094 88.94190385 -32.27572982 85.3316717 -32.27469635 81.72109413 C-32.27380267 77.6761433 -32.30423705 73.63197737 -32.33691406 69.5871582 C-32.3318837 68.40895004 -32.32685333 67.23074188 -32.32167053 66.01683044 C-32.4457817 56.0246016 -33.88940375 44.91298896 -41.16796875 37.44921875 C-50.74768293 29.83345509 -62.23036277 30.1985233 -73.8828125 31.0859375 C-77.66504183 31.87862029 -80.602913 33.06753781 -83.8828125 35.0859375 C-84.594375 35.4984375 -85.3059375 35.9109375 -86.0390625 36.3359375 C-95.64985634 42.6475036 -99.37339795 53.30188934 -101.8828125 64.0859375 C-102.88076384 70.59501654 -103.05195673 76.97217075 -103.08813477 83.55078125 C-103.09803436 84.67361008 -103.10793396 85.7964389 -103.11813354 86.95329285 C-103.14957552 90.64332004 -103.17443726 94.33336008 -103.19921875 98.0234375 C-103.21980323 100.59033532 -103.24080009 103.15722987 -103.26219177 105.72412109 C-103.3116379 111.7764219 -103.3569428 117.82874057 -103.40021414 123.88108826 C-103.45460789 131.45331158 -103.51538433 139.02548201 -103.57617188 146.59765625 C-103.68448686 160.09370921 -103.78320227 173.58981125 -103.8828125 187.0859375 C-120.7128125 187.0859375 -137.5428125 187.0859375 -154.8828125 187.0859375 C-154.8828125 122.7359375 -154.8828125 58.3859375 -154.8828125 -7.9140625 C-138.3828125 -7.9140625 -121.8828125 -7.9140625 -104.8828125 -7.9140625 C-104.3878125 3.4709375 -104.3878125 3.4709375 -103.8828125 15.0859375 C-102.2946875 13.1059375 -100.7065625 11.1259375 -99.0703125 9.0859375 C-74.89662717 -19.92537735 -30.08477473 -19.97498593 0 0 Z " fill="#1A1A1A" transform="translate(1266.8828125,334.9140625)"/>
<path d="M0 0 C5.710774 4.27881873 9.70909843 8.83097164 13.1171875 15.0859375 C13.56835938 15.90707031 14.01953125 16.72820312 14.484375 17.57421875 C20.60010495 29.78758478 21.56831412 42.75107667 21.45776367 56.19116211 C21.45691453 57.63177981 21.45739812 59.07239879 21.45909119 60.51301575 C21.45994138 64.37162647 21.44247667 68.22994941 21.42136931 72.08849406 C21.40243703 76.14032525 21.40083918 80.19216522 21.39729309 84.24403381 C21.38802071 91.89344587 21.36347306 99.54272715 21.33324462 107.19208199 C21.29954965 115.91050419 21.2831769 124.6289331 21.26815832 133.34740436 C21.23691836 151.26033763 21.18196755 169.17309196 21.1171875 187.0859375 C3.6271875 187.0859375 -13.8628125 187.0859375 -31.8828125 187.0859375 C-31.8921582 183.18563721 -31.90150391 179.28533691 -31.91113281 175.2668457 C-31.94496674 162.35068461 -32.00035254 149.43469034 -32.06671524 136.51865864 C-32.10641149 128.69106546 -32.13885152 120.86357145 -32.15380859 113.03588867 C-32.16687422 106.20794664 -32.1939629 99.38022367 -32.23742557 92.55240506 C-32.25993094 88.94190385 -32.27572982 85.3316717 -32.27469635 81.72109413 C-32.27380267 77.6761433 -32.30423705 73.63197737 -32.33691406 69.5871582 C-32.3318837 68.40895004 -32.32685333 67.23074188 -32.32167053 66.01683044 C-32.4457817 56.0246016 -33.88940375 44.91298896 -41.16796875 37.44921875 C-50.74768293 29.83345509 -62.23036277 30.1985233 -73.8828125 31.0859375 C-77.66504183 31.87862029 -80.602913 33.06753781 -83.8828125 35.0859375 C-84.594375 35.4984375 -85.3059375 35.9109375 -86.0390625 36.3359375 C-95.64985634 42.6475036 -99.37339795 53.30188934 -101.8828125 64.0859375 C-102.88076384 70.59501654 -103.05195673 76.97217075 -103.08813477 83.55078125 C-103.09803436 84.67361008 -103.10793396 85.7964389 -103.11813354 86.95329285 C-103.14957552 90.64332004 -103.17443726 94.33336008 -103.19921875 98.0234375 C-103.21980323 100.59033532 -103.24080009 103.15722987 -103.26219177 105.72412109 C-103.3116379 111.7764219 -103.3569428 117.82874057 -103.40021414 123.88108826 C-103.45460789 131.45331158 -103.51538433 139.02548201 -103.57617188 146.59765625 C-103.68448686 160.09370921 -103.78320227 173.58981125 -103.8828125 187.0859375 C-120.7128125 187.0859375 -137.5428125 187.0859375 -154.8828125 187.0859375 C-154.8828125 122.7359375 -154.8828125 58.3859375 -154.8828125 -7.9140625 C-138.3828125 -7.9140625 -121.8828125 -7.9140625 -104.8828125 -7.9140625 C-104.3878125 3.4709375 -104.3878125 3.4709375 -103.8828125 15.0859375 C-102.2946875 13.1059375 -100.7065625 11.1259375 -99.0703125 9.0859375 C-74.89662717 -19.92537735 -30.08477473 -19.97498593 0 0 Z " fill="#1A1A1A" transform="translate(766.8828125,74.9140625)"/>
<path d="M0 0 C2.23395728 -0.00958986 4.46694621 -0.04060246 6.70068359 -0.07226562 C29.87147657 -0.24455169 52.84908096 5.74403796 70.21240234 21.86523438 C83.14356555 35.63608351 89.89990234 55.51071082 89.89990234 74.24023438 C72.40990234 74.24023438 54.91990234 74.24023438 36.89990234 74.24023438 C35.57990234 69.95023437 34.25990234 65.66023438 32.89990234 61.24023438 C30.97026309 57.92368428 30.97026309 57.92368428 28.85302734 54.72851562 C27.89990234 53.24023438 27.89990234 53.24023438 27.89990234 51.24023438 C27.38427734 50.99273437 26.86865234 50.74523437 26.33740234 50.49023438 C23.71583758 49.14584219 21.2042303 47.66215917 18.68115234 46.14257812 C11.26792793 42.38719471 -0.24700655 43.23321797 -8.22509766 44.88867188 C-17.03443637 48.10958634 -23.28850932 54.27856412 -27.78759766 62.39648438 C-38.22849493 85.01842847 -38.1412586 116.97902406 -30.28759766 140.33789062 C-27.01072941 148.34681532 -21.32921873 156.52054369 -13.16479492 160.08520508 C-7.61634983 162.12688267 -2.54918236 162.75268071 3.33740234 162.67773438 C4.1670752 162.67088623 4.99674805 162.66403809 5.8515625 162.65698242 C13.61470679 162.45373085 19.33876707 160.83015094 25.64990234 156.24023438 C31.70760388 148.16329899 34.23372511 140.01621757 36.89990234 130.24023438 C54.38990234 130.24023438 71.87990234 130.24023438 89.89990234 130.24023438 C86.2258678 155.95847616 75.78299286 176.09871513 54.89990234 192.24023438 C38.50934825 203.59299912 20.38787193 206.66753425 0.83740234 206.61523438 C0.10856842 206.61502289 -0.6202655 206.6148114 -1.3711853 206.61459351 C-24.92310284 206.5463964 -46.30584621 200.92517701 -63.98291016 184.44335938 C-84.88241805 162.69553198 -90.67568239 131.66935821 -90.38330078 102.57495117 C-89.71215759 72.73195893 -82.55870413 43.13172557 -60.56201172 21.60839844 C-43.64101938 5.77251984 -22.65724342 0.05853324 0 0 Z " fill="#FC0035" transform="translate(2031.10009765625,321.759765625)"/>
<path d="M0 0 C17.16 0 34.32 0 52 0 C52 17.82 52 35.64 52 54 C62.23 54 72.46 54 83 54 C83 65.88 83 77.76 83 90 C72.77 90 62.54 90 52 90 C52.10804046 104.51667774 52.2201209 119.03330878 52.33933926 133.5498991 C52.39459735 140.29032877 52.44806704 147.03076374 52.49731445 153.77124023 C52.54483453 160.27460831 52.59735449 166.77792482 52.65294075 173.28122902 C52.67334091 175.76394149 52.69205784 178.24666838 52.70907402 180.72940636 C52.73316965 184.20336496 52.76321744 187.67722442 52.79467773 191.15112305 C52.8004332 192.18042938 52.80618866 193.20973572 52.81211853 194.27023315 C52.82190735 195.21949173 52.83169617 196.16875031 52.84178162 197.14677429 C52.84823417 197.96809184 52.85468672 198.78940939 52.8613348 199.63561535 C53.00967335 202.16494067 53.44883583 204.5296886 54 207 C57.60870608 207.80929482 61.04461938 208.17814083 64.73828125 208.31640625 C65.70032471 208.35451416 66.66236816 208.39262207 67.65356445 208.43188477 C68.86101318 208.47498779 70.06846191 208.51809082 71.3125 208.5625 C75.169375 208.706875 79.02625 208.85125 83 209 C83 221.87 83 234.74 83 248 C79.2875 248.33 75.575 248.66 71.75 249 C70.6062793 249.10441406 69.46255859 249.20882812 68.28417969 249.31640625 C49.43884371 250.93668079 26.98078767 251.42822904 10.96875 239.73828125 C2.66430854 232.40598671 0.60733333 222.45028063 -0.26646996 211.73115921 C-0.36401421 208.46200898 -0.37211296 205.20645348 -0.34057617 201.93603516 C-0.34123329 200.10417412 -0.34123329 200.10417412 -0.34190369 198.23530579 C-0.34019109 194.93649427 -0.3253105 191.63808168 -0.30418181 188.33934832 C-0.28522655 184.8734163 -0.28364992 181.40747366 -0.28010559 177.9414978 C-0.27083978 171.40056146 -0.24630141 164.85977838 -0.21605712 158.31890905 C-0.18234124 150.86288343 -0.16598423 143.40684987 -0.15097082 135.9507668 C-0.11974582 120.63374108 -0.06480366 105.31692606 0 90 C-8.91 90 -17.82 90 -27 90 C-27 78.12 -27 66.24 -27 54 C-18.09 54 -9.18 54 0 54 C0 36.18 0 18.36 0 0 Z " fill="#1B1B1B" transform="translate(1496,276)"/>
<path d="M0 0 C17.16 0 34.32 0 52 0 C52 86.46 52 172.92 52 262 C34.84 262 17.68 262 0 262 C0 175.54 0 89.08 0 0 Z " fill="#1A1A1A" transform="translate(1429,0)"/>
<path d="M0 0 C0 17.16 0 34.32 0 52 C-6.2803125 52.37125 -6.2803125 52.37125 -12.6875 52.75 C-26.59616123 53.72385451 -39.38609211 54.96293493 -50 65 C-58.90187772 76.05190751 -60.12471476 89.95661545 -60.20532227 103.61694336 C-60.21522186 104.6615976 -60.22512146 105.70625183 -60.23532104 106.78256226 C-60.26678226 110.21830009 -60.29163245 113.65405173 -60.31640625 117.08984375 C-60.33698906 119.47880909 -60.35798588 121.8677709 -60.37937927 124.25672913 C-60.43446282 130.53171927 -60.48393242 136.80674153 -60.53222656 143.08178711 C-60.59139485 150.61763253 -60.6575471 158.15341949 -60.72252655 165.68921661 C-60.82036338 177.12610858 -60.90933763 188.56303877 -61 200 C-78.16 200 -95.32 200 -113 200 C-113 135.65 -113 71.3 -113 5 C-96.83 5 -80.66 5 -64 5 C-63.67 14.9 -63.34 24.8 -63 35 C-60.36 31.04 -57.72 27.08 -55 23 C-52.05276653 19.52791673 -49.17611666 16.23396942 -46 13 C-45.42636719 12.41347656 -44.85273437 11.82695312 -44.26171875 11.22265625 C-31.95969371 -0.31599731 -16.15248834 0 0 0 Z " fill="#1A1A1A" transform="translate(1879,322)"/>
<path d="M0 0 C0 17.16 0 34.32 0 52 C-6.2803125 52.37125 -6.2803125 52.37125 -12.6875 52.75 C-26.59616123 53.72385451 -39.38609211 54.96293493 -50 65 C-58.90187772 76.05190751 -60.12471476 89.95661545 -60.20532227 103.61694336 C-60.21522186 104.6615976 -60.22512146 105.70625183 -60.23532104 106.78256226 C-60.26678226 110.21830009 -60.29163245 113.65405173 -60.31640625 117.08984375 C-60.33698906 119.47880909 -60.35798588 121.8677709 -60.37937927 124.25672913 C-60.43446282 130.53171927 -60.48393242 136.80674153 -60.53222656 143.08178711 C-60.59139485 150.61763253 -60.6575471 158.15341949 -60.72252655 165.68921661 C-60.82036338 177.12610858 -60.90933763 188.56303877 -61 200 C-78.16 200 -95.32 200 -113 200 C-113 135.65 -113 71.3 -113 5 C-96.83 5 -80.66 5 -64 5 C-63.67 14.9 -63.34 24.8 -63 35 C-60.36 31.04 -57.72 27.08 -55 23 C-52.05276653 19.52791673 -49.17611666 16.23396942 -46 13 C-45.42636719 12.41347656 -44.85273438 11.82695313 -44.26171875 11.22265625 C-31.95969371 -0.31599731 -16.15248834 0 0 0 Z " fill="#1A1A1A" transform="translate(2172,62)"/>
<path d="M0 0 C9.27029639 6.4247807 16.71563416 15.44582417 18.8359375 26.71484375 C19.65495351 39.51029057 18.97859031 50.53857569 10.5234375 60.875 C3.12797458 68.93810888 -5.70941455 75.2376837 -16.88671875 75.953125 C-29.48283164 76.27584134 -39.56530985 74.51879522 -49.1640625 65.71484375 C-57.11959777 58.00843798 -62.17053163 49.04016943 -62.45654297 37.87670898 C-62.57574548 24.63214698 -59.44138186 15.19812498 -50.09375 5.5859375 C-36.53285011 -7.24257929 -16.1728815 -9.60447295 0 0 Z " fill="#FDF9FA" transform="translate(424.1640625,85.28515625)"/>
<path d="M0 0 C9.27029639 6.4247807 16.71563416 15.44582417 18.8359375 26.71484375 C19.65495351 39.51029057 18.97859031 50.53857569 10.5234375 60.875 C3.12797458 68.93810888 -5.70941455 75.2376837 -16.88671875 75.953125 C-29.48283164 76.27584134 -39.56530985 74.51879522 -49.1640625 65.71484375 C-57.11959777 58.00843798 -62.17053163 49.04016943 -62.45654297 37.87670898 C-62.57574548 24.63214698 -59.44138186 15.19812498 -50.09375 5.5859375 C-36.53285011 -7.24257929 -16.1728815 -9.60447295 0 0 Z " fill="#FDF9FA" transform="translate(194.1640625,85.28515625)"/>
<path d="M0 0 C18.15 0 36.3 0 55 0 C55 17.49 55 34.98 55 53 C36.85 53 18.7 53 0 53 C0 35.51 0 18.02 0 0 Z " fill="#FB0035" transform="translate(1874,469)"/>
<path d="M0 0 C6.08574045 2.7714947 10.12905297 7.11424552 12.74609375 13.3125 C13.7327589 20.05853611 12.76261652 25.76351931 8.74609375 31.3125 C4.18376934 36.22481094 -0.45253436 38.36629446 -7.06640625 38.75 C-12.56533953 38.63526816 -16.09868608 36.8232763 -20.25390625 33.3125 C-25.30203166 27.99868378 -26.78743039 23.10229973 -26.63671875 15.87890625 C-25.81503378 10.37026312 -22.67779386 6.63220071 -18.69140625 2.9375 C-12.69910322 -1.05736869 -7.0516506 -2.15093675 0 0 Z " fill="#000000" transform="translate(409.25390625,101.6875)"/>
<path d="M0 0 C6.08574045 2.7714947 10.12905297 7.11424552 12.74609375 13.3125 C13.7327589 20.05853611 12.76261652 25.76351931 8.74609375 31.3125 C4.18376934 36.22481094 -0.45253436 38.36629446 -7.06640625 38.75 C-12.56533953 38.63526816 -16.09868608 36.8232763 -20.25390625 33.3125 C-25.30203166 27.99868378 -26.78743039 23.10229973 -26.63671875 15.87890625 C-25.81503378 10.37026312 -22.67779386 6.63220071 -18.69140625 2.9375 C-12.69910322 -1.05736869 -7.0516506 -2.15093675 0 0 Z " fill="#000000" transform="translate(179.25390625,101.6875)"/>
<path d="" fill="#FD0036" transform="translate(0,0)"/>
<path d="" fill="#FC0035" transform="translate(0,0)"/>
<path d="" fill="#FD0039" transform="translate(0,0)"/>
<path d="" fill="#FC0036" transform="translate(0,0)"/>
<path d="" fill="#FC0036" transform="translate(0,0)"/>
<path d="" fill="#FD0037" transform="translate(0,0)"/>
<path d="" fill="#FD0036" transform="translate(0,0)"/>
<path d="" fill="#FD0036" transform="translate(0,0)"/>
</svg>
