<svg id="svg" version="1.1" width="260" height="56" viewBox="0, 0, 400, 400">
    <g id="svgg">
        <path id="path0"
            d="M33.257 4.021 C 32.391 4.993,31.500 8.022,31.500 9.994 C 31.500 10.843,31.394 10.888,30.601 10.368 C 27.262 8.182,26.000 7.788,26.000 8.933 C 26.000 9.354,26.102 9.898,26.227 10.141 C 27.578 12.780,27.595 12.670,25.750 13.073 C 21.199 14.066,16.829 16.714,14.120 20.124 C 13.773 20.560,13.190 21.292,12.824 21.750 C 12.458 22.208,12.007 22.896,11.821 23.278 C 11.635 23.660,11.365 24.071,11.220 24.192 C 10.931 24.432,8.997 28.279,8.301 30.000 C 7.260 32.571,5.987 37.171,5.256 41.000 C 5.038 42.146,4.743 43.608,4.603 44.250 C 4.363 45.346,3.832 48.797,3.501 51.417 C 3.308 52.944,3.302 55.928,3.490 56.667 C 4.095 59.050,4.143 59.171,5.214 61.061 C 7.024 64.255,11.543 66.359,18.046 67.038 C 20.177 67.260,20.513 67.130,19.783 66.368 L 19.335 65.900 19.887 65.700 C 20.192 65.590,20.623 65.494,20.845 65.487 C 23.280 65.411,23.735 63.802,21.485 63.224 C 19.727 62.772,19.771 62.397,21.667 61.666 C 24.193 60.692,23.919 59.688,21.077 59.507 C 19.003 59.375,18.773 59.234,19.404 58.485 C 19.894 57.902,19.724 57.535,19.115 57.861 C 17.747 58.593,13.066 57.838,10.864 56.530 C 8.713 55.252,6.605 50.261,7.871 49.443 C 8.279 49.179,8.655 49.728,8.661 50.599 C 8.679 52.852,10.960 55.833,12.666 55.833 C 12.905 55.833,13.185 55.918,13.288 56.022 C 13.392 56.125,13.913 56.219,14.447 56.230 L 15.417 56.250 15.500 49.833 L 15.583 43.417 16.000 42.859 C 16.879 41.682,15.916 41.755,31.167 41.705 C 38.729 41.680,46.282 41.719,47.950 41.793 C 52.497 41.993,52.222 41.483,52.333 49.917 L 52.417 56.250 53.228 56.221 C 56.139 56.118,58.737 53.532,59.136 50.342 C 59.301 49.016,60.052 48.926,60.135 50.221 C 60.183 50.982,59.474 53.619,59.163 53.833 C 59.096 53.879,58.901 54.149,58.729 54.432 C 57.276 56.827,51.452 58.849,48.969 57.820 C 48.254 57.524,48.022 57.829,48.478 58.468 C 49.016 59.225,48.671 59.399,46.433 59.500 L 44.583 59.583 44.529 60.059 C 44.437 60.862,45.320 61.552,47.217 62.162 C 48.149 62.461,47.976 62.848,46.748 63.214 C 46.199 63.378,45.469 63.596,45.125 63.699 C 44.040 64.025,44.468 64.971,45.865 65.335 C 46.260 65.437,46.814 65.592,47.095 65.677 C 47.377 65.763,47.733 65.833,47.887 65.833 C 48.257 65.833,48.240 66.029,47.821 66.561 C 47.284 67.244,49.339 67.390,51.696 66.836 C 52.092 66.743,53.242 66.471,54.250 66.233 C 58.807 65.155,61.924 62.706,63.419 59.027 C 64.126 57.287,64.559 53.450,64.193 52.167 C 64.101 51.846,63.944 50.646,63.842 49.500 C 63.741 48.354,63.511 46.554,63.331 45.500 C 63.012 43.629,62.946 43.261,62.394 40.333 C 62.136 38.958,61.364 35.842,60.670 33.372 C 59.701 29.922,57.104 24.536,55.307 22.252 C 54.471 21.190,52.423 18.730,52.318 18.661 C 52.242 18.612,51.628 18.060,50.952 17.433 C 48.597 15.249,45.540 13.802,41.542 12.979 C 40.454 12.755,40.286 12.544,40.662 11.873 C 40.939 11.379,41.667 9.078,41.667 8.696 C 41.667 8.148,41.173 8.234,39.476 9.077 C 38.166 9.728,37.689 10.033,36.694 10.855 C 36.330 11.157,36.223 10.843,36.034 8.917 C 35.852 7.062,35.329 5.425,34.481 4.052 C 34.057 3.366,33.846 3.361,33.257 4.021 M26.691 28.327 C 29.895 29.318,32.249 32.395,32.375 35.760 C 32.472 38.334,30.042 38.397,29.777 35.827 C 29.076 29.004,19.257 29.004,18.556 35.827 C 18.294 38.379,15.870 38.337,15.951 35.781 C 16.118 30.453,21.495 26.722,26.691 28.327 M46.382 28.335 C 49.875 29.413,53.076 34.236,52.009 36.812 C 51.349 38.406,49.644 37.761,49.444 35.841 C 48.720 28.916,39.108 28.972,38.244 35.906 C 37.913 38.560,35.549 38.273,35.708 35.598 C 36.027 30.240,41.186 26.730,46.382 28.335 M301.500 53.156 C 294.156 54.707,290.281 60.576,290.267 70.167 C 290.255 78.685,293.493 84.152,299.750 86.178 C 302.479 87.062,309.136 86.805,311.741 85.716 C 315.922 83.968,319.833 78.654,319.833 74.723 L 319.833 74.167 315.428 74.167 L 311.024 74.167 310.842 75.042 C 310.182 78.218,308.764 79.417,305.667 79.417 C 301.143 79.417,299.271 76.654,299.285 70.000 C 299.299 63.147,301.296 60.083,305.750 60.083 C 308.544 60.083,309.881 61.082,310.713 63.790 L 311.083 64.997 315.563 64.998 L 320.042 65.000 319.934 65.539 C 317.989 75.261,322.555 84.152,330.583 86.275 C 332.277 86.723,339.713 86.726,341.333 86.280 C 352.740 83.139,356.359 66.425,347.683 56.963 C 342.632 51.455,329.789 51.326,324.411 56.730 C 322.459 58.690,320.359 62.491,320.179 64.385 C 320.146 64.742,319.833 64.254,319.833 63.845 C 319.833 61.893,318.314 58.237,316.835 56.630 C 313.993 53.543,307.083 51.977,301.500 53.156 M368.287 53.261 C 366.171 53.774,364.528 54.865,363.038 56.750 L 362.511 57.417 362.506 55.542 L 362.500 53.667 358.250 53.667 L 354.000 53.667 354.000 69.750 L 354.000 85.833 358.417 85.833 L 362.833 85.833 362.833 75.425 C 362.833 68.506,362.895 64.720,363.017 64.133 C 363.937 59.698,370.525 58.983,372.200 63.138 L 372.581 64.083 372.633 74.958 L 372.684 85.833 377.002 85.833 L 381.320 85.833 381.368 75.125 L 381.417 64.417 381.814 63.430 C 383.318 59.697,388.617 58.878,390.367 62.109 C 391.124 63.506,391.167 64.217,391.167 75.364 L 391.167 85.833 395.590 85.833 L 400.014 85.833 399.961 73.125 C 399.903 59.043,399.963 59.832,398.783 57.604 C 395.646 51.679,384.546 51.357,380.650 57.077 C 380.148 57.814,380.179 57.821,379.593 56.833 C 377.694 53.635,372.941 52.133,368.287 53.261 M339.021 60.624 C 342.513 62.343,344.036 67.306,342.946 73.417 C 342.015 78.635,336.454 81.227,332.032 78.503 C 327.320 75.601,327.348 63.913,332.074 60.972 C 333.944 59.808,337.048 59.652,339.021 60.624 M62.272 63.256 C 60.259 65.479,57.805 66.880,54.417 67.742 L 52.417 68.250 52.333 71.750 C 52.212 76.849,52.432 76.667,46.423 76.667 C 43.815 76.667,42.333 76.727,42.333 76.833 C 42.333 76.924,42.670 77.456,43.081 78.015 C 43.901 79.128,44.070 79.608,44.342 81.589 C 44.580 83.319,44.083 83.178,49.761 83.128 L 54.750 83.083 54.696 82.500 C 54.647 81.971,54.351 80.772,53.807 78.893 C 53.407 77.509,54.288 76.224,56.182 75.435 C 61.348 73.280,63.340 70.273,63.617 64.208 C 63.736 61.606,63.754 61.619,62.272 63.256 M4.000 63.213 C 4.000 69.150,6.049 72.808,10.618 75.030 C 14.252 76.797,14.436 77.190,13.325 80.809 C 13.146 81.392,13.000 82.123,13.000 82.434 L 13.000 83.000 17.921 83.000 L 22.842 83.000 22.985 82.622 C 23.064 82.414,23.215 81.687,23.321 81.006 C 23.544 79.567,23.950 78.566,24.660 77.705 C 25.527 76.653,25.570 76.667,21.447 76.667 C 15.289 76.667,15.335 76.702,15.334 71.907 C 15.333 68.102,15.464 68.345,13.095 67.763 C 9.498 66.880,6.690 65.156,4.725 62.625 C 4.169 61.909,4.000 62.046,4.000 63.213 M279.167 81.333 L 279.167 85.833 283.750 85.833 L 288.333 85.833 288.333 81.333 L 288.333 76.833 283.750 76.833 L 279.167 76.833 279.167 81.333 "
            stroke="none" fill="#f90433" fillRule="evenodd"></path>
        <path id="path1"
            d="M6.741 9.015 C 6.437 9.506,9.720 15.366,11.311 17.172 L 12.205 18.188 13.477 16.958 C 14.177 16.281,15.337 15.297,16.054 14.770 C 17.757 13.520,17.686 13.460,10.917 10.473 C 10.092 10.109,8.923 9.591,8.320 9.322 C 7.116 8.786,6.908 8.745,6.741 9.015 M58.167 9.815 C 54.866 11.244,50.782 13.237,50.533 13.541 C 50.344 13.770,50.496 13.942,51.690 14.851 C 52.446 15.427,53.573 16.422,54.194 17.063 L 55.323 18.228 55.680 17.906 C 57.634 16.140,61.627 8.820,60.625 8.837 C 60.510 8.839,59.404 9.279,58.167 9.815 M22.833 43.579 C 22.833 44.831,24.801 47.115,25.721 46.931 C 26.705 46.734,27.906 45.297,28.343 43.792 L 28.477 43.333 25.655 43.333 C 23.282 43.333,22.833 43.372,22.833 43.579 M30.833 43.640 C 30.833 44.286,31.868 46.023,32.545 46.513 C 33.907 47.500,35.133 47.021,36.076 45.135 C 37.026 43.236,37.152 43.333,33.750 43.333 C 31.029 43.333,30.833 43.354,30.833 43.640 M39.333 43.601 C 39.333 43.748,39.565 44.354,39.848 44.948 C 41.117 47.606,43.462 47.486,44.501 44.709 C 45.047 43.250,45.193 43.333,42.083 43.333 C 39.669 43.333,39.333 43.366,39.333 43.601 M19.833 53.049 C 19.833 53.168,20.224 53.561,20.702 53.924 C 21.179 54.287,23.936 56.459,26.827 58.753 C 32.871 63.547,33.046 63.667,33.971 63.667 C 34.737 63.667,34.642 63.734,41.927 58.047 C 44.133 56.325,46.402 54.560,46.969 54.125 C 48.782 52.734,49.790 52.833,33.917 52.833 C 22.503 52.833,19.833 52.874,19.833 53.049 M49.112 54.597 C 48.670 54.906,48.083 55.348,47.808 55.579 L 47.308 56.000 48.300 56.000 C 48.845 56.000,49.526 56.047,49.813 56.104 L 50.333 56.208 50.333 55.104 C 50.333 53.816,50.268 53.789,49.112 54.597 M17.667 55.083 L 17.667 56.000 19.093 56.000 C 20.764 56.000,20.767 55.942,19.148 54.904 C 17.696 53.974,17.667 53.978,17.667 55.083 M21.365 57.292 C 21.417 57.915,21.419 57.917,22.292 58.005 C 23.356 58.112,23.369 58.040,22.430 57.270 C 21.489 56.498,21.300 56.502,21.365 57.292 M45.307 57.372 C 44.348 58.131,44.416 58.256,45.667 58.039 C 46.385 57.915,46.419 57.883,46.468 57.288 C 46.534 56.498,46.397 56.508,45.307 57.372 M41.083 60.583 C 36.740 64.005,37.069 63.565,38.208 64.424 C 38.689 64.787,40.186 65.946,41.535 67.000 C 44.014 68.937,47.009 71.181,49.273 72.800 L 50.509 73.683 50.463 71.225 L 50.417 68.768 48.725 68.813 C 46.485 68.874,45.833 68.562,45.833 67.430 C 45.833 67.135,45.680 67.003,45.129 66.821 C 43.215 66.189,42.344 64.138,43.438 62.838 L 43.876 62.317 43.480 61.896 C 43.164 61.560,43.066 61.236,43.000 60.307 L 42.917 59.139 41.083 60.583 M24.833 60.165 C 24.833 60.756,24.715 61.249,24.467 61.690 C 24.115 62.316,24.112 62.362,24.383 62.822 C 25.260 64.307,24.423 66.099,22.541 66.768 C 21.698 67.067,21.667 67.100,21.667 67.702 C 21.667 68.638,21.104 68.870,18.989 68.802 C 17.031 68.740,17.166 68.573,17.169 71.055 C 17.173 73.800,17.126 73.778,19.360 72.037 C 20.216 71.370,21.554 70.353,22.333 69.778 C 26.887 66.414,30.048 63.920,30.135 63.622 C 30.169 63.505,26.984 60.812,26.000 60.126 C 25.771 59.966,25.415 59.713,25.208 59.564 L 24.833 59.293 24.833 60.165 M31.151 65.163 C 30.930 65.336,30.113 65.976,29.333 66.587 C 28.554 67.198,27.408 68.085,26.787 68.557 C 26.166 69.030,24.741 70.129,23.620 71.000 C 22.500 71.871,21.283 72.788,20.917 73.039 C 20.550 73.289,19.912 73.792,19.500 74.157 L 18.750 74.819 33.812 74.826 C 50.606 74.834,49.400 74.931,47.583 73.725 C 47.125 73.421,46.188 72.728,45.500 72.184 C 44.813 71.641,43.762 70.854,43.167 70.437 C 42.571 70.019,41.205 68.981,40.131 68.130 C 39.057 67.280,37.689 66.218,37.091 65.772 L 36.004 64.960 35.406 65.244 C 34.676 65.590,33.041 65.530,32.151 65.124 C 31.584 64.865,31.529 64.868,31.151 65.163 "
            stroke="none" fill="#f3f3f3" fillRule="evenodd"></path>
        <path id="path2"
            d="M32.583 0.242 C 31.522 0.729,29.882 3.345,29.576 5.042 C 29.444 5.770,29.455 5.765,28.868 5.338 C 26.924 3.925,23.496 4.282,22.998 5.950 C 22.856 6.426,22.686 6.870,22.620 6.936 C 22.452 7.104,22.470 8.128,22.643 8.235 C 22.721 8.284,22.829 8.682,22.881 9.120 C 22.933 9.558,23.024 10.041,23.083 10.192 C 23.169 10.413,23.031 10.502,22.387 10.640 C 21.945 10.735,21.331 10.919,21.023 11.049 C 20.525 11.259,20.396 11.253,19.857 10.995 C 19.523 10.835,18.087 10.143,16.667 9.457 C 12.725 7.555,11.643 7.061,10.917 6.833 C 10.550 6.718,10.164 6.556,10.060 6.473 C 9.955 6.390,9.183 6.100,8.344 5.828 C 3.064 4.116,1.470 6.972,4.573 12.583 C 4.877 13.133,5.182 13.771,5.249 14.000 C 5.317 14.229,5.551 14.655,5.769 14.947 C 5.988 15.239,6.243 15.680,6.337 15.927 C 6.638 16.719,8.054 18.707,8.977 19.633 L 9.870 20.530 9.352 21.064 C 9.067 21.359,8.833 21.674,8.833 21.766 C 8.833 21.857,8.489 22.454,8.069 23.091 C 7.648 23.729,7.048 24.794,6.735 25.458 C 6.423 26.123,5.904 27.227,5.583 27.912 C 5.263 28.597,5.000 29.300,5.000 29.475 C 5.000 29.650,4.889 29.884,4.754 29.996 C 4.619 30.108,4.460 30.474,4.399 30.808 C 4.339 31.143,4.236 31.492,4.171 31.583 C 4.105 31.675,3.958 32.125,3.844 32.583 C 3.729 33.042,3.578 33.567,3.507 33.750 C 3.263 34.379,2.390 37.978,1.748 41.000 C 1.207 43.543,0.540 48.037,0.393 50.131 C 0.332 50.982,0.220 51.717,0.142 51.765 C -0.052 51.885,-0.039 57.600,0.156 57.961 C 0.242 58.120,0.473 60.313,0.668 62.833 C 1.284 70.777,2.542 73.779,6.299 76.280 C 7.558 77.118,9.747 78.167,10.238 78.167 C 10.737 78.167,10.800 79.108,10.359 79.977 C 9.752 81.174,9.500 82.275,9.500 83.738 C 9.500 86.254,9.438 86.238,18.769 86.137 C 26.539 86.053,26.470 86.087,26.628 82.360 C 26.735 79.841,26.929 79.432,28.358 78.712 C 29.906 77.933,30.469 77.835,33.417 77.835 C 39.095 77.835,40.999 78.785,41.001 81.620 C 41.002 82.916,41.259 84.680,41.467 84.821 C 41.544 84.874,41.655 85.044,41.712 85.200 C 42.165 86.429,56.499 86.694,57.698 85.495 C 58.393 84.799,58.274 81.644,57.513 80.583 C 56.722 79.482,56.895 78.364,57.917 77.974 C 62.340 76.286,65.179 73.363,66.066 69.583 C 66.216 68.942,66.413 68.154,66.503 67.833 C 66.704 67.119,67.289 60.097,67.438 56.626 C 67.580 53.288,67.019 46.564,66.356 43.667 C 66.262 43.254,66.024 41.904,65.827 40.667 C 65.630 39.429,65.409 38.342,65.334 38.250 C 65.260 38.158,65.078 37.430,64.929 36.632 C 64.780 35.833,64.481 34.633,64.265 33.965 C 64.049 33.297,63.777 32.375,63.661 31.917 C 63.546 31.458,63.275 30.687,63.059 30.203 C 62.843 29.719,62.667 29.246,62.667 29.152 C 62.667 29.057,62.367 28.344,62.002 27.566 C 61.636 26.789,61.289 25.963,61.230 25.730 C 61.172 25.497,61.029 25.270,60.914 25.226 C 60.799 25.182,60.660 24.944,60.606 24.698 C 60.552 24.451,60.282 23.912,60.005 23.500 C 59.729 23.087,59.408 22.601,59.293 22.419 C 59.178 22.238,58.877 21.774,58.625 21.389 C 58.059 20.526,58.052 20.284,58.584 20.000 C 58.813 19.877,59.149 19.546,59.329 19.263 C 59.510 18.981,60.110 18.116,60.663 17.340 C 61.215 16.565,61.667 15.805,61.667 15.652 C 61.667 15.499,61.779 15.281,61.917 15.167 C 62.054 15.053,62.167 14.897,62.167 14.821 C 62.167 14.745,62.498 13.986,62.902 13.133 C 65.609 7.426,65.407 5.333,62.148 5.333 C 60.116 5.333,57.045 6.513,49.034 10.371 L 47.484 11.117 46.117 10.779 C 45.365 10.594,44.728 10.426,44.700 10.407 C 44.673 10.388,44.766 9.872,44.908 9.259 C 45.896 5.001,43.289 3.234,39.050 5.289 C 38.322 5.642,38.169 5.623,38.164 5.181 C 38.156 4.493,36.375 1.236,35.910 1.058 C 35.776 1.006,35.667 0.876,35.667 0.768 C 35.667 0.119,33.615 -0.231,32.583 0.242 M206.041 21.542 L 206.083 43.083 210.458 43.128 L 214.833 43.172 214.833 21.586 L 214.833 0.000 210.416 -0.000 L 205.999 -0.000 206.041 21.542 M249.167 6.917 L 249.167 11.333 246.917 11.333 L 244.667 11.333 244.667 14.347 L 244.667 17.361 243.832 16.113 C 241.048 11.950,237.554 10.281,231.583 10.261 C 221.450 10.226,216.167 16.048,216.167 27.250 C 216.167 35.160,218.520 39.658,224.140 42.488 C 227.809 44.336,234.867 44.498,238.772 42.824 C 242.219 41.346,246.167 36.634,246.167 33.996 L 246.167 33.500 241.791 33.500 L 237.416 33.500 237.013 34.260 C 234.743 38.539,227.940 38.047,225.770 33.447 C 225.356 32.568,224.833 30.452,224.833 29.652 C 224.833 29.341,225.112 29.333,235.750 29.333 L 246.667 29.333 246.665 27.292 C 246.663 23.678,246.160 20.748,245.167 18.557 L 244.688 17.500 246.919 17.500 L 249.151 17.500 249.204 28.208 C 249.253 38.257,249.276 38.972,249.575 39.807 C 250.152 41.418,251.870 42.885,253.583 43.229 C 255.234 43.561,257.896 43.656,260.292 43.469 L 262.833 43.271 262.833 40.059 L 262.833 36.847 261.065 36.847 C 257.571 36.847,257.833 37.688,257.833 26.475 L 257.833 17.500 261.500 17.500 L 265.167 17.500 265.170 27.458 C 265.172 33.070,265.245 37.910,265.337 38.547 C 265.921 42.586,269.151 44.027,276.375 43.473 L 279.000 43.272 279.000 40.053 L 279.000 36.833 277.108 36.833 C 273.677 36.833,274.000 37.909,274.000 26.479 L 274.000 17.500 276.500 17.500 L 279.000 17.500 279.000 14.417 L 279.000 11.333 276.503 11.333 L 274.006 11.333 273.961 6.958 L 273.917 2.583 269.542 2.539 L 265.167 2.494 265.167 6.914 L 265.167 11.333 261.500 11.333 L 257.833 11.333 257.833 6.917 L 257.833 2.500 253.500 2.500 L 249.167 2.500 249.167 6.917 M34.371 3.458 C 35.190 4.389,36.010 6.719,36.233 8.741 C 36.431 10.546,36.751 10.864,37.485 9.988 C 37.834 9.573,41.111 7.965,41.470 8.033 C 42.052 8.143,41.612 11.192,40.896 12.013 C 40.493 12.475,40.644 12.626,41.625 12.742 C 43.626 12.981,47.511 14.474,48.991 15.573 C 49.306 15.808,49.661 16.000,49.779 16.000 C 49.896 16.000,50.115 16.188,50.265 16.417 C 50.415 16.646,50.603 16.833,50.682 16.833 C 51.119 16.833,54.973 21.161,55.863 22.651 C 56.060 22.981,56.353 23.400,56.514 23.583 C 57.445 24.639,60.283 30.894,60.938 33.333 C 61.073 33.837,61.375 34.962,61.608 35.833 C 62.288 38.375,62.824 41.026,63.345 44.417 C 63.612 46.158,63.902 47.888,63.990 48.261 C 65.000 52.564,64.453 58.501,62.836 60.797 C 62.560 61.189,62.333 61.566,62.333 61.634 C 62.333 61.857,59.930 64.116,59.417 64.376 C 59.142 64.516,58.429 64.895,57.833 65.219 C 54.387 67.093,45.536 68.200,47.583 66.500 C 47.996 66.157,47.874 66.026,47.042 65.917 C 45.142 65.668,44.288 65.118,44.366 64.193 C 44.411 63.661,44.482 63.578,45.000 63.454 C 47.484 62.858,47.861 62.618,46.796 62.309 C 45.198 61.845,44.286 61.001,44.364 60.058 L 44.417 59.417 46.167 59.327 C 48.414 59.211,48.606 59.130,48.138 58.497 C 47.488 57.618,47.724 57.512,50.115 57.615 C 55.615 57.850,59.487 55.131,59.796 50.815 C 59.899 49.381,59.641 49.309,59.355 50.692 C 58.704 53.845,56.368 56.189,53.482 56.586 C 52.096 56.776,52.167 57.120,52.167 50.182 C 52.167 43.248,52.113 42.931,50.833 42.292 C 49.876 41.814,17.957 41.845,17.016 42.325 C 15.777 42.957,15.757 43.079,15.701 50.207 L 15.652 56.497 15.240 56.601 C 14.684 56.740,13.450 56.541,13.064 56.248 C 12.891 56.118,12.607 56.008,12.431 56.005 C 10.832 55.979,8.572 53.078,8.346 50.763 C 8.285 50.131,8.166 49.749,8.016 49.699 C 7.680 49.588,7.896 51.724,8.332 52.829 C 8.860 54.170,10.279 56.167,10.703 56.167 C 10.778 56.167,11.151 56.363,11.531 56.603 C 13.045 57.559,15.530 57.878,19.412 57.617 C 20.050 57.574,20.174 58.044,19.666 58.584 C 19.160 59.123,19.566 59.327,21.197 59.353 C 24.303 59.403,24.484 60.736,21.560 62.021 C 20.195 62.621,20.205 62.660,21.833 63.070 C 24.254 63.678,23.220 65.833,20.507 65.833 C 19.905 65.833,19.777 65.995,20.098 66.349 C 21.655 68.070,13.705 67.195,9.751 65.211 C 3.799 62.223,1.881 56.422,3.842 47.333 C 3.931 46.921,4.156 45.646,4.342 44.500 C 4.529 43.354,4.750 42.192,4.833 41.917 C 4.917 41.642,5.146 40.592,5.342 39.583 C 6.479 33.731,9.645 25.181,11.153 23.889 C 11.344 23.726,11.502 23.478,11.504 23.338 C 11.506 23.198,11.768 22.746,12.087 22.333 C 12.405 21.921,12.862 21.288,13.104 20.928 C 13.685 20.060,17.444 16.371,18.082 16.042 C 18.358 15.900,18.808 15.618,19.083 15.415 C 20.373 14.463,24.155 13.000,25.958 12.754 C 27.026 12.609,27.072 12.545,26.660 11.777 C 26.480 11.442,26.333 11.059,26.333 10.927 C 26.333 10.794,26.179 10.424,25.990 10.104 C 25.578 9.406,25.597 8.213,26.024 7.946 C 26.333 7.752,28.566 8.755,30.132 9.791 C 30.617 10.112,31.035 10.347,31.061 10.312 C 31.088 10.278,31.191 9.725,31.291 9.083 C 31.930 4.981,33.381 2.331,34.371 3.458 M8.679 9.271 C 9.451 9.603,10.158 9.931,10.250 10.000 C 10.342 10.069,10.604 10.180,10.833 10.245 C 11.063 10.311,11.775 10.614,12.417 10.917 C 13.058 11.221,14.333 11.823,15.250 12.255 C 17.407 13.271,18.066 13.914,17.268 14.220 C 16.810 14.396,14.898 15.939,13.669 17.125 C 12.150 18.590,12.246 18.586,11.052 17.240 C 9.847 15.880,9.337 15.061,7.755 11.942 C 5.943 8.369,6.026 8.129,8.679 9.271 M61.140 9.062 C 61.198 9.369,59.401 13.130,58.421 14.751 C 57.497 16.280,55.723 18.333,55.326 18.333 C 55.220 18.333,54.597 17.789,53.942 17.123 C 53.286 16.458,52.131 15.466,51.375 14.920 C 50.619 14.373,50.000 13.864,50.000 13.789 C 50.000 13.613,50.866 12.846,51.071 12.839 C 51.156 12.836,51.756 12.578,52.404 12.265 C 55.700 10.678,56.833 10.167,57.058 10.167 C 57.194 10.167,57.331 10.108,57.361 10.036 C 57.641 9.382,61.034 8.506,61.140 9.062 M86.000 10.552 C 83.679 11.189,81.710 12.570,80.618 14.325 L 80.250 14.917 80.167 12.917 L 80.083 10.917 75.958 10.872 L 71.833 10.828 71.833 26.997 L 71.833 43.167 76.074 43.167 L 80.314 43.167 80.376 33.125 C 80.445 22.083,80.417 22.390,81.510 20.340 C 83.238 17.097,88.199 16.183,90.669 18.653 C 91.928 19.912,91.888 19.507,91.991 32.000 L 92.083 43.083 96.548 43.128 L 101.012 43.172 100.960 30.711 C 100.902 16.868,100.954 17.532,99.748 15.061 C 97.845 11.163,91.435 9.060,86.000 10.552 M114.417 10.268 C 114.233 10.313,113.429 10.498,112.630 10.679 C 106.068 12.164,102.313 17.687,102.044 26.250 C 101.776 34.765,104.104 39.532,109.973 42.488 C 113.643 44.336,120.700 44.498,124.605 42.824 C 128.053 41.346,132.000 36.634,132.000 33.996 L 132.000 33.500 127.625 33.500 L 123.249 33.500 122.846 34.260 C 120.589 38.514,113.836 38.055,111.614 33.497 C 111.209 32.667,110.667 30.464,110.667 29.652 C 110.667 29.341,110.945 29.333,121.583 29.333 L 132.500 29.333 132.499 27.292 C 132.493 18.398,128.812 12.466,122.216 10.719 C 120.630 10.299,115.506 10.003,114.417 10.268 M185.487 10.327 C 178.654 11.558,174.708 16.520,175.673 22.667 C 176.309 26.725,179.014 28.545,187.583 30.683 C 194.775 32.476,195.312 32.760,195.128 34.673 C 194.962 36.404,193.417 37.167,190.074 37.167 C 185.745 37.167,183.333 35.604,183.333 32.800 C 183.333 32.510,183.107 32.497,178.958 32.539 L 174.583 32.583 174.633 33.667 C 174.796 37.208,177.073 40.724,180.278 42.385 C 184.380 44.510,194.158 44.560,198.438 42.477 C 205.220 39.177,206.114 29.947,200.036 25.980 C 197.999 24.650,196.705 24.225,189.417 22.494 C 184.394 21.301,183.223 20.350,184.463 18.471 C 186.432 15.484,194.333 16.713,194.333 20.005 C 194.333 21.045,194.127 21.000,198.874 21.000 L 203.213 21.000 203.100 20.042 C 202.497 14.908,199.653 11.834,194.417 10.656 C 192.607 10.248,187.055 10.044,185.487 10.327 M289.333 10.419 C 282.006 12.055,278.076 17.386,277.723 26.167 C 277.390 34.466,279.888 39.513,285.798 42.484 C 289.297 44.243,295.562 44.496,299.833 43.050 C 303.309 41.873,307.341 37.422,307.771 34.288 L 307.879 33.500 303.381 33.500 L 298.884 33.500 298.583 34.167 C 297.052 37.562,291.928 38.263,288.796 35.505 C 287.534 34.395,286.333 31.540,286.333 29.652 C 286.333 29.341,286.614 29.333,297.359 29.333 L 308.385 29.333 308.276 26.375 C 307.955 17.649,304.366 12.285,297.750 10.649 C 295.811 10.170,291.035 10.039,289.333 10.419 M324.250 10.410 C 321.626 11.087,320.606 11.865,318.690 14.648 L 317.843 15.879 317.796 13.398 L 317.750 10.917 313.667 10.917 L 309.583 10.917 309.541 27.044 L 309.498 43.172 313.874 43.128 L 318.250 43.083 318.344 33.750 C 318.447 23.598,318.442 23.654,319.435 21.828 C 320.545 19.790,323.022 18.857,327.375 18.838 L 328.333 18.833 328.333 14.500 L 328.333 10.167 326.708 10.181 C 325.815 10.189,324.708 10.292,324.250 10.410 M130.333 11.138 C 130.333 11.213,131.858 16.632,133.720 23.179 C 135.583 29.727,137.237 35.646,137.394 36.333 C 137.552 37.021,138.037 38.821,138.472 40.333 L 139.264 43.083 143.674 43.128 C 148.480 43.176,148.500 43.173,148.500 42.217 C 148.500 41.717,153.007 21.289,153.153 21.126 C 153.253 21.015,153.896 23.862,157.158 38.833 L 158.083 43.083 162.513 43.128 L 166.942 43.172 167.137 42.544 C 167.377 41.773,170.965 29.285,172.226 24.833 C 172.733 23.046,173.827 19.267,174.657 16.435 C 175.487 13.604,176.167 11.222,176.167 11.144 C 176.167 11.065,174.149 11.000,171.683 11.000 L 167.200 11.000 166.937 12.208 C 166.792 12.873,165.777 17.504,164.682 22.500 C 163.588 27.496,162.640 31.865,162.577 32.208 C 162.514 32.552,162.408 32.833,162.342 32.833 C 162.228 32.833,160.212 23.507,159.820 21.167 C 159.626 20.004,157.889 11.778,157.735 11.289 C 157.649 11.016,157.327 10.998,153.283 11.039 L 148.925 11.083 148.814 11.500 C 148.754 11.729,147.783 16.567,146.656 22.250 C 145.530 27.933,144.570 32.692,144.524 32.824 C 144.477 32.957,144.054 31.307,143.584 29.158 C 143.113 27.008,142.020 22.044,141.156 18.126 L 139.583 11.001 134.958 11.001 C 132.415 11.000,130.333 11.062,130.333 11.138 M120.028 17.960 C 121.799 18.833,123.139 20.706,123.425 22.708 L 123.538 23.500 117.269 23.500 C 110.099 23.500,110.746 23.679,111.316 21.848 C 112.541 17.912,116.419 16.181,120.028 17.960 M234.195 17.960 C 235.966 18.833,237.306 20.706,237.592 22.708 L 237.705 23.500 231.436 23.500 C 224.266 23.500,224.913 23.679,225.482 21.848 C 226.708 17.912,230.585 16.181,234.195 17.960 M295.928 18.000 C 297.647 18.877,298.761 20.540,299.087 22.715 L 299.205 23.500 292.914 23.500 L 286.624 23.500 286.735 22.792 C 287.428 18.369,291.992 15.991,295.928 18.000 M22.500 28.348 C 18.705 29.078,15.174 33.748,16.197 36.683 C 16.732 38.217,18.188 37.489,18.398 35.583 C 19.024 29.892,27.058 28.551,29.434 33.742 C 29.659 34.232,29.902 35.131,29.975 35.740 C 30.272 38.202,32.308 38.066,32.121 35.595 C 31.751 30.703,27.378 27.409,22.500 28.348 M41.875 28.419 C 38.365 29.182,34.809 34.056,35.821 36.717 C 36.334 38.066,37.839 37.511,38.038 35.899 C 38.909 28.857,48.350 28.503,49.558 35.468 C 49.823 36.991,49.889 37.133,50.433 37.339 C 52.812 38.244,52.153 33.146,49.558 30.562 C 47.498 28.511,44.850 27.773,41.875 28.419 M28.652 43.232 C 29.209 43.903,27.128 46.961,25.906 47.268 C 24.670 47.578,21.943 44.203,22.587 43.161 C 22.756 42.887,28.421 42.954,28.652 43.232 M36.800 43.200 C 37.644 44.044,35.320 47.333,33.880 47.333 C 32.387 47.333,30.084 44.492,30.563 43.243 C 30.687 42.921,36.480 42.880,36.800 43.200 M44.903 43.101 C 46.232 43.611,43.300 47.612,41.862 47.251 C 40.451 46.897,38.267 43.490,39.208 43.110 C 39.509 42.989,44.589 42.981,44.903 43.101 M217.167 49.667 L 217.167 54.167 214.917 54.167 L 212.667 54.167 212.667 57.167 L 212.667 60.167 214.911 60.167 L 217.155 60.167 217.203 71.125 L 217.250 82.083 217.633 82.917 C 218.949 85.778,222.728 86.823,229.500 86.199 L 230.750 86.083 230.795 82.799 L 230.840 79.514 229.069 79.514 C 225.560 79.514,225.833 80.381,225.833 69.242 L 225.833 60.167 228.333 60.167 L 230.833 60.167 230.833 57.167 L 230.833 54.167 228.333 54.167 L 225.833 54.167 225.833 49.667 L 225.833 45.167 221.500 45.167 L 217.167 45.167 217.167 49.667 M48.238 52.814 C 48.328 52.960,47.754 53.815,47.423 54.028 C 47.328 54.089,45.890 55.214,44.228 56.528 C 34.165 64.482,34.483 64.283,32.939 63.600 C 32.119 63.238,30.630 62.116,25.191 57.764 C 24.398 57.130,23.477 56.380,23.142 56.097 C 22.392 55.462,21.677 54.887,20.542 54.005 C 19.720 53.367,19.516 53.039,19.778 52.778 C 19.947 52.608,48.133 52.644,48.238 52.814 M132.417 52.949 C 127.875 53.548,124.673 55.536,122.222 59.278 C 116.222 68.439,119.674 82.474,128.737 85.763 C 131.454 86.749,138.306 87.023,141.167 86.260 C 152.266 83.298,155.830 67.428,147.692 57.196 C 145.122 53.965,138.557 52.140,132.417 52.949 M168.397 53.153 C 166.029 53.793,164.209 55.041,162.694 57.064 L 162.333 57.545 162.333 55.606 L 162.333 53.667 158.167 53.667 L 154.000 53.667 154.000 69.750 L 154.000 85.833 158.241 85.833 L 162.481 85.833 162.537 75.792 C 162.600 64.557,162.572 64.833,163.870 62.672 C 165.918 59.262,171.773 58.990,173.448 62.227 C 174.139 63.563,174.163 63.984,174.165 75.125 L 174.167 85.833 178.592 85.833 L 183.017 85.833 182.960 73.125 C 182.896 59.077,182.934 59.591,181.801 57.465 C 179.902 53.902,173.384 51.805,168.397 53.153 M195.750 52.951 C 189.105 53.849,184.724 59.151,185.655 65.167 C 186.309 69.392,188.845 71.139,197.500 73.326 C 204.494 75.093,205.324 75.497,205.331 77.141 C 205.339 78.888,203.489 79.833,200.061 79.833 C 195.772 79.833,193.500 78.380,193.500 75.636 C 193.500 75.351,193.239 75.333,188.984 75.333 L 184.467 75.333 184.581 76.375 C 185.110 81.226,187.985 84.581,192.923 86.110 C 195.037 86.764,203.508 86.827,205.750 86.205 C 211.462 84.620,214.616 80.243,213.993 74.763 C 213.421 69.725,209.848 67.362,199.625 65.261 C 195.640 64.442,194.642 63.980,194.327 62.811 C 193.750 60.665,195.267 59.604,198.928 59.591 C 202.379 59.580,204.079 60.609,204.426 62.921 L 204.538 63.667 208.875 63.667 L 213.213 63.667 213.100 62.708 C 212.313 56.011,207.663 52.777,198.937 52.858 C 197.459 52.872,196.025 52.914,195.750 52.951 M241.250 53.072 C 233.546 54.846,229.500 60.676,229.500 70.000 C 229.500 80.856,234.968 86.583,245.333 86.583 L 249.250 86.583 250.833 86.033 C 255.228 84.506,259.667 79.796,259.667 76.660 L 259.667 76.167 255.291 76.167 L 250.916 76.167 250.513 76.927 C 248.769 80.213,243.782 80.878,240.695 78.235 C 239.568 77.271,238.667 75.192,238.406 72.958 L 238.295 72.000 249.256 72.000 L 260.217 72.000 260.122 69.042 C 259.838 60.181,256.438 55.237,249.250 53.234 C 247.876 52.851,242.667 52.746,241.250 53.072 M276.021 53.096 C 273.780 53.699,272.121 54.972,270.514 57.321 L 269.667 58.559 269.667 56.113 L 269.667 53.667 265.583 53.667 L 261.500 53.667 261.500 69.750 L 261.500 85.833 265.824 85.833 L 270.149 85.833 270.204 76.458 C 270.258 67.251,270.265 67.063,270.634 65.965 C 271.630 62.998,273.621 61.809,277.991 61.571 L 280.167 61.453 280.167 57.143 L 280.167 52.833 278.542 52.844 C 277.648 52.850,276.513 52.964,276.021 53.096 M85.700 53.337 C 83.421 53.934,81.607 55.202,80.471 56.991 L 80.000 57.732 80.000 55.699 L 80.000 53.667 75.750 53.667 L 71.500 53.667 71.500 69.750 L 71.500 85.833 75.911 85.833 L 80.322 85.833 80.371 74.958 C 80.427 62.719,80.383 63.156,81.692 61.847 C 83.468 60.071,87.178 59.966,88.857 61.644 C 90.271 63.058,90.232 62.687,90.294 75.042 L 90.349 85.833 94.675 85.833 L 99.000 85.833 99.000 75.535 C 99.000 64.589,99.022 64.248,99.818 62.703 C 101.493 59.452,106.580 59.222,108.164 62.327 C 108.778 63.531,108.833 64.613,108.833 75.364 L 108.833 85.833 113.259 85.833 L 117.684 85.833 117.623 73.458 C 117.555 59.774,117.583 60.146,116.453 57.842 C 113.412 51.644,102.367 51.226,98.259 57.153 L 97.784 57.840 97.434 57.139 C 95.734 53.740,90.561 52.064,85.700 53.337 M50.467 53.867 C 50.675 54.075,50.744 55.772,50.564 56.242 C 50.476 56.469,50.275 56.494,49.246 56.400 C 47.374 56.231,46.833 56.382,46.833 57.077 C 46.833 57.898,46.682 58.167,46.221 58.167 C 45.996 58.167,45.685 58.234,45.531 58.317 C 44.288 58.981,43.432 58.205,44.616 57.488 C 44.965 57.276,45.511 56.893,45.830 56.635 C 46.148 56.377,46.460 56.167,46.522 56.167 C 46.584 56.167,46.886 55.946,47.192 55.676 C 48.782 54.278,50.132 53.532,50.467 53.867 M19.287 54.680 C 21.291 55.988,21.251 56.288,19.062 56.346 C 17.361 56.391,17.333 56.371,17.333 55.101 C 17.333 53.520,17.465 53.491,19.287 54.680 M22.750 57.204 C 23.877 58.103,24.109 58.633,23.329 58.527 C 23.102 58.496,22.845 58.403,22.758 58.319 C 22.671 58.235,22.286 58.167,21.901 58.167 C 21.165 58.167,21.000 57.999,21.000 57.250 C 21.000 56.093,21.345 56.084,22.750 57.204 M26.902 60.460 C 27.774 61.169,28.935 62.087,29.483 62.500 C 30.784 63.479,30.770 63.684,29.324 64.833 C 28.689 65.337,28.001 65.886,27.794 66.052 C 26.820 66.833,23.928 68.990,23.065 69.579 C 22.800 69.760,21.833 70.491,20.917 71.203 C 17.763 73.652,17.508 73.826,17.233 73.721 C 16.911 73.597,16.887 68.506,17.208 68.490 C 17.323 68.484,18.154 68.488,19.056 68.499 C 21.039 68.524,21.500 68.318,21.500 67.409 C 21.500 66.923,21.577 66.797,21.958 66.660 C 23.832 65.984,24.333 65.431,24.333 64.042 C 24.333 63.504,24.245 63.134,24.083 63.000 C 23.745 62.719,23.769 62.365,24.178 61.602 C 24.423 61.145,24.511 60.710,24.482 60.094 C 24.408 58.498,24.512 58.514,26.902 60.460 M43.268 59.029 C 43.335 59.137,43.372 59.650,43.350 60.170 C 43.318 60.974,43.376 61.192,43.739 61.624 C 44.270 62.254,44.271 62.411,43.750 63.030 C 42.765 64.201,43.262 65.565,44.976 66.391 C 46.009 66.889,46.087 66.966,46.134 67.523 C 46.205 68.367,46.657 68.530,48.794 68.481 C 50.939 68.432,50.828 68.274,50.831 71.365 C 50.834 74.555,50.941 74.534,47.667 71.972 C 46.796 71.291,45.633 70.422,45.083 70.041 C 42.671 68.369,37.227 64.065,37.097 63.726 C 37.010 63.500,37.841 62.642,38.860 61.905 C 39.775 61.244,40.024 61.052,41.417 59.933 C 42.794 58.826,43.062 58.696,43.268 59.029 M138.695 60.569 C 143.770 63.102,144.753 73.486,140.325 77.784 C 138.155 79.889,134.201 80.135,131.574 78.327 C 127.083 75.237,126.992 64.655,131.427 61.293 C 133.285 59.884,136.651 59.549,138.695 60.569 M247.060 60.339 C 249.260 61.162,250.704 63.006,251.103 65.502 L 251.209 66.167 244.938 66.167 L 238.667 66.167 238.667 65.776 C 238.667 61.840,243.208 58.898,247.060 60.339 M5.243 62.825 C 7.027 65.049,10.197 66.895,13.417 67.585 C 15.604 68.053,15.455 67.763,15.529 71.701 C 15.620 76.585,15.324 76.333,20.978 76.333 C 25.918 76.333,26.140 76.408,25.031 77.703 C 24.113 78.773,23.837 79.426,23.555 81.188 C 23.176 83.563,23.767 83.345,17.853 83.294 L 12.750 83.250 12.697 82.694 C 12.667 82.388,12.874 81.358,13.155 80.404 C 13.931 77.774,13.799 77.084,12.350 76.193 C 11.880 75.903,11.463 75.667,11.424 75.667 C 11.385 75.667,10.701 75.364,9.904 74.994 C 5.957 73.162,3.836 69.142,3.834 63.486 C 3.833 61.297,3.967 61.234,5.243 62.825 M63.833 63.213 C 63.833 69.648,61.967 73.011,57.114 75.319 C 53.785 76.902,53.586 77.279,54.469 80.339 C 55.436 83.688,55.988 83.347,49.673 83.294 L 44.451 83.250 44.250 82.500 C 44.140 82.087,43.970 81.243,43.872 80.623 C 43.703 79.539,43.391 78.878,42.403 77.508 C 41.616 76.417,41.585 76.426,46.502 76.333 C 52.470 76.221,52.167 76.483,52.167 71.433 C 52.167 69.300,52.228 68.148,52.346 68.076 C 52.444 68.015,53.231 67.790,54.095 67.576 C 57.531 66.726,60.469 65.023,62.213 62.873 C 63.600 61.163,63.833 61.212,63.833 63.213 M32.333 64.833 C 33.133 65.241,34.633 65.277,35.413 64.907 C 36.089 64.586,36.187 64.639,38.966 66.820 C 41.192 68.566,45.039 71.501,47.495 73.325 C 50.231 75.358,51.619 75.175,33.806 75.126 C 22.886 75.096,18.427 75.031,18.384 74.901 C 18.350 74.801,19.169 74.065,20.203 73.265 C 21.237 72.466,23.096 71.022,24.333 70.058 C 25.571 69.094,26.904 68.068,27.297 67.778 C 27.689 67.488,28.777 66.638,29.713 65.889 C 31.670 64.326,31.485 64.401,32.333 64.833 "
            stroke="none" fill="#040404" fillRule="evenodd"></path>
        <path id="path3"
            d="M33.022 3.932 C 32.211 4.853,31.724 6.301,31.291 9.083 C 31.191 9.725,31.088 10.278,31.061 10.312 C 31.035 10.347,30.617 10.112,30.132 9.791 C 28.566 8.755,26.333 7.752,26.024 7.946 C 25.597 8.213,25.578 9.406,25.990 10.104 C 26.179 10.424,26.333 10.794,26.333 10.927 C 26.333 11.059,26.480 11.442,26.660 11.777 C 27.072 12.545,27.026 12.609,25.958 12.754 C 24.155 13.000,20.373 14.463,19.083 15.415 C 18.808 15.618,18.358 15.900,18.082 16.042 C 17.444 16.371,13.685 20.060,13.104 20.928 C 12.862 21.288,12.405 21.921,12.087 22.333 C 11.768 22.746,11.506 23.198,11.504 23.338 C 11.502 23.478,11.344 23.726,11.153 23.889 C 9.645 25.181,6.479 33.731,5.342 39.583 C 5.146 40.592,4.917 41.642,4.833 41.917 C 4.750 42.192,4.529 43.354,4.342 44.500 C 4.156 45.646,3.931 46.921,3.842 47.333 C 1.881 56.422,3.799 62.223,9.751 65.211 C 13.705 67.195,21.655 68.070,20.098 66.349 C 19.777 65.995,19.905 65.833,20.507 65.833 C 23.220 65.833,24.254 63.678,21.833 63.070 C 20.205 62.660,20.195 62.621,21.560 62.021 C 24.484 60.736,24.303 59.403,21.197 59.353 C 19.566 59.327,19.160 59.123,19.666 58.584 C 20.174 58.044,20.050 57.574,19.412 57.617 C 15.530 57.878,13.045 57.559,11.531 56.603 C 11.151 56.363,10.778 56.167,10.703 56.167 C 10.279 56.167,8.860 54.170,8.332 52.829 C 7.896 51.724,7.680 49.588,8.016 49.699 C 8.166 49.749,8.285 50.131,8.346 50.763 C 8.572 53.078,10.832 55.979,12.431 56.005 C 12.607 56.008,12.891 56.118,13.064 56.248 C 13.450 56.541,14.684 56.740,15.240 56.601 L 15.652 56.497 15.701 50.207 C 15.757 43.079,15.777 42.957,17.016 42.325 C 17.957 41.845,49.876 41.814,50.833 42.292 C 52.113 42.931,52.167 43.248,52.167 50.182 C 52.167 57.120,52.096 56.776,53.482 56.586 C 56.368 56.189,58.704 53.845,59.355 50.692 C 59.641 49.309,59.899 49.381,59.796 50.815 C 59.487 55.131,55.615 57.850,50.115 57.615 C 47.724 57.512,47.488 57.618,48.138 58.497 C 48.606 59.130,48.414 59.211,46.167 59.327 L 44.417 59.417 44.364 60.058 C 44.286 61.001,45.198 61.845,46.796 62.309 C 47.861 62.618,47.484 62.858,45.000 63.454 C 44.482 63.578,44.411 63.661,44.366 64.193 C 44.288 65.118,45.142 65.668,47.042 65.917 C 47.874 66.026,47.996 66.157,47.583 66.500 C 45.536 68.200,54.387 67.093,57.833 65.219 C 58.429 64.895,59.142 64.516,59.417 64.376 C 59.930 64.116,62.333 61.857,62.333 61.634 C 62.333 61.566,62.560 61.189,62.836 60.797 C 64.453 58.501,65.000 52.564,63.990 48.261 C 63.902 47.888,63.612 46.158,63.345 44.417 C 62.824 41.026,62.288 38.375,61.608 35.833 C 61.375 34.962,61.073 33.837,60.938 33.333 C 60.283 30.894,57.445 24.639,56.514 23.583 C 56.353 23.400,56.060 22.981,55.863 22.651 C 54.973 21.161,51.119 16.833,50.682 16.833 C 50.603 16.833,50.415 16.646,50.265 16.417 C 50.115 16.188,49.896 16.000,49.779 16.000 C 49.661 16.000,49.306 15.808,48.991 15.573 C 47.511 14.474,43.626 12.981,41.625 12.742 C 40.644 12.626,40.493 12.475,40.896 12.013 C 41.612 11.192,42.052 8.143,41.470 8.033 C 41.111 7.965,37.834 9.573,37.485 9.988 C 36.751 10.864,36.431 10.546,36.233 8.741 C 35.954 6.203,34.686 3.167,33.905 3.167 C 33.789 3.167,33.392 3.511,33.022 3.932 M34.438 3.958 C 35.223 5.119,35.848 7.065,36.032 8.917 C 36.221 10.814,36.393 11.309,36.685 10.792 C 36.776 10.631,36.935 10.500,37.039 10.500 C 37.143 10.500,37.384 10.354,37.574 10.175 C 38.045 9.733,40.891 8.333,41.320 8.333 C 41.833 8.333,41.290 11.209,40.646 11.908 C 40.191 12.401,40.494 12.763,41.542 12.979 C 45.271 13.747,48.319 15.126,50.569 17.065 C 52.141 18.418,53.050 19.415,55.317 22.263 C 57.069 24.465,59.854 30.273,60.764 33.622 C 62.168 38.791,62.547 40.579,63.420 46.155 C 64.488 52.985,64.488 56.394,63.421 59.021 C 61.929 62.693,59.033 64.999,54.344 66.247 C 52.074 66.851,50.058 67.167,48.463 67.167 C 47.388 67.167,47.363 67.143,47.833 66.545 C 48.303 65.949,48.266 65.885,47.375 65.758 C 45.593 65.502,44.500 64.908,44.500 64.195 C 44.500 63.850,44.851 63.680,46.250 63.346 C 47.823 62.971,48.189 62.526,47.208 62.180 C 45.225 61.480,44.438 60.856,44.529 60.059 L 44.583 59.583 46.450 59.500 C 48.625 59.403,48.895 59.265,48.435 58.487 C 48.018 57.780,48.080 57.759,50.465 57.808 C 54.317 57.886,57.397 56.628,58.729 54.432 C 58.901 54.149,59.093 53.879,59.155 53.833 C 59.984 53.224,60.413 49.333,59.652 49.333 C 59.336 49.333,59.288 49.450,59.080 50.736 C 58.659 53.336,56.913 55.276,54.269 56.082 C 52.165 56.724,52.352 57.306,52.297 49.943 C 52.246 43.020,52.240 42.976,51.280 42.265 C 50.751 41.873,37.786 41.608,23.917 41.706 C 16.797 41.756,16.711 41.769,15.984 42.939 L 15.583 43.583 15.533 49.957 L 15.482 56.332 15.088 56.430 C 14.601 56.553,11.998 55.761,11.438 55.320 C 11.214 55.144,10.957 55.000,10.866 55.000 C 10.203 55.000,8.836 52.445,8.677 50.909 C 8.547 49.653,8.196 49.130,7.739 49.509 C 7.091 50.047,7.787 52.677,9.156 54.860 C 10.614 57.186,14.129 58.350,18.250 57.872 C 19.832 57.688,19.999 57.778,19.403 58.486 C 18.773 59.234,19.004 59.375,21.077 59.507 C 24.079 59.699,24.164 60.672,21.284 61.896 C 19.657 62.588,19.827 62.824,22.388 63.431 C 24.093 63.835,22.777 65.251,20.280 65.699 L 19.309 65.873 19.738 66.321 C 20.369 66.980,20.289 67.167,19.375 67.165 C 15.544 67.159,10.453 65.670,7.695 63.750 C 7.059 63.307,5.543 61.676,5.216 61.083 C 5.014 60.717,4.695 60.138,4.507 59.797 C 4.200 59.240,3.941 58.444,3.490 56.667 C 3.302 55.928,3.308 52.944,3.501 51.417 C 3.808 48.988,4.338 45.520,4.585 44.325 C 4.726 43.642,5.030 42.109,5.262 40.917 C 5.717 38.579,5.729 38.526,6.466 35.665 C 7.519 31.580,9.990 25.634,11.264 24.119 C 11.486 23.856,11.667 23.568,11.667 23.478 C 11.667 23.388,12.023 22.825,12.458 22.226 C 15.866 17.541,20.128 14.406,24.475 13.385 C 26.251 12.968,27.333 12.650,27.333 12.546 C 27.333 12.451,26.661 10.990,26.227 10.141 C 26.102 9.898,26.000 9.354,26.000 8.933 C 26.000 7.949,26.217 7.939,27.954 8.838 C 29.334 9.552,29.513 9.655,30.624 10.384 C 31.456 10.930,31.390 11.038,31.661 8.667 C 32.055 5.205,33.558 2.657,34.438 3.958 M6.611 8.778 C 6.413 8.976,6.493 9.594,6.759 9.926 C 7.006 10.234,7.009 10.231,6.827 9.856 C 6.721 9.640,6.669 9.284,6.711 9.065 C 6.793 8.637,6.782 8.607,6.611 8.778 M60.625 8.787 C 61.039 8.863,61.115 9.284,60.824 9.886 C 60.651 10.243,60.653 10.244,60.915 9.917 C 61.318 9.412,61.180 8.754,60.667 8.734 C 60.304 8.720,60.299 8.727,60.625 8.787 M58.949 13.585 C 58.797 13.905,58.706 14.167,58.748 14.167 C 58.862 14.167,59.368 13.146,59.292 13.070 C 59.256 13.034,59.102 13.266,58.949 13.585 M51.060 14.629 C 51.192 14.842,52.167 15.564,52.167 15.448 C 52.167 15.407,51.891 15.163,51.555 14.906 C 51.218 14.650,50.996 14.525,51.060 14.629 M11.417 17.667 C 11.775 18.033,12.105 18.333,12.151 18.333 C 12.197 18.333,11.941 18.033,11.583 17.667 C 11.225 17.300,10.895 17.000,10.849 17.000 C 10.803 17.000,11.059 17.300,11.417 17.667 M21.667 28.303 C 18.385 29.394,16.055 32.442,15.951 35.781 C 15.871 38.326,18.291 38.381,18.556 35.841 C 19.272 28.993,29.074 28.981,29.777 35.827 C 30.024 38.222,32.425 38.375,32.371 35.992 C 32.248 30.570,26.742 26.615,21.667 28.303 M41.517 28.264 C 39.101 28.913,36.673 31.260,36.097 33.500 C 36.039 33.729,36.251 33.389,36.570 32.744 C 39.038 27.744,45.626 26.626,49.541 30.541 C 52.153 33.153,52.821 38.248,50.433 37.339 C 49.889 37.133,49.823 36.991,49.558 35.468 C 48.350 28.503,38.909 28.857,38.038 35.899 C 37.842 37.482,36.354 38.065,35.829 36.765 C 35.721 36.499,35.685 36.482,35.677 36.696 C 35.663 37.061,36.440 37.667,36.921 37.667 C 37.670 37.667,38.009 37.169,38.265 35.694 C 39.447 28.881,48.729 29.004,49.444 35.841 C 49.627 37.592,50.653 38.206,51.679 37.179 C 52.215 36.644,52.245 36.418,51.992 34.857 C 51.207 30.018,46.353 26.963,41.517 28.264 M26.047 28.412 C 29.374 29.117,31.853 32.048,32.121 35.595 C 32.308 38.066,30.272 38.202,29.975 35.740 C 29.147 28.857,19.153 28.722,18.398 35.583 C 18.264 36.795,18.104 37.135,17.573 37.337 C 16.568 37.719,15.959 36.843,16.177 35.331 C 16.909 30.268,21.062 27.356,26.047 28.412 M35.709 35.250 C 35.711 35.617,35.745 35.747,35.785 35.540 C 35.824 35.332,35.823 35.032,35.781 34.873 C 35.739 34.714,35.707 34.883,35.709 35.250 M22.558 43.257 C 22.503 43.399,22.506 43.561,22.563 43.618 C 22.620 43.675,22.667 43.597,22.667 43.444 C 22.667 43.125,28.384 43.011,28.579 43.326 C 28.633 43.414,28.561 43.763,28.420 44.102 C 28.278 44.441,28.191 44.747,28.227 44.783 C 28.416 44.971,28.833 43.450,28.652 43.232 C 28.352 42.871,22.697 42.894,22.558 43.257 M30.609 43.125 C 30.566 43.194,31.443 43.230,32.557 43.206 C 36.357 43.125,36.754 43.065,33.718 43.033 C 32.051 43.015,30.651 43.056,30.609 43.125 M40.717 43.124 C 41.523 43.155,42.798 43.155,43.550 43.124 C 44.302 43.093,43.642 43.068,42.083 43.068 C 40.525 43.068,39.910 43.094,40.717 43.124 M44.680 44.685 C 44.673 44.833,44.470 45.243,44.230 45.597 C 43.990 45.951,43.919 46.136,44.074 46.008 C 44.453 45.693,44.873 44.857,44.773 44.614 C 44.727 44.500,44.687 44.531,44.680 44.685 M35.839 45.908 C 35.184 46.968,33.897 47.450,32.947 46.991 C 32.596 46.821,32.594 46.824,32.907 47.074 C 33.706 47.714,35.349 47.078,36.051 45.857 C 36.459 45.147,36.283 45.189,35.839 45.908 M27.167 46.250 C 26.762 46.663,26.468 47.000,26.514 47.000 C 26.560 47.000,26.928 46.663,27.333 46.250 C 27.738 45.837,28.032 45.500,27.986 45.500 C 27.940 45.500,27.572 45.837,27.167 46.250 M31.661 46.121 C 31.760 46.325,32.008 46.573,32.212 46.672 C 32.557 46.839,32.562 46.835,32.278 46.606 C 32.110 46.471,31.863 46.223,31.727 46.055 C 31.499 45.771,31.494 45.776,31.661 46.121 M41.210 46.947 C 41.549 47.288,42.716 47.351,43.021 47.046 C 43.172 46.894,43.082 46.891,42.628 47.030 C 42.150 47.177,41.933 47.158,41.478 46.931 C 40.941 46.664,40.929 46.665,41.210 46.947 M24.907 47.074 C 25.274 47.368,25.798 47.406,26.167 47.164 C 26.346 47.047,26.269 47.029,25.895 47.100 C 25.609 47.155,25.196 47.114,24.979 47.008 C 24.603 46.825,24.599 46.828,24.907 47.074 M42.833 52.781 C 45.471 52.901,48.296 52.906,48.225 52.792 C 48.182 52.723,46.708 52.681,44.948 52.699 C 43.189 52.717,42.237 52.754,42.833 52.781 M49.645 53.958 C 49.438 54.222,49.444 54.228,49.706 54.023 C 50.261 53.588,50.498 53.903,50.532 55.120 L 50.564 56.250 50.624 55.194 C 50.702 53.808,50.230 53.212,49.645 53.958 M17.444 53.944 C 17.185 54.204,17.329 56.123,17.625 56.347 C 17.873 56.534,17.886 56.532,17.708 56.334 C 17.588 56.199,17.500 55.654,17.500 55.050 C 17.500 53.877,17.668 53.748,18.474 54.306 C 19.083 54.727,19.333 54.866,19.333 54.782 C 19.333 54.440,17.682 53.707,17.444 53.944 M46.894 55.917 C 46.841 56.054,46.709 56.167,46.601 56.167 C 46.493 56.167,46.144 56.397,45.827 56.679 L 45.250 57.191 45.836 56.772 C 46.396 56.372,46.514 56.355,48.503 56.395 C 50.031 56.426,50.384 56.399,49.833 56.294 C 49.421 56.215,48.610 56.177,48.031 56.209 C 47.084 56.261,46.986 56.237,47.057 55.967 C 47.152 55.604,47.028 55.566,46.894 55.917 M20.575 55.992 C 20.488 56.079,19.854 56.177,19.166 56.209 L 17.917 56.267 19.188 56.300 C 20.145 56.325,20.510 56.272,20.667 56.083 C 20.895 55.808,20.827 55.740,20.575 55.992 M21.417 56.453 C 21.600 56.497,21.938 56.695,22.167 56.892 L 22.583 57.250 22.179 56.792 C 21.957 56.540,21.620 56.342,21.429 56.353 C 21.094 56.371,21.094 56.374,21.417 56.453 M21.042 57.250 C 21.044 57.617,21.078 57.747,21.118 57.540 C 21.158 57.332,21.156 57.032,21.115 56.873 C 21.073 56.714,21.040 56.883,21.042 57.250 M46.709 57.250 C 46.711 57.617,46.745 57.747,46.785 57.540 C 46.824 57.332,46.823 57.032,46.781 56.873 C 46.739 56.714,46.707 56.883,46.709 57.250 M42.833 57.523 L 42.083 58.202 42.789 57.672 C 43.403 57.211,43.798 56.823,43.635 56.838 C 43.607 56.841,43.246 57.149,42.833 57.523 M44.336 57.659 C 44.108 57.834,43.958 58.010,44.002 58.050 C 44.047 58.090,44.269 57.946,44.496 57.728 C 44.992 57.254,44.909 57.218,44.336 57.659 M23.501 57.866 C 23.841 58.277,23.692 58.484,23.163 58.332 C 22.887 58.253,22.698 58.249,22.744 58.324 C 22.791 58.399,23.023 58.497,23.261 58.543 C 23.789 58.644,24.003 58.249,23.607 57.903 C 23.457 57.772,23.409 57.756,23.501 57.866 M45.313 58.242 C 45.272 58.284,44.964 58.337,44.629 58.359 C 44.295 58.382,44.053 58.450,44.091 58.512 C 44.168 58.637,45.455 58.434,45.618 58.271 C 45.675 58.214,45.647 58.167,45.556 58.167 C 45.464 58.167,45.355 58.201,45.313 58.242 M24.566 59.029 C 24.499 59.137,24.461 59.643,24.481 60.154 C 24.506 60.777,24.434 61.193,24.264 61.417 C 24.125 61.600,24.009 61.825,24.006 61.917 C 24.004 62.008,24.154 61.858,24.339 61.583 C 24.584 61.220,24.671 60.833,24.658 60.167 C 24.633 58.933,24.622 58.965,25.000 59.167 C 25.183 59.265,25.333 59.308,25.333 59.262 C 25.333 59.040,24.681 58.842,24.566 59.029 M42.321 59.292 L 41.917 59.750 42.363 59.357 C 43.038 58.763,43.234 58.942,43.186 60.110 C 43.151 60.980,43.203 61.184,43.573 61.624 C 44.103 62.254,44.105 62.411,43.583 63.030 C 43.257 63.418,43.172 63.695,43.190 64.304 L 43.214 65.083 43.319 64.218 C 43.387 63.661,43.557 63.211,43.795 62.957 C 44.271 62.451,44.263 62.245,43.739 61.624 C 43.376 61.192,43.318 60.974,43.350 60.170 C 43.409 58.741,43.065 58.448,42.321 59.292 M25.500 59.386 C 25.500 59.431,25.875 59.783,26.333 60.167 C 26.792 60.550,27.167 60.827,27.167 60.781 C 27.167 60.735,26.792 60.384,26.333 60.000 C 25.875 59.616,25.500 59.340,25.500 59.386 M40.981 60.302 C 40.558 60.640,40.070 61.011,39.898 61.127 C 39.719 61.247,39.800 61.235,40.083 61.101 C 40.537 60.886,42.032 59.675,41.833 59.684 C 41.787 59.686,41.404 59.965,40.981 60.302 M27.865 61.354 C 28.203 61.664,28.728 62.093,29.031 62.309 L 29.583 62.702 29.044 62.226 C 28.748 61.964,28.223 61.534,27.878 61.271 L 27.250 60.792 27.865 61.354 M3.933 61.789 C 3.172 62.551,4.343 68.927,5.672 71.257 C 6.628 72.932,10.195 75.667,11.424 75.667 C 11.463 75.667,11.880 75.903,12.350 76.193 C 13.799 77.084,13.931 77.774,13.155 80.404 C 12.874 81.358,12.667 82.388,12.697 82.694 L 12.750 83.250 17.853 83.294 C 23.767 83.345,23.176 83.563,23.555 81.188 C 23.837 79.426,24.113 78.773,25.031 77.703 C 26.140 76.408,25.918 76.333,20.978 76.333 C 15.324 76.333,15.620 76.585,15.529 71.701 C 15.455 67.763,15.604 68.053,13.417 67.585 C 10.197 66.895,7.027 65.049,5.243 62.825 C 4.477 61.870,4.128 61.594,3.933 61.789 M38.245 62.429 L 37.417 63.192 38.292 62.487 C 39.077 61.854,39.266 61.667,39.120 61.667 C 39.095 61.667,38.701 62.010,38.245 62.429 M62.213 62.873 C 60.469 65.023,57.531 66.726,54.095 67.576 C 53.231 67.790,52.444 68.015,52.346 68.076 C 52.228 68.148,52.167 69.300,52.167 71.433 C 52.167 76.483,52.470 76.221,46.502 76.333 C 41.585 76.426,41.616 76.417,42.403 77.508 C 43.391 78.878,43.703 79.539,43.872 80.623 C 43.970 81.243,44.140 82.087,44.250 82.500 L 44.451 83.250 49.673 83.294 C 55.988 83.347,55.436 83.688,54.469 80.339 C 53.586 77.279,53.785 76.902,57.114 75.319 C 61.967 73.011,63.833 69.648,63.833 63.213 C 63.833 61.212,63.600 61.163,62.213 62.873 M63.662 63.375 C 63.639 69.466,61.671 72.906,56.914 75.168 C 53.763 76.667,53.260 77.398,53.968 79.448 C 54.375 80.623,54.847 82.843,54.731 83.031 C 54.624 83.204,44.713 83.211,44.606 83.037 C 44.562 82.966,44.441 82.289,44.338 81.534 C 44.093 79.746,43.805 78.963,42.996 77.892 C 42.025 76.605,41.854 76.667,46.423 76.667 C 52.439 76.667,52.333 76.757,52.333 71.606 C 52.333 67.872,52.208 68.156,54.004 67.836 C 56.862 67.327,60.334 65.401,62.262 63.255 C 63.661 61.698,63.668 61.699,63.662 63.375 M4.725 62.625 C 6.699 65.168,9.625 66.957,13.090 67.740 C 15.513 68.288,15.333 67.961,15.334 71.812 C 15.335 76.717,15.271 76.667,21.447 76.667 C 25.570 76.667,25.527 76.653,24.660 77.705 C 23.960 78.555,23.550 79.552,23.340 80.919 C 23.241 81.560,23.119 82.290,23.067 82.542 L 22.974 83.000 17.997 83.000 C 15.259 83.000,12.988 82.944,12.950 82.875 C 12.870 82.733,13.125 81.530,13.643 79.609 C 14.297 77.177,13.939 76.647,10.521 74.984 C 6.122 72.843,4.366 69.873,4.050 64.042 C 3.940 61.995,4.052 61.759,4.725 62.625 M23.856 62.438 C 23.844 62.633,23.946 62.886,24.083 63.000 C 24.423 63.282,24.415 64.799,24.070 65.338 L 23.807 65.750 24.153 65.357 C 24.577 64.876,24.647 63.329,24.260 63.008 C 24.128 62.899,23.988 62.646,23.949 62.446 C 23.879 62.085,23.879 62.085,23.856 62.438 M29.987 63.055 C 30.412 63.523,30.503 63.580,30.495 63.375 C 30.492 63.306,30.286 63.106,30.036 62.930 L 29.583 62.610 29.987 63.055 M37.167 63.875 C 37.167 63.911,37.673 64.333,38.292 64.814 C 38.914 65.297,39.119 65.415,38.750 65.078 C 38.045 64.434,37.167 63.767,37.167 63.875 M30.987 64.958 L 30.583 65.417 31.045 65.010 L 31.506 64.603 32.257 64.968 C 33.157 65.405,34.675 65.458,35.406 65.076 C 35.675 64.936,36.012 64.866,36.156 64.920 C 36.358 64.997,36.372 64.975,36.218 64.820 C 36.064 64.664,35.891 64.680,35.443 64.893 C 34.635 65.276,33.146 65.248,32.333 64.833 C 31.500 64.408,31.470 64.411,30.987 64.958 M28.583 65.278 C 28.217 65.607,28.067 65.798,28.250 65.703 C 28.559 65.543,29.479 64.658,29.321 64.674 C 29.282 64.677,28.950 64.950,28.583 65.278 M29.583 66.018 C 28.315 67.043,28.111 67.328,29.302 66.411 C 30.222 65.702,30.639 65.320,30.468 65.339 C 30.440 65.343,30.042 65.648,29.583 66.018 M43.659 65.741 C 43.950 66.091,44.831 66.558,44.960 66.429 C 45.013 66.376,44.979 66.333,44.884 66.333 C 44.790 66.333,44.423 66.137,44.069 65.896 C 43.715 65.656,43.531 65.586,43.659 65.741 M26.987 66.499 C 26.582 66.774,26.022 67.205,25.743 67.457 C 25.106 68.035,25.341 67.903,26.436 67.067 C 26.905 66.709,27.430 66.327,27.603 66.218 C 27.775 66.109,27.873 66.015,27.820 66.010 C 27.767 66.004,27.392 66.225,26.987 66.499 M38.458 66.524 C 38.703 66.829,40.667 68.391,40.667 68.280 C 40.667 68.238,40.123 67.768,39.458 67.234 C 38.794 66.700,38.344 66.381,38.458 66.524 M21.565 66.905 C 21.515 67.035,21.502 67.317,21.536 67.530 C 21.581 67.814,21.620 67.751,21.682 67.292 C 21.769 66.645,21.723 66.492,21.565 66.905 M45.708 66.847 C 45.879 66.946,46.010 67.238,46.025 67.550 C 46.049 68.068,46.052 68.070,46.120 67.615 C 46.193 67.132,45.936 66.663,45.605 66.672 C 45.501 66.675,45.548 66.753,45.708 66.847 M27.000 68.014 L 26.250 68.694 27.042 68.077 C 27.736 67.536,27.941 67.332,27.792 67.334 C 27.769 67.334,27.412 67.640,27.000 68.014 M42.000 67.713 C 42.000 67.745,42.244 67.949,42.542 68.167 C 42.877 68.413,42.993 68.453,42.847 68.273 C 42.625 67.999,42.000 67.586,42.000 67.713 M41.167 68.660 C 41.983 69.344,42.655 69.762,42.000 69.178 C 41.679 68.893,41.267 68.580,41.083 68.485 C 40.857 68.367,40.883 68.423,41.167 68.660 M48.500 68.500 L 46.917 68.603 48.417 68.632 C 49.242 68.648,50.029 68.589,50.167 68.500 C 50.304 68.411,50.342 68.352,50.250 68.368 C 50.158 68.384,49.371 68.443,48.500 68.500 M18.375 68.623 C 18.810 68.657,19.523 68.657,19.958 68.623 C 20.394 68.588,20.037 68.560,19.167 68.560 C 18.296 68.560,17.940 68.588,18.375 68.623 M25.417 69.268 L 24.750 69.865 25.458 69.335 C 26.068 68.879,26.288 68.659,26.125 68.669 C 26.102 68.671,25.783 68.940,25.417 69.268 M50.704 71.309 C 50.670 73.670,50.644 73.860,50.375 73.758 C 50.141 73.669,50.125 73.689,50.292 73.857 C 50.736 74.304,50.843 73.741,50.791 71.237 L 50.740 68.750 50.704 71.309 M43.893 69.129 C 44.025 69.342,45.000 70.064,45.000 69.948 C 45.000 69.907,44.725 69.663,44.388 69.406 C 44.052 69.150,43.829 69.025,43.893 69.129 M42.667 69.722 C 42.667 69.768,42.967 70.043,43.333 70.333 C 43.700 70.624,44.000 70.824,44.000 70.778 C 44.000 70.732,43.700 70.457,43.333 70.167 C 42.967 69.876,42.667 69.676,42.667 69.722 M21.750 70.435 L 21.083 71.032 21.792 70.502 C 22.401 70.046,22.621 69.826,22.458 69.836 C 22.435 69.837,22.117 70.107,21.750 70.435 M24.000 70.354 C 23.419 70.863,23.419 70.864,23.953 70.508 C 24.248 70.312,24.534 70.080,24.588 69.992 C 24.749 69.732,24.616 69.814,24.000 70.354 M44.416 71.140 C 44.598 71.355,44.897 71.608,45.081 71.703 C 45.435 71.884,45.384 71.828,44.585 71.164 C 44.103 70.765,44.097 70.764,44.416 71.140 M20.167 71.689 L 19.417 72.369 20.123 71.839 C 20.737 71.378,21.131 70.989,20.968 71.005 C 20.940 71.008,20.579 71.316,20.167 71.689 M20.633 72.886 C 18.846 74.320,18.631 74.603,20.297 73.327 C 21.503 72.405,22.179 71.808,21.979 71.845 C 21.945 71.851,21.339 72.319,20.633 72.886 M48.500 72.552 C 48.500 72.593,48.775 72.837,49.112 73.094 C 49.448 73.350,49.671 73.475,49.607 73.371 C 49.475 73.158,48.500 72.436,48.500 72.552 M18.064 73.195 C 17.443 73.662,17.167 73.930,17.500 73.740 C 18.132 73.380,18.863 72.833,18.712 72.833 C 18.620 72.833,18.329 72.996,18.064 73.195 M48.000 73.822 C 48.321 74.107,48.733 74.420,48.917 74.515 C 49.314 74.722,48.684 74.175,47.917 73.646 C 47.494 73.355,47.506 73.382,48.000 73.822 M18.494 74.590 C 18.226 74.913,18.496 75.233,18.941 75.118 C 19.195 75.053,19.184 75.035,18.875 75.019 C 18.458 74.998,18.399 74.834,18.700 74.533 C 18.810 74.423,18.857 74.333,18.804 74.333 C 18.751 74.333,18.611 74.449,18.494 74.590 "
            stroke="none" fill="#5a1d24" fillRule="evenodd"></path>
        <path id="path4"
            d="M60.853 9.138 C 60.833 9.534,59.149 12.999,58.167 14.667 C 57.585 15.655,56.257 17.384,55.680 17.906 L 55.323 18.228 54.194 17.063 C 53.573 16.422,52.445 15.426,51.688 14.849 C 50.142 13.672,50.129 13.535,51.507 12.914 C 51.872 12.749,52.143 12.588,52.110 12.555 C 51.925 12.369,50.166 13.431,50.168 13.728 C 50.168 13.832,50.769 14.359,51.502 14.900 C 52.235 15.440,53.396 16.449,54.082 17.141 L 55.329 18.400 55.846 17.908 C 57.606 16.237,61.197 10.015,60.952 9.062 C 60.887 8.810,60.868 8.825,60.853 9.138 M8.667 9.486 C 8.987 9.654,9.438 9.837,9.667 9.894 C 9.896 9.950,9.708 9.814,9.250 9.592 C 8.282 9.122,7.803 9.035,8.667 9.486 M58.167 9.667 C 57.846 9.842,57.658 9.986,57.750 9.986 C 57.842 9.986,58.179 9.842,58.500 9.667 C 58.821 9.491,59.008 9.347,58.917 9.347 C 58.825 9.347,58.487 9.491,58.167 9.667 M6.977 10.190 C 7.242 10.886,8.782 13.885,9.061 14.250 C 9.202 14.433,8.788 13.533,8.141 12.250 C 6.947 9.882,6.681 9.410,6.977 10.190 M10.522 10.244 C 10.667 10.390,12.500 11.163,12.500 11.079 C 12.500 11.033,12.078 10.809,11.563 10.581 C 10.651 10.178,10.363 10.085,10.522 10.244 M55.625 10.762 C 54.979 11.113,55.052 11.234,55.708 10.900 C 56.337 10.580,56.448 10.497,56.236 10.507 C 56.152 10.510,55.877 10.625,55.625 10.762 M53.542 11.750 C 53.060 11.969,52.667 12.189,52.667 12.238 C 52.667 12.327,54.492 11.564,54.644 11.411 C 54.819 11.236,54.366 11.376,53.542 11.750 M13.543 11.681 C 14.040 11.970,15.000 12.343,15.000 12.246 C 15.000 12.150,13.554 11.496,13.361 11.505 C 13.300 11.508,13.382 11.587,13.543 11.681 M16.178 12.912 C 17.530 13.617,17.525 13.690,16.054 14.770 C 15.337 15.297,14.178 16.280,13.479 16.956 L 12.209 18.184 11.343 17.217 C 10.866 16.685,10.244 15.894,9.960 15.458 C 9.676 15.023,9.414 14.667,9.378 14.667 C 9.155 14.667,10.242 16.201,11.183 17.216 L 12.297 18.417 13.627 17.083 C 14.358 16.350,15.527 15.338,16.224 14.833 C 16.921 14.329,17.493 13.850,17.495 13.768 C 17.503 13.512,15.918 12.486,15.548 12.508 C 15.476 12.512,15.759 12.694,16.178 12.912 M38.802 41.791 C 40.298 41.819,42.698 41.819,44.135 41.791 C 45.573 41.764,44.350 41.741,41.417 41.741 C 38.483 41.741,37.307 41.764,38.802 41.791 M22.686 43.542 C 22.701 43.824,22.724 43.844,22.782 43.625 C 22.850 43.362,23.132 43.333,25.667 43.333 L 28.477 43.333 28.343 43.792 C 27.319 47.313,24.423 47.846,23.234 44.731 C 22.907 43.876,22.736 43.835,23.028 44.681 C 24.118 47.845,27.098 47.710,28.307 44.443 C 28.792 43.131,28.868 43.167,25.573 43.167 L 22.667 43.167 22.686 43.542 M30.630 43.259 C 30.223 43.665,31.707 46.274,32.644 46.801 C 34.311 47.737,36.471 46.195,36.787 43.843 L 36.877 43.167 33.800 43.167 C 32.107 43.167,30.681 43.208,30.630 43.259 M39.167 43.657 C 39.167 43.926,39.236 44.190,39.321 44.242 C 39.405 44.294,39.522 44.553,39.579 44.816 C 39.864 46.111,41.596 47.341,42.679 47.016 C 43.661 46.722,45.000 44.734,45.000 43.570 L 45.000 43.167 42.083 43.167 L 39.167 43.167 39.167 43.657 M36.667 43.644 C 36.667 44.281,35.501 46.305,34.932 46.657 C 33.654 47.447,32.256 46.794,31.353 44.987 C 30.487 43.254,30.372 43.333,33.750 43.333 C 36.486 43.333,36.667 43.353,36.667 43.644 M44.833 43.577 C 44.833 44.736,43.388 46.733,42.413 46.923 C 41.561 47.088,40.468 46.247,39.848 44.948 C 39.035 43.243,38.910 43.333,42.083 43.333 C 44.385 43.333,44.833 43.373,44.833 43.577 M26.470 52.792 C 29.342 52.817,33.992 52.817,36.804 52.792 C 39.616 52.766,37.267 52.745,31.583 52.745 C 25.900 52.745,23.599 52.766,26.470 52.792 M48.013 53.042 C 48.006 53.202,47.536 53.690,46.969 54.125 C 41.716 58.155,36.167 62.524,36.167 62.628 C 36.167 62.718,37.055 62.054,39.236 60.333 C 43.793 56.739,44.547 56.151,46.029 55.032 C 47.842 53.664,48.236 53.274,48.114 52.968 C 48.057 52.826,48.022 52.852,48.013 53.042 M20.319 53.723 C 20.562 54.026,21.500 54.740,21.500 54.623 C 21.500 54.586,21.181 54.302,20.792 53.993 C 20.402 53.683,20.189 53.562,20.319 53.723 M48.902 54.552 C 47.088 55.800,47.000 55.869,47.001 56.061 C 47.001 56.189,47.569 56.255,48.758 56.267 L 50.514 56.283 50.465 55.102 C 50.405 53.647,50.281 53.603,48.902 54.552 M17.500 55.073 C 17.500 56.352,17.402 56.287,19.167 56.174 C 20.983 56.058,20.999 55.853,19.278 54.799 C 17.551 53.741,17.500 53.749,17.500 55.073 M50.333 55.104 L 50.333 56.208 49.813 56.104 C 49.526 56.047,48.845 56.000,48.300 56.000 L 47.308 56.000 47.808 55.579 C 49.945 53.781,50.333 53.708,50.333 55.104 M19.148 54.904 C 20.767 55.942,20.764 56.000,19.093 56.000 L 17.667 56.000 17.667 55.083 C 17.667 53.978,17.696 53.974,19.148 54.904 M21.667 54.734 C 21.667 54.775,22.848 55.755,24.292 56.912 C 25.735 58.069,27.029 59.106,27.167 59.217 C 29.985 61.476,32.170 63.153,32.500 63.309 C 32.848 63.474,32.866 63.472,32.610 63.295 C 32.441 63.179,30.566 61.706,28.443 60.022 C 22.199 55.071,21.667 54.655,21.667 54.734 M45.583 56.938 C 43.644 58.299,43.596 58.548,45.332 58.250 C 46.721 58.012,46.602 58.109,46.707 57.125 C 46.810 56.168,46.706 56.151,45.583 56.938 M21.199 57.292 L 21.250 58.083 22.291 58.198 C 22.864 58.261,23.408 58.360,23.499 58.416 C 24.137 58.810,23.475 57.905,22.666 57.277 C 21.358 56.260,21.133 56.263,21.199 57.292 M22.430 57.270 C 23.369 58.040,23.356 58.112,22.292 58.005 C 21.419 57.917,21.417 57.915,21.365 57.292 C 21.300 56.502,21.489 56.498,22.430 57.270 M46.468 57.288 C 46.419 57.883,46.385 57.915,45.667 58.039 C 44.416 58.256,44.348 58.131,45.307 57.372 C 46.397 56.508,46.534 56.498,46.468 57.288 M14.627 57.951 C 14.834 57.991,15.134 57.990,15.294 57.948 C 15.453 57.906,15.283 57.874,14.917 57.875 C 14.550 57.877,14.420 57.911,14.627 57.951 M17.708 57.953 C 17.960 57.991,18.373 57.991,18.625 57.953 C 18.877 57.915,18.671 57.883,18.167 57.883 C 17.662 57.883,17.456 57.915,17.708 57.953 M50.042 57.956 C 50.569 57.990,51.431 57.990,51.958 57.956 C 52.485 57.923,52.054 57.896,51.000 57.896 C 49.946 57.896,49.515 57.923,50.042 57.956 M24.653 59.119 C 24.646 59.191,24.648 59.663,24.658 60.167 C 24.671 60.833,24.584 61.220,24.339 61.583 C 23.939 62.177,23.905 62.714,24.250 63.000 C 24.412 63.134,24.500 63.505,24.500 64.052 C 24.500 65.409,23.857 66.082,21.917 66.756 C 21.728 66.822,21.668 66.904,21.780 66.946 C 22.137 67.080,23.661 66.300,24.168 65.723 C 24.769 65.039,24.871 63.647,24.381 62.817 C 24.108 62.355,24.110 62.309,24.421 61.792 C 24.600 61.494,24.785 60.813,24.832 60.279 L 24.917 59.308 25.544 59.779 C 27.205 61.026,30.084 63.436,30.090 63.584 C 30.102 63.876,27.379 66.051,22.333 69.778 C 21.554 70.353,20.216 71.370,19.360 72.037 C 17.126 73.778,17.173 73.800,17.169 71.055 C 17.166 68.573,17.031 68.740,18.989 68.802 C 20.782 68.859,21.685 68.599,21.647 68.037 C 21.629 67.772,21.622 67.772,21.554 68.032 C 21.431 68.496,20.429 68.711,18.736 68.637 C 16.868 68.555,16.999 68.366,17.003 71.139 C 17.006 74.222,16.921 74.210,20.231 71.589 C 21.046 70.944,22.296 70.004,23.010 69.500 C 25.354 67.843,30.494 63.814,30.498 63.630 C 30.499 63.565,30.052 63.152,29.505 62.714 C 28.957 62.275,27.813 61.348,26.963 60.652 C 25.374 59.352,24.677 58.890,24.653 59.119 M41.462 60.049 C 40.753 60.618,39.497 61.606,38.670 62.245 C 37.843 62.884,37.167 63.490,37.167 63.590 C 37.167 63.780,39.150 65.437,41.750 67.419 C 43.139 68.478,45.412 70.173,46.017 70.601 C 46.420 70.886,47.433 71.647,48.268 72.291 C 49.704 73.400,50.353 73.833,50.577 73.833 C 50.631 73.833,50.654 72.652,50.629 71.208 L 50.583 68.583 48.917 68.638 C 46.639 68.714,46.008 68.457,46.003 67.451 C 46.000 67.041,45.873 66.929,44.919 66.501 C 43.202 65.731,42.609 64.189,43.583 63.030 C 44.105 62.411,44.103 62.254,43.573 61.624 C 43.202 61.183,43.151 60.981,43.187 60.100 C 43.241 58.761,43.074 58.756,41.462 60.049 M43.480 61.896 L 43.876 62.317 43.438 62.838 C 42.344 64.138,43.215 66.189,45.129 66.821 C 45.680 67.003,45.833 67.135,45.833 67.430 C 45.833 68.562,46.485 68.874,48.725 68.813 L 50.417 68.768 50.463 71.225 L 50.509 73.683 49.273 72.800 C 47.009 71.181,44.014 68.937,41.535 67.000 C 40.186 65.946,38.689 64.787,38.208 64.424 C 37.069 63.565,36.740 64.005,41.083 60.583 L 42.917 59.139 43.000 60.307 C 43.066 61.236,43.164 61.560,43.480 61.896 M35.267 63.178 C 34.910 63.447,34.680 63.667,34.757 63.667 C 34.962 63.667,35.998 62.937,35.999 62.792 C 36.000 62.625,36.009 62.620,35.267 63.178 M29.804 65.970 C 28.917 66.674,27.166 68.037,25.913 69.000 C 24.660 69.962,23.347 70.975,22.995 71.250 C 22.643 71.525,21.625 72.313,20.735 73.000 C 19.844 73.688,18.958 74.375,18.766 74.527 C 18.574 74.680,18.479 74.867,18.556 74.944 C 18.893 75.282,49.167 75.199,49.167 74.860 C 49.167 74.732,47.286 73.243,45.554 72.000 C 43.899 70.812,40.072 67.885,38.229 66.398 C 36.300 64.841,36.066 64.732,35.400 65.079 C 34.697 65.446,33.128 65.405,32.333 65.000 C 31.484 64.567,31.656 64.501,29.804 65.970 M33.779 65.462 C 34.514 65.509,34.980 65.446,35.406 65.244 L 36.004 64.960 37.091 65.772 C 37.689 66.218,39.057 67.280,40.131 68.130 C 41.205 68.981,42.571 70.019,43.167 70.437 C 43.762 70.854,44.813 71.641,45.500 72.184 C 46.188 72.728,47.125 73.421,47.583 73.725 C 49.400 74.931,50.606 74.834,33.812 74.826 L 18.750 74.819 19.500 74.157 C 19.912 73.792,20.550 73.289,20.917 73.039 C 21.283 72.788,22.500 71.871,23.620 71.000 C 24.741 70.129,26.166 69.030,26.787 68.557 C 27.408 68.085,28.554 67.198,29.333 66.587 C 30.113 65.976,30.930 65.336,31.151 65.163 C 31.529 64.868,31.584 64.865,32.151 65.124 C 32.480 65.274,33.213 65.426,33.779 65.462 "
            stroke="none" fill="#7c7c7c" fillRule="evenodd"></path>
    </g>
</svg>